<?xml version="1.0" encoding="utf-8"?>
<!-- Generator: Adobe Illustrator 27.5.0, SVG Export Plug-In . SVG Version: 6.00 Build 0)  -->
<svg version="1.1" xmlns="http://www.w3.org/2000/svg" xmlns:xlink="http://www.w3.org/1999/xlink" x="0px" y="0px"
	 viewBox="0 0 750 500" style="enable-background:new 0 0 750 500;" xml:space="preserve">
<g id="BACKGROUND">
	<rect x="125" style="fill:#FFFFFF;" width="500" height="500"/>
</g>
<g id="OBJECTS">
	<g>
		<g>
			<g>
				<path style="fill:#CCEFFF;" d="M655.738,118.156c-33.386-31.265-76.115-49.21-119.364-60.368
					C479.905,43.219,394.98,33.709,337.238,40.651c-57.194,2.861-204.495,23.824-270.725,99.176
					c-49.54,56.364-29.563,121.994-5.008,138.484c24.555,16.489,55.102,20.332,83.993,17.105
					c28.891-3.227,56.719-12.983,84.506-21.984c53.003-17.169,108.479-31.92,163.35-23.721
					c44.108,6.59,84.931,27.585,126.644,44.182c41.712,16.597,87.258,29.031,130.51,17.726
					c20.484-5.354,40.745-17.045,50.778-36.757c4.985-9.795,7.144-20.972,7.845-32.081
					C712.106,195.606,689.125,149.421,655.738,118.156z"/>
			</g>
			<g>
				<path style="fill:#FFFFFF;" d="M85.226,226.87c-7.581-7.582-19.918-7.582-27.499,0c-3.673,3.672-5.695,8.556-5.695,13.749
					c0,5.194,2.022,10.077,5.695,13.749c3.791,3.791,8.77,5.686,13.749,5.686c4.979,0,9.959-1.896,13.749-5.686
					c3.673-3.672,5.695-8.555,5.695-13.749C90.921,235.425,88.898,230.542,85.226,226.87z M83.102,227.601l-11.626,11.626
					L59.85,227.601c3.304-2.953,7.459-4.449,11.626-4.449C75.643,223.152,79.798,224.648,83.102,227.601z M58.457,228.992
					l10.643,10.643H54.048C54.268,235.666,55.806,231.954,58.457,228.992z M83.833,252.976c-6.814,6.813-17.901,6.813-24.714,0
					c-3.067-3.067-4.833-7.076-5.07-11.372h17.428c0.117,0,0.229-0.026,0.335-0.065c0.031-0.011,0.058-0.028,0.088-0.042
					c0.081-0.039,0.154-0.088,0.222-0.147c0.016-0.014,0.036-0.019,0.051-0.034l12.323-12.323c2.87,3.206,4.456,7.29,4.456,11.627
					C88.952,245.287,87.134,249.675,83.833,252.976z"/>
				<path style="fill:#FFFFFF;" d="M193.345,99.059c-14.075,0-25.525,11.451-25.525,25.526c0,14.075,11.451,25.526,25.525,25.526
					c14.075,0,25.526-11.451,25.526-25.526C218.87,110.51,207.42,99.059,193.345,99.059z M216.876,123.601h-22.547v-22.547
					C206.536,101.558,216.371,111.393,216.876,123.601z M193.345,148.142c-12.989,0-23.556-10.567-23.556-23.556
					c0-12.659,10.038-23.013,22.572-23.532v23.532c0,0.544,0.441,0.985,0.984,0.985h23.531
					C216.358,138.104,206.004,148.142,193.345,148.142z"/>
				<g>
					<g>
						<path style="fill:#FFFFFF;" d="M87.086,182.82c-4.588,0-8.321-3.732-8.321-8.32c0-4.588,3.732-8.321,8.321-8.321
							c4.588,0,8.32,3.732,8.32,8.321C95.406,179.087,91.674,182.82,87.086,182.82z M87.086,168.148
							c-3.502,0-6.352,2.849-6.352,6.352c0,3.502,2.849,6.351,6.352,6.351c3.502,0,6.351-2.849,6.351-6.351
							C93.437,170.997,90.588,168.148,87.086,168.148z"/>
					</g>
					<g>
						<path style="fill:#FFFFFF;" d="M92.382,199.351H81.789v-7.097c-1.22-0.362-2.396-0.85-3.513-1.454l-5.018,5.018l-7.49-7.49
							l5.017-5.018c-0.604-1.116-1.091-2.293-1.454-3.513h-7.097v-10.593h7.097c0.363-1.22,0.85-2.396,1.454-3.513l-5.017-5.018
							l7.49-7.49l5.018,5.018c1.117-0.604,2.293-1.092,3.513-1.454v-7.097h10.593v7.097c1.22,0.362,2.396,0.85,3.513,1.454
							l5.018-5.018l7.49,7.49l-5.017,5.018c0.604,1.117,1.092,2.293,1.455,3.513h7.097v10.593h-7.097
							c-0.363,1.22-0.85,2.396-1.454,3.513l5.017,5.018l-7.49,7.49l-5.018-5.018c-1.117,0.604-2.293,1.092-3.513,1.454V199.351z
							 M83.758,197.382h6.655v-6.645l0.743-0.188c1.55-0.392,3.031-1.005,4.4-1.822l0.659-0.393l4.698,4.698l4.706-4.706
							l-4.698-4.698l0.393-0.659c0.817-1.369,1.43-2.849,1.822-4.4l0.188-0.743h6.645v-6.655h-6.644l-0.188-0.743
							c-0.393-1.55-1.006-3.031-1.823-4.4l-0.393-0.659l4.698-4.698l-4.706-4.706l-4.698,4.698l-0.659-0.393
							c-1.369-0.817-2.849-1.43-4.4-1.822l-0.743-0.188v-6.644h-6.655v6.644l-0.743,0.188c-1.55,0.392-3.031,1.005-4.4,1.822
							l-0.659,0.393l-4.698-4.698l-4.706,4.706l4.698,4.698l-0.393,0.659c-0.817,1.369-1.43,2.849-1.822,4.4l-0.188,0.743h-6.644
							v6.655h6.644l0.188,0.743c0.393,1.551,1.006,3.032,1.823,4.4l0.393,0.659l-4.698,4.698l4.706,4.706l4.698-4.698l0.659,0.393
							c1.369,0.817,2.849,1.43,4.4,1.822l0.743,0.188V197.382z"/>
					</g>
				</g>
				<g>
					<path style="fill:#FFFFFF;" d="M316.101,91.171c0-9.278-7.548-16.825-16.825-16.825c-9.278,0-16.825,7.548-16.825,16.825
						c0,4.543,1.876,8.934,5.159,12.101l1.824,10.008v8.132c0,1.882,1.531,3.413,3.413,3.413h1.098
						c0.461,2.371,2.548,4.167,5.052,4.167c2.504,0,4.591-1.797,5.052-4.167h1.655c1.882,0,3.413-1.531,3.413-3.413v-8.132
						l1.824-10.008C314.225,100.104,316.101,95.714,316.101,91.171z M300.618,112.207h-2.685v-6.508
						c0-0.741,0.602-1.343,1.343-1.343c0.74,0,1.343,0.602,1.343,1.343V112.207z M307.148,114.176v3.355h-15.745v-3.355H307.148z
						 M298.997,127.023c-1.411,0-2.611-0.924-3.027-2.198h6.054C301.609,126.099,300.409,127.023,298.997,127.023z M305.704,122.855
						h-1.555h-10.304h-0.999c-0.796,0-1.444-0.648-1.444-1.444V119.5h15.745v1.911C307.148,122.207,306.501,122.855,305.704,122.855
						z M309.121,102.279l-1.809,9.928h-4.724v-6.508c0-1.826-1.486-3.312-3.312-3.312c-1.826,0-3.312,1.486-3.312,3.312v6.508
						h-4.724l-1.809-9.928l-0.241-0.223c-3.076-2.852-4.77-6.718-4.77-10.885c0-8.192,6.664-14.856,14.856-14.856
						c8.192,0,14.856,6.664,14.856,14.856c0,4.167-1.694,8.033-4.77,10.885L309.121,102.279z"/>
					<path style="fill:#FFFFFF;" d="M305.683,84.447c0-2.75-2.237-4.988-4.987-4.988s-4.987,2.237-4.987,4.988
						c0,2.75,2.237,4.987,4.987,4.987S305.683,87.197,305.683,84.447z M300.696,87.465c-1.664,0-3.018-1.354-3.018-3.018
						c0-1.664,1.354-3.018,3.018-3.018s3.018,1.354,3.018,3.018C303.714,86.112,302.361,87.465,300.696,87.465z"/>
					<path style="fill:#FFFFFF;" d="M308.133,87.47c-2.188,0-3.969,1.781-3.969,3.969c0,2.189,1.781,3.969,3.969,3.969
						c2.189,0,3.969-1.781,3.969-3.969C312.102,89.251,310.322,87.47,308.133,87.47z M308.133,93.44c-1.103,0-2-0.898-2-2
						s0.897-2,2-2s2,0.897,2,2S309.236,93.44,308.133,93.44z"/>
					<path style="fill:#FFFFFF;" d="M299.276,69.128c0.544,0,0.985-0.441,0.985-0.985v-8.198c0-0.544-0.441-0.984-0.985-0.984
						s-0.985,0.441-0.985,0.984v8.198C298.291,68.687,298.732,69.128,299.276,69.128z"/>
					<path style="fill:#FFFFFF;" d="M329.286,88.971h-8.198c-0.544,0-0.985,0.441-0.985,0.984s0.441,0.985,0.985,0.985h8.198
						c0.544,0,0.984-0.441,0.984-0.985S329.83,88.971,329.286,88.971z"/>
					<path style="fill:#FFFFFF;" d="M278.448,89.955c0-0.544-0.441-0.984-0.985-0.984h-8.198c-0.544,0-0.985,0.441-0.985,0.984
						s0.441,0.985,0.985,0.985h8.198C278.007,90.94,278.448,90.499,278.448,89.955z"/>
					<path style="fill:#FFFFFF;" d="M314.699,75.516c0.252,0,0.504-0.096,0.696-0.288l5.797-5.797c0.385-0.385,0.385-1.008,0-1.392
						c-0.385-0.385-1.008-0.385-1.392,0l-5.797,5.797c-0.385,0.385-0.385,1.008,0,1.392
						C314.196,75.42,314.448,75.516,314.699,75.516z"/>
					<path style="fill:#FFFFFF;" d="M283.156,104.683l-5.797,5.797c-0.385,0.385-0.385,1.008,0,1.392
						c0.192,0.192,0.444,0.288,0.696,0.288s0.504-0.096,0.696-0.288l5.797-5.797c0.385-0.385,0.385-1.008,0-1.392
						C284.163,104.299,283.54,104.299,283.156,104.683z"/>
					<path style="fill:#FFFFFF;" d="M315.396,104.683c-0.385-0.385-1.008-0.385-1.392,0c-0.385,0.385-0.385,1.008,0,1.392
						l5.797,5.797c0.192,0.192,0.444,0.288,0.696,0.288s0.504-0.096,0.696-0.288c0.385-0.385,0.385-1.008,0-1.392L315.396,104.683z"
						/>
					<path style="fill:#FFFFFF;" d="M283.156,75.228c0.192,0.192,0.444,0.288,0.696,0.288c0.252,0,0.504-0.096,0.696-0.288
						c0.385-0.385,0.385-1.008,0-1.392l-5.797-5.797c-0.385-0.385-1.008-0.385-1.392,0c-0.385,0.385-0.385,1.008,0,1.392
						L283.156,75.228z"/>
				</g>
				<g>
					<path style="fill:#FFFFFF;" d="M646.852,142.876h-10.284c-3.856,0-6.993,3.137-6.993,6.992v17.519h24.269v-17.519
						C653.845,146.012,650.708,142.876,646.852,142.876z M651.876,165.417h-2.86v-11.436c0-0.544-0.44-0.984-0.984-0.984
						c-0.544,0-0.985,0.441-0.985,0.984v11.436h-10.458v-11.436c0-0.544-0.44-0.984-0.984-0.984c-0.544,0-0.985,0.441-0.985,0.984
						v11.436h-3.075v-15.549c0-2.77,2.254-5.023,5.024-5.023h10.284c2.77,0,5.024,2.253,5.024,5.023V165.417z"/>
					<path style="fill:#FFFFFF;" d="M641.071,140.829c4.547,0,8.247-3.699,8.247-8.246c0-4.547-3.7-8.246-8.247-8.246
						c-4.547,0-8.246,3.699-8.246,8.246C632.825,137.13,636.524,140.829,641.071,140.829z M641.071,126.306
						c3.461,0,6.277,2.816,6.277,6.277s-2.816,6.277-6.277,6.277s-6.276-2.816-6.276-6.277S637.61,126.306,641.071,126.306z"/>
				</g>
				<g>
					<path style="fill:#FFFFFF;" d="M332.957,171.533h13.455v-28.382h-13.455V171.533z M334.926,145.121h9.517v24.443h-9.517
						V145.121z"/>
					<path style="fill:#FFFFFF;" d="M351.015,171.533h13.455v-37.338h-13.455V171.533z M352.984,136.165h9.517v33.399h-9.517
						V136.165z"/>
					<path style="fill:#FFFFFF;" d="M369.072,119.077v52.456h13.455v-52.456H369.072z M380.559,169.564h-9.517v-48.518h9.517
						V169.564z"/>
					<polygon style="fill:#FFFFFF;" points="375.689,104.539 378.223,107.535 381.544,98.298 371.883,100.04 374.417,103.036 
						356.831,117.913 348.367,111.159 333.311,123.72 334.572,125.233 348.395,113.7 356.867,120.461 					"/>
				</g>
				<g>
					<g>
						<path style="fill:#FFFFFF;" d="M385.813,74.655c-4.103,0-7.44-3.338-7.44-7.44c0-4.103,3.338-7.44,7.44-7.44
							s7.441,3.338,7.441,7.44C393.254,71.317,389.916,74.655,385.813,74.655z M385.813,61.743c-3.017,0-5.471,2.454-5.471,5.471
							c0,3.017,2.454,5.471,5.471,5.471c3.017,0,5.472-2.454,5.472-5.471C391.285,64.197,388.83,61.743,385.813,61.743z"/>
					</g>
					<g>
						<path style="fill:#FFFFFF;" d="M390.593,89.203h-9.558v-6.275c-1.023-0.311-2.011-0.72-2.952-1.223l-4.437,4.437l-6.759-6.759
							l4.437-4.438c-0.503-0.941-0.913-1.929-1.223-2.952h-6.276v-9.558h6.275c0.31-1.023,0.72-2.011,1.223-2.952l-4.437-4.437
							l6.759-6.759l4.437,4.437c0.941-0.503,1.93-0.912,2.952-1.222v-6.275h9.558v6.275c1.022,0.31,2.01,0.719,2.952,1.222
							l4.437-4.437l6.759,6.759l-4.437,4.437c0.503,0.941,0.912,1.93,1.223,2.952h6.275v9.558h-6.276
							c-0.31,1.022-0.719,2.01-1.222,2.952l4.437,4.438l-6.759,6.759l-4.437-4.437c-0.94,0.502-1.929,0.912-2.952,1.223V89.203z
							 M383.003,87.234h5.62v-5.821l0.743-0.188c1.354-0.343,2.646-0.878,3.84-1.591l0.659-0.393l4.116,4.117l3.975-3.974
							l-4.116-4.117l0.393-0.658c0.714-1.196,1.248-2.488,1.589-3.84l0.187-0.744h5.822v-5.62h-5.82l-0.188-0.743
							c-0.342-1.353-0.877-2.646-1.59-3.841l-0.393-0.658l4.116-4.116l-3.975-3.974l-4.116,4.116l-0.659-0.393
							c-1.196-0.714-2.488-1.249-3.84-1.59l-0.743-0.188v-5.821h-5.62v5.821l-0.743,0.188c-1.353,0.341-2.645,0.876-3.841,1.59
							l-0.658,0.393l-4.116-4.116l-3.974,3.974l4.116,4.116l-0.393,0.658c-0.713,1.195-1.249,2.488-1.591,3.841l-0.188,0.743h-5.82
							v5.62h5.821l0.188,0.743c0.341,1.352,0.877,2.645,1.59,3.841l0.393,0.658l-4.116,4.117l3.974,3.974l4.116-4.117l0.659,0.393
							c1.194,0.713,2.486,1.248,3.841,1.591l0.743,0.188V87.234z"/>
					</g>
				</g>
				<g>
					<g>
						<path style="fill:#FFFFFF;" d="M658.962,273.909c-5.159,0-9.356-4.197-9.356-9.356c0-5.158,4.197-9.355,9.356-9.355
							c5.158,0,9.355,4.197,9.355,9.355C668.317,269.712,664.12,273.909,658.962,273.909z M658.962,257.167
							c-4.073,0-7.387,3.313-7.387,7.386c0,4.073,3.314,7.387,7.387,7.387c4.073,0,7.386-3.314,7.386-7.387
							C666.348,260.48,663.035,257.167,658.962,257.167z"/>
					</g>
					<g>
						<path style="fill:#FFFFFF;" d="M660.533,282.789h-3.143c-1.395,0-2.53-1.135-2.53-2.53v-1.078
							c-1.162-0.326-2.281-0.79-3.339-1.387l-0.765,0.764c-0.987,0.986-2.591,0.986-3.578,0l-2.222-2.222
							c-0.987-0.987-0.987-2.591,0-3.578l0.764-0.765c-0.597-1.059-1.061-2.177-1.387-3.339h-1.078c-1.395,0-2.53-1.134-2.53-2.53
							v-3.143c0-1.395,1.134-2.53,2.53-2.53h1.078c0.326-1.162,0.79-2.281,1.387-3.339l-0.764-0.765
							c-0.478-0.478-0.741-1.113-0.741-1.789c0-0.676,0.263-1.311,0.742-1.789l2.221-2.222c0.985-0.985,2.59-0.987,3.578,0
							l0.765,0.766c1.059-0.597,2.177-1.062,3.339-1.387v-1.078c0-1.395,1.135-2.53,2.53-2.53h3.143c1.395,0,2.53,1.135,2.53,2.53
							v1.078c1.162,0.326,2.281,0.79,3.339,1.387l0.765-0.765c0.956-0.956,2.624-0.956,3.578,0l2.223,2.223
							c0.985,0.986,0.985,2.59,0.001,3.578l-0.766,0.765c0.597,1.059,1.062,2.177,1.387,3.339h1.078c1.395,0,2.53,1.135,2.53,2.53
							v3.143c0,1.395-1.135,2.53-2.53,2.53h-1.078c-0.326,1.163-0.79,2.281-1.387,3.339l0.765,0.765
							c0.985,0.987,0.985,2.591,0.001,3.577l-2.224,2.223c-0.954,0.956-2.622,0.956-3.578,0l-0.765-0.764
							c-1.059,0.597-2.177,1.061-3.339,1.387v1.078C663.063,281.655,661.928,282.789,660.533,282.789z M651.229,275.301l0.665,0.422
							c1.291,0.818,2.692,1.401,4.166,1.731l0.769,0.172v2.634c0,0.309,0.252,0.56,0.56,0.56h3.143c0.309,0,0.561-0.252,0.561-0.56
							v-2.634l0.769-0.172c1.474-0.33,2.875-0.912,4.166-1.731l0.665-0.422l1.865,1.865c0.211,0.211,0.582,0.212,0.792,0
							l2.224-2.222c0.218-0.218,0.218-0.575-0.001-0.793l-1.865-1.865l0.422-0.665c0.818-1.291,1.401-2.692,1.731-4.166l0.172-0.769
							h2.633c0.309,0,0.561-0.252,0.561-0.561v-3.143c0-0.309-0.252-0.561-0.561-0.561h-2.633l-0.172-0.769
							c-0.33-1.474-0.912-2.875-1.731-4.166l-0.422-0.665l1.866-1.865c0.218-0.218,0.218-0.575,0-0.793l-2.223-2.223
							c-0.211-0.212-0.582-0.212-0.793,0l-1.865,1.866l-0.665-0.422c-1.291-0.818-2.692-1.401-4.166-1.731l-0.769-0.172v-2.633
							c0-0.309-0.252-0.561-0.561-0.561h-3.143c-0.309,0-0.56,0.251-0.56,0.561v2.633l-0.769,0.172
							c-1.474,0.33-2.875,0.912-4.166,1.731l-0.665,0.422l-1.865-1.866c-0.22-0.22-0.575-0.216-0.793,0l-2.222,2.223
							c-0.106,0.106-0.164,0.247-0.164,0.396c0,0.15,0.059,0.291,0.164,0.397l1.865,1.865l-0.422,0.665
							c-0.818,1.291-1.401,2.692-1.731,4.166l-0.172,0.769h-2.633c-0.309,0-0.561,0.252-0.561,0.561v3.143
							c0,0.309,0.252,0.561,0.561,0.561h2.633l0.172,0.769c0.33,1.474,0.912,2.875,1.731,4.166l0.422,0.665l-1.865,1.865
							c-0.218,0.218-0.218,0.575,0,0.793l2.222,2.222c0.218,0.218,0.573,0.219,0.793,0L651.229,275.301z"/>
					</g>
				</g>
				<path style="fill:#FFFFFF;" d="M663.822,183.949c-14.075,0-25.526,11.451-25.526,25.525c0,14.075,11.451,25.526,25.526,25.526
					c14.075,0,25.526-11.451,25.526-25.526C689.348,195.4,677.897,183.949,663.822,183.949z M664.807,185.943
					c12.207,0.505,22.042,10.34,22.547,22.547h-22.547V185.943z M663.822,233.032c-12.989,0-23.557-10.568-23.557-23.557
					c0-12.659,10.038-23.013,22.572-23.531v23.531c0,0.544,0.44,0.985,0.984,0.985h23.532
					C686.836,222.994,676.481,233.032,663.822,233.032z"/>
				<path style="fill:#FFFFFF;" d="M304.021,145.926c-10.722,0-19.445,8.723-19.445,19.445c0,10.722,8.723,19.445,19.445,19.445
					c10.722,0,19.445-8.723,19.445-19.445C323.466,154.649,314.743,145.926,304.021,145.926z M321.447,164.386h-16.441v-16.441
					C313.856,148.442,320.951,155.537,321.447,164.386z M292.399,152.356c2.862-2.559,6.562-4.183,10.638-4.411v15.049
					L292.399,152.356z M304.021,182.846c-9.636,0-17.476-7.839-17.476-17.476c0-4.464,1.697-8.53,4.461-11.622l12.318,12.318
					c0.09,0.09,0.199,0.162,0.319,0.212c0.12,0.05,0.248,0.076,0.378,0.076h17.426C320.932,175.533,313.326,182.846,304.021,182.846
					z"/>
				<g>
					<g>
						<path style="fill:#FFFFFF;" d="M531.733,138.841c-7.933,0-14.667-8.078-16.803-12.022c-1.053,0.11-2.091,0.165-3.095,0.165
							c-15.935,0-28.9-12.495-28.9-27.853c0-15.358,12.964-27.853,28.9-27.853c15.936,0,28.901,12.495,28.901,27.853
							c0,8.899-4.444,17.286-11.912,22.525c-0.974,9.624,6.296,14.944,6.371,14.997l1.665,1.191l-1.97,0.557
							C533.824,138.704,532.768,138.841,531.733,138.841z M516.089,124.696l0.304,0.652c0.964,2.074,7.724,12.191,16.049,11.507
							c-2.406-2.385-6.538-7.764-5.521-15.876l0.056-0.442l0.368-0.25c7.153-4.853,11.423-12.761,11.423-21.155
							c0-14.272-12.082-25.884-26.932-25.884c-14.85,0-26.931,11.611-26.931,25.884s12.081,25.884,26.931,25.884
							c1.141,0,2.332-0.077,3.54-0.23L516.089,124.696z"/>
					</g>
					<g>
						<g>
							<path style="fill:#FFFFFF;" d="M496.579,103.977c-2.728,0-4.947-2.22-4.947-4.947c0-2.728,2.219-4.947,4.947-4.947
								c2.729,0,4.948,2.22,4.948,4.947C501.527,101.757,499.308,103.977,496.579,103.977z M496.579,96.052
								c-1.642,0-2.978,1.336-2.978,2.978c0,1.642,1.335,2.978,2.978,2.978s2.979-1.336,2.979-2.978
								C499.558,97.388,498.221,96.052,496.579,96.052z"/>
						</g>
						<g>
							<path style="fill:#FFFFFF;" d="M511.836,103.977c-2.728,0-4.947-2.22-4.947-4.947c0-2.728,2.219-4.947,4.947-4.947
								c2.729,0,4.948,2.22,4.948,4.947C516.784,101.757,514.565,103.977,511.836,103.977z M511.836,96.052
								c-1.642,0-2.978,1.336-2.978,2.978c0,1.642,1.336,2.978,2.978,2.978c1.642,0,2.979-1.336,2.979-2.978
								C514.815,97.388,513.478,96.052,511.836,96.052z"/>
						</g>
						<g>
							<path style="fill:#FFFFFF;" d="M527.092,103.977c-2.728,0-4.947-2.22-4.947-4.947c0-2.728,2.219-4.947,4.947-4.947
								c2.729,0,4.948,2.22,4.948,4.947C532.04,101.757,529.821,103.977,527.092,103.977z M527.092,96.052
								c-1.642,0-2.978,1.336-2.978,2.978c0,1.642,1.335,2.978,2.978,2.978s2.979-1.336,2.979-2.978
								C530.071,97.388,528.735,96.052,527.092,96.052z"/>
						</g>
					</g>
				</g>
			</g>
		</g>
		<ellipse style="fill:#ECE9F3;" cx="367.088" cy="455.638" rx="290.113" ry="23.237"/>
		<g>
			<g>
				<g>
					<g>
						<path style="fill:#F4B7B0;" d="M437.614,429.347c-3.834,4.666-11.252,6.333-16.579,8.548
							c-2.487,1.034-5.387,4.475-3.628,6.514c0.819,0.949,3.852,0.047,5.105-0.001c10.378-0.393,22.054-4.346,31.909-7.619
							c-2.209-8.626-3.061-23.684-2.865-35.537c0.401-24.38,5.081-49.538-1.149-69.574c-1.206-3.878-0.407-11.209-0.993-15.233
							c-7.595-0.165-15.2,0.14-22.757,0.912c0.84,6.781-2.386,11.377-0.017,17.767c4.076,10.994,5.31,24.195,6.823,38.147
							C435.645,393.376,440.398,425.96,437.614,429.347z"/>
					</g>
				</g>
				<g>
					<g>
						<path style="fill:#3C93AA;" d="M442.836,434.685c3.523,0.396,7.571,0,10.553-2.944c1.322-1.305,2.318,11.619,1.032,12.284
							c-8.116,4.196-24.803,3.509-35.038,4.133c-1.793,0.109-3.64,0.142-5.329-0.47c-1.689-0.612-1.775-0.481-2.045-2.257
							c-0.472-3.109,2.111-4.975,5.088-5.996c6.07-2.083,12.962-5.857,17.702-8.786C434.8,430.649,437.941,434.135,442.836,434.685z
							"/>
					</g>
				</g>
				<g>
					<g>
						<path style="fill:#FFCBC3;" d="M463.212,431.316c-3.834,4.666-11.252,6.333-16.579,8.548
							c-2.486,1.034-5.387,4.475-3.628,6.514c0.819,0.949,3.851,0.046,5.105-0.001c10.378-0.393,22.054-4.346,31.91-7.619
							c-2.209-8.626-3.061-23.684-2.865-35.537c0.401-24.38,5.082-49.538-1.149-69.575c-1.206-3.878-0.407-11.209-0.993-15.233
							c-7.595-0.165-15.2,0.14-22.757,0.912c0.84,6.781-2.386,11.377-0.017,17.767c4.076,10.994,5.31,24.195,6.823,38.146
							C461.243,395.345,465.996,427.928,463.212,431.316z"/>
					</g>
				</g>
				<g>
					<g>
						<path style="fill:#56AECE;" d="M468.435,436.655c3.523,0.396,7.571,0,10.553-2.944c1.322-1.305,2.402,12.634,1.032,13.1
							c-9.921,3.379-24.803,2.692-35.038,3.316c-1.793,0.109-3.64,0.142-5.329-0.47c-1.689-0.612-1.775-0.481-2.045-2.257
							c-0.472-3.108,2.111-4.975,5.088-5.996c6.07-2.083,12.962-5.857,17.702-8.786C460.398,432.618,463.54,436.104,468.435,436.655
							z"/>
					</g>
				</g>
				<g>
					<g>
						<path style="fill:#092D41;" d="M423.004,339.39c2.215,2.512,11.046,3.404,22.398,3.2c12.03-0.216,22.152,0.738,34.872-3.2
							c0.912-18.892,2.575-36.904,4.846-55.681c1.619-13.386,3.601-16.929,5.06-28.597c-22-1.039-53.82,2.185-75.566-1.378
							c-0.98,9.353,0.509,13.538,1.699,29.447C416.674,288.008,423.004,339.39,423.004,339.39z"/>
					</g>
				</g>
			</g>
			<g>
				<g>
					<path style="fill:#AF6C3E;" d="M470.508,102.607c7.384,46.274,0.69,71.818,2.677,95.993
						c-11.777,0.989-32.599,2.775-44.24,0.729c-0.145-13.874-9.287-86.971-8.354-101.568c0.421-6.587,1.985-14.353,7.658-20.298
						c4.973-5.212,11.583-5.469,18.083-5.5c10.361-0.051,16.675,6.245,19.235,11.568C468.885,90.43,469.507,96.332,470.508,102.607z
						"/>
				</g>
			</g>
			<g>
				<g>
					<path style="fill:#EAA580;" d="M420.771,141.058c-8.597-0.057-15.089,14.622-15.981,17.374
						c-4.048,12.48-11.938,22.769-19.332,33.607c-8.77,4.365-18.173,7.458-27.823,9.15c-3.879,0.68-7.863,1.155-11.434,2.815
						c-6.578,3.058-14.452,9.235-21.51,10.909c-2.401,2.941,2.03,2.941,7.875,1.293c1.669-0.47,2.774-2.174,4.43-2.689
						c5.179-1.612,11.452,5.468,15.392,1.739c0.728-0.689,1.173-1.654,1.974-2.256c1.091-0.82,2.572-0.79,3.936-0.835
						c4.812-0.158,9.461-1.682,14.032-3.191c6.1-2.014,12.2-4.027,18.299-6.041c2.198-0.726,4.421-1.463,6.381-2.695
						c1.597-1.004,2.979-2.311,4.302-3.655c11.146-11.319,18.761-19.432,26.094-35.396c0.663-1.443,0.266-8.268-0.016-9.83
						C425.792,142.491,422.853,141.072,420.771,141.058z"/>
				</g>
			</g>
			<g>
				<g>
					<g>
						<path style="fill:#F7643B;" d="M419.313,188.773c5.457,8.166,5.581,17.847,2.773,27.291c-1.381,4.644-2.07,5.993-4.743,13.782
							c-4.139,12.061-3.467,23.559-2.729,23.888c11.993,5.34,21.494,5.626,34.739,5.661c10.557,0.028,39.618-2.095,40.828-4.283
							c0.621-1.124-3.234-22.147-7.46-30.574c-2.038-4.064-4.458-8.032-5.45-12.435c-1.22-5.415-0.181-11.027,0.675-16.505
							c2.895-18.535,15.509-40.164,1.833-56.399c-2.241-0.667-8.362-1.875-12.886-2.038c-16.287-0.587-20.266-0.922-35.079,1.581
							c-7.36,1.244-11.043,2.316-11.043,2.316c2.213,9.109,1.817,13.245,0.821,17.374
							C419.313,167.878,411.419,176.959,419.313,188.773z"/>
					</g>
				</g>
				<g>
					<g>
						<g>
							<path style="fill:#E25333;" d="M429.022,144.136c0.864,7.745,9.843,10.839,16.484,12.276
								c8.23,1.781,13.968-1.995,18.649-8.535c0.279-0.389-0.348-0.871-0.664-0.513c-4.988,5.647-9.571,9.805-17.708,8.048
								c-6.216-1.342-14.866-4.208-16.005-11.378C429.71,143.61,428.974,143.705,429.022,144.136L429.022,144.136z"/>
						</g>
					</g>
				</g>
				<g>
					<g>
						<g>
							<path style="fill:#E25333;" d="M447.539,174.27c-4.798,11.875,14.263,18.899,22.246,12.184
								c0.298-0.251-0.02-0.812-0.389-0.668c-4.275,1.66-7.989,2.852-12.58,1.531c-5.439-1.564-10.298-6.904-8.432-12.814
								C448.558,173.952,447.744,173.76,447.539,174.27L447.539,174.27z"/>
						</g>
					</g>
				</g>
				<g>
					<g>
						<g>
							<path style="fill:#E25333;" d="M432.054,212.743c10.711,1.27,22.349-2.575,29.335-11.047
								c0.322-0.391-0.189-0.931-0.566-0.566c-7.992,7.745-17.495,11.975-28.769,11.136
								C431.744,212.243,431.756,212.708,432.054,212.743L432.054,212.743z"/>
						</g>
					</g>
				</g>
				<g>
					<g>
						<g>
							<path style="fill:#E25333;" d="M426.853,229.596c12.423-4.218,25.667-8.271,37.256-14.497
								c0.212-0.114,0.068-0.474-0.166-0.394c-12.552,4.33-24.613,10.164-37.184,14.549
								C426.546,229.33,426.636,229.67,426.853,229.596L426.853,229.596z"/>
						</g>
					</g>
				</g>
				<g>
					<g>
						<g>
							<path style="fill:#E25333;" d="M420.523,186.147c4.425,6.465,15.181,8.185,20.228,1.352c0.18-0.243-0.169-0.569-0.41-0.41
								c-3.173,2.094-6.04,3.964-10.03,3.686c-3.712-0.259-6.898-2.266-9.364-4.953
								C420.743,185.599,420.349,185.893,420.523,186.147L420.523,186.147z"/>
						</g>
					</g>
				</g>
			</g>
			<g>
				<g>
					<path style="fill:#EAA580;" d="M523.615,192.506c0.99,4.855-2.349,9.455-5.692,13.112
						c-5.098,5.577-13.742,13.046-19.738,17.644c-3.054,2.342-1.633,4.009-3.063,7.582c-1.969,4.923-5.301,5.281-3.598,8.733
						c2.614,5.297,3.691-0.042,4.539,2.926c-0.499,2.495-2.124,2.923-4.553,2.165c-5.686-1.774-5.482-5.171-6.853-10.967
						c-0.497-2.104-0.988-4.35-0.258-6.385c0.416-1.16,1.197-2.147,1.965-3.111c6.99-8.775,21.307-29.234,20.875-29.717
						c-10.334-11.573-14.603-15.632-26.638-25.424c-7.651-6.225-11.693-22.922-5.041-28.424c5.374-4.445,11.715,2.451,15.12,6.487
						C502.245,160.835,523.062,189.794,523.615,192.506z"/>
				</g>
			</g>
			<g>
				<g>
					<g>
						<path style="fill:#EAA580;" d="M431.814,138.742c0.05,3.615,2.06,7.05,4.932,9.246c2.872,2.196,6.519,3.23,10.132,3.355
							c4.205,0.146,8.501-0.925,11.944-3.342c3.444-2.417,5.612-6.736,6.133-10.911c-3.8-0.348-4.457-1.337-5.345-2.285
							c-0.532-0.568-3.111-18.478-3.299-26.451c-5.284,0.367-12.599,0.434-17.827-0.416
							C438.352,107.916,442.941,135.835,431.814,138.742z"/>
					</g>
				</g>
				<g>
					<g>
						<path style="fill:#F9B698;" d="M428.059,118.353c1.679,5.294,7.311,10.933,11.682,10.928c2.069-0.003,8.61-1.009,12.676-6.91
							c4.29-6.226,5.396-12.837,5.689-20.393c0.146-3.775,0.077-7.781-1.903-10.999c-1.763-2.866-4.855-4.717-8.089-5.645
							c-3.234-0.928-6.641-1.03-10.005-1.082c-1.673-0.026-3.391-0.034-4.961,0.545c-2.9,1.07-7.08,4.296-7.734,7.317
							C423.893,99.134,425.94,111.669,428.059,118.353z"/>
					</g>
				</g>
				<g>
					<g>
						<path style="fill:#AF6C3E;" d="M467.161,105.029c-0.404,0.857-0.955,1.713-1.831,2.077c-0.571,0.246-1.211,0.246-1.841,0.236
							c-2.087-0.01-4.174-0.02-6.271-0.039c-0.965-3.889-1.516-7.896-1.634-11.913h-10.81c-0.364-3.771-0.581-7.798-0.601-9.521
							c-0.541,1.054-2.412,8.753-2.954,9.816c-3.259,0.207-5.582,0.246-7.423,0.217c0.02-2.018,0.039-5.907-0.01-7.945
							c0,0-1.329,4.48-1.812,7.896c-2.836-0.118-4.657-0.354-8.241-0.167c-1.073,0.049-0.167-9.816,4.165-15.408
							c2.55-3.288,6.882-5.346,10.948-5.966c4.45-0.679,10.672-1.26,15.064-0.256c4.352,0.994,7.246,3.741,10.17,7.118
							c2.727,3.141,3.554,7.473,4.076,11.598C468.667,96.896,468.933,101.268,467.161,105.029z"/>
					</g>
				</g>
				<g>
					<g>
						<path style="fill:#F9B698;" d="M459.209,99.407c-4.391-0.477-4.635,8.102-4.241,9.916c0.394,1.814-0.046,3.621,1.936,3.622
							c3.645,0.001,5.132-2.89,5.602-6.123C462.978,103.58,462.551,99.77,459.209,99.407z"/>
					</g>
				</g>
				<g>
					<g>
						<g>
							<path style="fill:#AF6C3E;" d="M428.044,100.374c2.32-2.2,4.676-1.49,7.236-0.202c0.199,0.1,0.439-0.162,0.252-0.326
								c-2.368-2.077-5.616-2.043-7.814,0.202C427.509,100.26,427.828,100.578,428.044,100.374L428.044,100.374z"/>
						</g>
					</g>
				</g>
				<g>
					<g>
						<g>
							<path style="fill:#AF6C3E;" d="M442.968,100.178c0.983-0.721,2.056-1.275,3.308-1.23c1.359,0.048,2.47,0.806,3.643,1.402
								c0.271,0.138,0.606-0.228,0.345-0.447c-2.34-1.958-5.189-1.895-7.482,0.034C442.65,100.048,442.827,100.282,442.968,100.178
								L442.968,100.178z"/>
						</g>
					</g>
				</g>
				<g>
					<g>
						<g>
							<path style="fill:#E2906F;" d="M437.364,105.384c0.088,1.393,0.215,2.909-0.251,4.251c-0.378,1.09-1.412,1.912-1.635,3.047
								c-0.247,1.255,0.553,2.359,1.819,2.451c0.349,0.025,0.462-0.482,0.175-0.645c-2.181-1.236,0.047-3.173,0.48-4.622
								c0.433-1.451,0.246-3.006,0.074-4.482C437.978,104.972,437.337,104.951,437.364,105.384L437.364,105.384z"/>
						</g>
					</g>
				</g>
				<g>
					<g>
						<g>
							<path style="fill:#F27E5A;" d="M434.303,118.554c2.021,2.261,6.144,2.784,8.044-0.019c0.22-0.325-0.197-0.637-0.495-0.495
								c-1.155,0.554-2.003,1.407-3.358,1.509c-1.433,0.109-2.683-0.541-3.788-1.398
								C434.421,117.931,434.052,118.273,434.303,118.554L434.303,118.554z"/>
						</g>
					</g>
				</g>
				<g>
					<g>
						<g>
							<path style="fill:#EAA580;" d="M438.1,122.285c0.533-0.003,1.202,0.103,1.706-0.078c0.233-0.084,0.233-0.391,0-0.475
								c-0.505-0.181-1.173-0.075-1.706-0.078C437.695,121.652,437.694,122.287,438.1,122.285L438.1,122.285z"/>
						</g>
					</g>
				</g>
				<g>
					<g>
						<g>
							<path style="fill:#E2906F;" d="M457.04,104.554c0.076-0.798,0.884-1.915,1.499-2.384c1.339-1.022,1.715,0.553,1.913,1.548
								c0.397,2.001,0.074,3.507-0.329,5.487c-0.038,0.187,0.225,0.324,0.323,0.136c0.707-1.347,0.885-2.921,0.669-4.414
								c-0.143-0.993-0.23-2.287-0.872-3.105c-1.344-1.715-3.483,1.49-3.588,2.731C456.635,104.801,457.017,104.798,457.04,104.554
								L457.04,104.554z"/>
						</g>
					</g>
				</g>
				<g>
					<g>
						<g>
							<path style="fill:#E2906F;" d="M457.234,107.532c0.063-0.277,0.489-0.581,0.756-0.299c0.151,0.16,0.129,0.643,0.129,0.848
								c-0.001,0.212-0.013,0.434-0.094,0.632c-0.214,0.523-0.949,0.587-1.099,1.127c-0.047,0.167,0.082,0.311,0.245,0.321
								c0.424,0.027,0.911-0.395,1.16-0.705c0.407-0.508,0.422-1.149,0.355-1.768c-0.066-0.606-0.122-1.125-0.83-1.221
								c-0.618-0.084-1.149,0.273-1.273,0.886C456.495,107.775,457.137,107.959,457.234,107.532L457.234,107.532z"/>
						</g>
					</g>
				</g>
				<g>
					<g>
						<g>
							<ellipse style="fill:#AF6C3E;" cx="431.633" cy="106.299" rx="1.108" ry="1.764"/>
						</g>
					</g>
					<g>
						<g>
							<ellipse style="fill:#AF6C3E;" cx="446.209" cy="106.299" rx="1.108" ry="1.764"/>
						</g>
					</g>
				</g>
				<g>
					<g>
						<path style="fill:#F9A787;" d="M450.751,113.217c0,0.901-1.104,1.631-2.466,1.631s-2.466-0.73-2.466-1.631
							c0-0.901,1.104-1.631,2.466-1.631S450.751,112.316,450.751,113.217z"/>
					</g>
				</g>
				<g>
					<g>
						<path style="fill:#F9A787;" d="M432.991,113.496c0,0.901-1.104,1.631-2.466,1.631s-2.466-0.73-2.466-1.631
							c0-0.901,1.104-1.631,2.466-1.631S432.991,112.596,432.991,113.496z"/>
					</g>
				</g>
				<g>
					<g>
						<g>
							<path style="fill:#C17846;" d="M423.621,95.067c0.195-5.553,2.363-12.49,6.867-16.084c0.189-0.151-0.016-0.467-0.232-0.398
								c-2.193,0.695-3.609,3.75-4.509,5.607c-1.65,3.406-2.643,7.086-2.726,10.875C423.013,95.454,423.608,95.452,423.621,95.067
								L423.621,95.067z"/>
						</g>
					</g>
				</g>
				<g>
					<g>
						<g>
							<path style="fill:#C17846;" d="M428.462,93.467c0.209-5.169,1.945-9.274,4.402-13.733c0.251-0.456-0.378-0.784-0.677-0.396
								c-3.043,3.939-4.301,9.234-4.417,14.129C427.759,93.914,428.444,93.911,428.462,93.467L428.462,93.467z"/>
						</g>
					</g>
				</g>
				<g>
					<g>
						<g>
							<path style="fill:#C17846;" d="M436.131,93.467c0.051-5.094,0.855-9.685,2.177-14.578c0.094-0.349-0.413-0.477-0.534-0.147
								c-1.732,4.728-2.158,9.728-2.166,14.726C435.608,93.804,436.128,93.804,436.131,93.467L436.131,93.467z"/>
						</g>
					</g>
				</g>
				<g>
					<g>
						<g>
							<path style="fill:#C17846;" d="M439.503,93.837c0.478-4.983,1.546-9.622,2.843-14.433c0.111-0.413-0.47-0.546-0.623-0.172
								c-1.848,4.512-2.3,9.777-2.651,14.604C439.052,94.115,439.477,94.109,439.503,93.837L439.503,93.837z"/>
						</g>
					</g>
				</g>
				<g>
					<g>
						<g>
							<path style="fill:#C17846;" d="M448.014,93.227c0.521-4.729,0.406-10.172-1.624-14.571c-0.157-0.34-0.646-0.088-0.576,0.243
								c1.015,4.866,2.064,9.295,1.678,14.328C447.465,93.566,447.978,93.556,448.014,93.227L448.014,93.227z"/>
						</g>
					</g>
				</g>
				<g>
					<g>
						<g>
							<path style="fill:#C17846;" d="M453.336,92.245c0.366-4.286-0.662-9.467-3.019-13.105c-0.212-0.327-0.764-0.126-0.647,0.273
								c1.317,4.499,3.608,7.906,3.297,12.833C452.952,92.483,453.316,92.479,453.336,92.245L453.336,92.245z"/>
						</g>
					</g>
				</g>
				<g>
					<g>
						<g>
							<path style="fill:#C17846;" d="M452.366,77.828c5.353,5.526,5.99,12.795,7.148,20.001c0.028,0.172,0.308,0.13,0.302-0.041
								c-0.242-7.377-1.504-15.036-7.124-20.286C452.475,77.299,452.158,77.614,452.366,77.828L452.366,77.828z"/>
						</g>
					</g>
				</g>
				<g>
					<g>
						<g>
							<path style="fill:#C17846;" d="M456.699,77.198c5.631,6.527,8.229,13.822,9.146,22.299c0.045,0.414,0.657,0.436,0.661,0
								c0.091-8.487-3.615-16.645-9.275-22.832C456.902,76.304,456.385,76.834,456.699,77.198L456.699,77.198z"/>
						</g>
					</g>
				</g>
				<g>
					<g>
						<g>
							<path style="fill:#C17846;" d="M466.708,106.777c1.204,9.87,1.579,19.602,1.846,29.518c0.011,0.406,0.616,0.406,0.631,0
								c0.358-9.819-0.592-19.872-2.114-29.567C467.039,106.524,466.683,106.57,466.708,106.777L466.708,106.777z"/>
						</g>
					</g>
				</g>
				<g>
					<g>
						<g>
							<path style="fill:#C17846;" d="M462.75,112.43c0.671,7.398,1.911,14.66,2.855,22.023c0.051,0.395,0.614,0.326,0.544-0.074
								c-1.267-7.261-1.954-14.64-2.922-21.95C463.188,112.134,462.722,112.119,462.75,112.43L462.75,112.43z"/>
						</g>
					</g>
				</g>
				<g>
					<g>
						<g>
							<path style="fill:#C17846;" d="M461.495,130.573c-0.554-4.042-0.764-8.355-1.824-12.295c-0.06-0.223-0.417-0.183-0.408,0.055
								c0.151,4.094,1.225,8.295,1.891,12.334C461.191,130.894,461.525,130.794,461.495,130.573L461.495,130.573z"/>
						</g>
					</g>
				</g>
				<g>
					<g>
						<g>
							<path style="fill:#C17846;" d="M426.924,136.742c-0.883-11.101-2.036-22.317-3.432-33.361c-0.042-0.333-0.537-0.357-0.538,0
								c-0.043,11.123,2.516,22.324,3.693,33.361C426.665,136.917,426.938,136.922,426.924,136.742L426.924,136.742z"/>
						</g>
					</g>
				</g>
				<g>
					<g>
						<g>
							<path style="fill:#C17846;" d="M430.019,135.18c-0.225-2.273-0.165-4.851-0.797-7.045c-0.051-0.177-0.31-0.138-0.317,0.043
								c-0.092,2.281,0.581,4.772,0.903,7.031C429.825,135.328,430.031,135.301,430.019,135.18L430.019,135.18z"/>
						</g>
					</g>
				</g>
				<g>
					<g>
						<g>
							<path style="fill:#C17846;" d="M433.599,135.066c0.2-1.557,0.142-3.091-0.158-4.63c-0.075-0.388-0.672-0.224-0.593,0.164
								c0.299,1.483,0.349,2.966,0.166,4.467C432.969,135.439,433.552,135.433,433.599,135.066L433.599,135.066z"/>
						</g>
					</g>
				</g>
			</g>
		</g>
		<g>
			<g>
				<g>
					<g>
						<path style="fill:#2B2A4A;" d="M173.176,445.817c1.315-1.291,2.02-6.662-2.461-8.112c-9.523-3.082-18.969-6.573-20.281-7.637
							c-2.289-1.859-0.566-8.175-1.582-10.802c-1.654-4.277-0.957-1.429-6.074-1.727c-6.265-0.364-7.469,0.318-6.725,6.051
							c0.296,2.28-2.574,19.172-2.009,21.419C134.419,446.5,172.24,446.736,173.176,445.817z"/>
					</g>
				</g>
				<g>
					<g>
						<path style="fill:#2B2A4A;" d="M212.37,442.464c1.315-1.292,1.682-6.589-6.458-9.015c-7.93-2.364-13.421-3.856-14.733-4.92
							c-2.289-1.859-2.915-3.559-3.931-6.186c-1.654-4.277,0.522-6.304-4.595-6.602c-6.265-0.364-8.043,3.658-7.299,9.39
							c0.296,2.28-2.689,16.651-1.461,17.333C180.175,445.954,211.434,443.383,212.37,442.464z"/>
					</g>
				</g>
				<g>
					<g>
						<path style="fill:#FEBF5B;" d="M135.222,427.757c3.169,2.338,13.65,2.905,15.107,0.369
							c0.954-1.66,11.938-92.512,19.19-148.107c2.342,49.533,4.077,84.689,5.426,145.539c5.52,0.97,14.638,2.146,14.813-0.03
							c3.588-44.635,8.963-88.953,12.584-134.251c1.562-19.539,2.759-24.827,3.079-42.275c-12.925-1.167-50.044,0.711-71.318,2.517
							c-1.462,15.363,1.331,20.828,1.424,29.781c0.132,12.72,0.731,12.07,0.227,24.779
							C134.738,331.697,133.846,426.742,135.222,427.757z"/>
					</g>
				</g>
				<g>
					<g>
						<g>
							<path style="fill:#E8AB52;" d="M170.091,280.097c5.135-2.593,10.512-6.308,13.709-11.194c0.241-0.369-0.3-0.774-0.604-0.466
								c-4.212,4.267-8.1,8.176-13.478,11.023C169.297,279.682,169.669,280.31,170.091,280.097L170.091,280.097z"/>
						</g>
					</g>
				</g>
				<g>
					<g>
						<g>
							<path style="fill:#E8AB52;" d="M158.158,276.079c1.499,0.75,2.999,1.499,4.498,2.248c1.172,0.586,2.318,1.381,3.63,1.54
								c0.263,0.032,0.37-0.334,0.207-0.499c-0.958-0.969-2.422-1.414-3.641-1.997c-1.42-0.679-2.839-1.358-4.259-2.037
								C158.097,275.098,157.66,275.83,158.158,276.079L158.158,276.079z"/>
						</g>
					</g>
				</g>
				<g>
					<g>
						<g>
							<path style="fill:#E8AB52;" d="M158.562,281.436c2.832,0.616,6.557,1.631,9.435,0.996c0.439-0.097,0.394-0.725,0-0.845
								c-1.301-0.398-2.67-0.349-4.019-0.478c-1.721-0.165-3.421-0.428-5.118-0.755
								C158.157,280.218,157.851,281.281,158.562,281.436L158.562,281.436z"/>
						</g>
					</g>
				</g>
				<g>
					<g>
						<g>
							<path style="fill:#E8AB52;" d="M170.604,276.827c1.029-5.443,1.756-11.432,0.832-16.932c-0.064-0.38-0.638-0.27-0.65,0.088
								c-0.19,5.634-0.024,11.031-0.895,16.648C169.821,277.091,170.515,277.299,170.604,276.827L170.604,276.827z"/>
						</g>
					</g>
				</g>
			</g>
			<g>
				<g>
					<g>
						<path style="fill:#EAA580;" d="M243.49,84.971c0.569-3.988-0.255-13.839-0.512-17.86c-0.252-3.934-1.186-11.077,1.271-10.742
							c1.084,0.148,1.768,8.088,2.655,13.099c1.993-1.247,2.15-1.231,4.501-1.055c2.351,0.176,5.73,2.71,5.996,5.036
							c0.129,1.124,2.059,3.474,1.711,4.55c-0.625,1.928-3.381,5.995-4.103,7.383c-0.28,0.537-1.417,8.732-1.368,9.335
							c0.141,1.711-6.813,6.262-9.515,1.557C243.217,94.694,243.118,87.571,243.49,84.971z"/>
					</g>
				</g>
				<g>
					<g>
						<path style="fill:#EAA580;" d="M122.718,280.02c3.61,4.753,10.228,5.698,10.502,4.473c0.824-3.683-5.873-9.947-5.087-13.037
							c0.304-1.194,7.337,2.112,7.393-1.595c0.008-0.538-2.769-2.598-4.193-3.573c-3.569-2.445-4.283-6.277-6.28-6.892
							c-1.519-0.468-3.301-6.199-4.796-5.661c-1.745,0.627-5.712,3.762-5.677,5.617C114.707,265.921,120.205,276.712,122.718,280.02
							z"/>
					</g>
				</g>
				<g>
					<g>
						<path style="fill:#C0272D;" d="M108.553,154.501c-5.091,13.873-10.001,38.459-10.16,50.38
							c-0.258,19.447,6.862,42.616,16.186,59.684c4.446-1.477,7.179-2.274,12.47-4.554c-4.939-14.491-6.368-31.45-7.489-43.181
							c-1.445-15.134,2.07-24.65,6.892-34.913c3.542,18.909,8.514,44.105,7.59,71.788c11.459,4.633,26.965,3.773,36.917,3.476
							c12.355-0.369,23.915-3.005,34.459-8.177c1.065-29.262-3.012-59.644-4.102-86.995c11.675-3.394,44.635-10.415,45.127-16.692
							c0.287-3.654,4.62-28.052,9.843-58.5c-1.41-1.354-10.948-5.135-13.685-2.486c-4.517,14.912-6.25,28.567-13.293,47.649
							c-9.107-0.369-46.821,0.713-50.777,0.712c-9.855,0-25.122,0.978-34.871,2.414c-7.296,1.075-12.737,1.517-18.811,3.109
							C117.474,140.148,111.117,147.514,108.553,154.501z"/>
					</g>
				</g>
				<g>
					<g>
						<g>
							<g>
								<path style="fill:#9E2029;" d="M127.138,180.968c1.608-4.214,4.38-7.677,5.637-12.065c1.095-3.823,1.705-7.991,1.73-11.963
									c0.002-0.379-0.609-0.485-0.68-0.092c-0.76,4.192-0.878,8.475-2.135,12.579c-1.237,4.04-3.807,7.394-5.115,11.386
									C126.456,181.175,127.007,181.314,127.138,180.968L127.138,180.968z"/>
							</g>
						</g>
					</g>
					<g>
						<g>
							<g>
								<path style="fill:#9E2029;" d="M128.76,180.965c3.99-3.013,8.897-7.588,10.32-12.573c0.077-0.268-0.311-0.538-0.501-0.292
									c-1.643,2.12-2.761,4.582-4.475,6.684c-1.71,2.097-3.629,3.979-5.736,5.674C128.086,180.685,128.467,181.187,128.76,180.965
									L128.76,180.965z"/>
							</g>
						</g>
					</g>
					<g>
						<g>
							<g>
								<path style="fill:#9E2029;" d="M195.069,144.027c1.125,2.495,2.04,5.094,2.581,7.781c0.479,2.382,0.392,4.847,0.969,7.194
									c0.091,0.37,0.67,0.378,0.757,0c1.144-4.972-1.226-11.098-3.469-15.464C195.617,142.975,194.818,143.469,195.069,144.027
									L195.069,144.027z"/>
							</g>
						</g>
					</g>
					<g>
						<g>
							<g>
								<path style="fill:#9E2029;" d="M201.548,157.303c1.204-3.431,2.671-7.2,2.912-10.855c0.029-0.446-0.606-0.48-0.74-0.1
									c-1.225,3.47-1.74,7.244-2.809,10.78C200.786,157.539,201.408,157.701,201.548,157.303L201.548,157.303z"/>
							</g>
						</g>
					</g>
					<g>
						<g>
							<g>
								<path style="fill:#9E2029;" d="M141.273,140.322c0.831,4.482,5.119,8.023,8.719,10.515
									c4.907,3.395,10.835,3.901,16.645,3.411c8.426-0.711,19.082-6.197,16.16-16.362c-0.155-0.539-0.934-0.31-0.831,0.229
									c2.091,10.96-9.892,14.848-18.503,14.922c-8.163,0.07-18.528-4.459-21.152-13.001
									C142.105,139.365,141.148,139.647,141.273,140.322L141.273,140.322z"/>
							</g>
						</g>
					</g>
					<g>
						<g>
							<g>
								<path style="fill:#9E2029;" d="M148.431,242.908c7.002,1.456,13.811-2.132,19.895-5.262c5.832-3,12.373-7.014,15.661-12.9
									c0.137-0.245-0.198-0.525-0.399-0.308c-4.172,4.528-8.217,8.374-13.662,11.414c-6.234,3.48-13.984,7.791-21.283,6.285
									C148.141,242.032,147.926,242.803,148.431,242.908L148.431,242.908z"/>
							</g>
						</g>
					</g>
					<g>
						<g>
							<g>
								<path style="fill:#9E2029;" d="M152.503,222.533c11.478-7.168,23.037-16.543,30.515-27.967
									c0.227-0.347-0.303-0.765-0.58-0.447c-9.259,10.618-18.265,20.171-30.3,27.79
									C151.747,222.156,152.107,222.78,152.503,222.533L152.503,222.533z"/>
							</g>
						</g>
					</g>
					<g>
						<g>
							<g>
								<path style="fill:#9E2029;" d="M159.307,198.576c4.411-3.527,9.109-7.384,12.517-11.924
									c0.291-0.388-0.323-0.816-0.652-0.503c-4.169,3.963-7.913,8.235-12.354,11.938
									C158.472,198.374,158.964,198.85,159.307,198.576L159.307,198.576z"/>
							</g>
						</g>
					</g>
					<g>
						<g>
							<g>
								<path style="fill:#9E2029;" d="M230.438,134.535c1.304,0.898,2.506,1.939,3.529,3.151c0.939,1.113,1.502,2.516,2.45,3.589
									c0.139,0.157,0.378-0.011,0.334-0.195c-0.327-1.384-1.52-2.682-2.448-3.729c-1.08-1.218-2.31-2.26-3.663-3.161
									C230.424,134.046,230.228,134.39,230.438,134.535L230.438,134.535z"/>
							</g>
						</g>
					</g>
					<g>
						<g>
							<g>
								<path style="fill:#9E2029;" d="M232.767,134.016c1.344,0.597,2.654,1.257,3.918,2.01c1.114,0.663,2.155,1.617,3.363,2.077
									c0.281,0.107,0.408-0.266,0.262-0.45c-0.794-1.002-2.147-1.653-3.243-2.28c-1.279-0.731-2.602-1.369-3.958-1.943
									C232.715,133.265,232.367,133.838,232.767,134.016L232.767,134.016z"/>
							</g>
						</g>
					</g>
				</g>
			</g>
			<g>
				<g>
					<g>
						<path style="fill:#EAA580;" d="M143.662,135.105c0.92,6.564,8.592,14.76,21.424,13.634
							c14.099-1.237,14.899-8.392,13.447-16.048c0,0-2.999-0.191-3.592-0.667c-1.581-1.272-2.134-4.149-2.349-6.167
							c-0.441-4.145,0.211-9.869-0.199-13.241c-0.119-0.976-25.691-2.613-25.27,0c0.73,4.528,1.31,9.588,0,16.02
							C146.209,133.129,143.662,135.105,143.662,135.105z"/>
					</g>
				</g>
				<g>
					<g>
						<path style="fill:#F9B698;" d="M153.075,122.462c4.622,4.303,10.041,7.712,15.94,5.459c5.813-2.221,8.471-7.937,10.477-13.827
							c2.495-7.325,0.988-17.02,0-26.127c-0.835-7.693-5.858-11.133-13.48-12.47C142.397,71.354,138.799,109.171,153.075,122.462z"
							/>
					</g>
				</g>
				<g>
					<g>
						<g>
							<path style="fill:#613A13;" d="M161.711,100.061c0,0.974-0.496,1.764-1.108,1.764c-0.612,0-1.108-0.79-1.108-1.764
								c0-0.974,0.496-1.764,1.108-1.764C161.215,98.297,161.711,99.087,161.711,100.061z"/>
						</g>
					</g>
					<g>
						<g>
							<ellipse style="fill:#613A13;" cx="175.18" cy="100.061" rx="1.108" ry="1.764"/>
						</g>
					</g>
				</g>
				<g>
					<g>
						<path style="fill:#613A13;" d="M150.15,86.562c6,1.459,12.754-0.894,16.548-5.765c2.719,4.349,8.204,6.782,13.253,5.877
							c0.815-0.146,1.702-0.338,2.254-0.954c3.687-4.116,0.233-10.482-2.715-12.977c-6.398-5.415-22.233-3.024-24.12-2.631
							c-9.113,1.901-11.71,7.548-13.007,8.547c-6.473,4.986-4.47,18.061,0.208,22.797C150.164,109.139,152.11,87.039,150.15,86.562z
							"/>
					</g>
				</g>
				<g>
					<g>
						<path style="fill:#F9B698;" d="M142.939,96.038c-2.227,0.484-2.548,3.647-2.441,6.038c0.077,1.712,0.163,3.47,0.825,5.051
							c0.661,1.581,2.037,2.968,3.672,3.085c2.163,0.154,3.925-1.992,4.255-4.224C149.579,103.756,148.309,94.87,142.939,96.038z"/>
					</g>
				</g>
				<g>
					<g>
						<g>
							<path style="fill:#613B16;" d="M154.738,94.996c1.288-0.964,2.734-1.608,4.347-1.778c1.395-0.147,2.695,0.414,4.043,0.316
								c0.448-0.033,0.788-0.612,0.397-0.959c-2.525-2.237-7.345-0.402-9.598,1.37C153.336,94.409,154.129,95.452,154.738,94.996
								L154.738,94.996z"/>
						</g>
					</g>
				</g>
				<g>
					<g>
						<g>
							<path style="fill:#613B16;" d="M170.514,93.466c1.199-1.163,2.766-1.194,4.332-0.945c0.483,0.077,1.092,0.132,1.528,0.376
								c0.354,0.198,0.483,0.418,0.876,0.541c0.295,0.093,0.577-0.111,0.672-0.381c0.026-0.074,0.052-0.148,0.077-0.222
								c0.089-0.256-0.014-0.567-0.199-0.753c-0.985-0.991-2.712-1.012-4.022-0.992c-1.544,0.023-2.967,0.457-4.037,1.604
								C169.263,93.208,170.008,93.958,170.514,93.466L170.514,93.466z"/>
						</g>
					</g>
				</g>
				<g>
					<g>
						<g>
							<path style="fill:#E2906F;" d="M167.304,98.682c-0.214,1.853-0.323,3.904-0.114,5.759c0.102,0.906,0.335,1.737,0.958,2.438
								c0.227,0.255,0.488,0.483,0.778,0.669c0.327,0.16,0.66,0.309,0.998,0.446c-0.007,0.692-0.267,1.244-0.78,1.656
								c-0.277,0.304-0.1,0.871,0.354,0.854c2.276-0.088,3.366-2.626,1.242-3.904c-0.995-0.598-1.679-1.032-1.97-2.305
								c-0.125-0.545-0.066-1.205-0.093-1.764c-0.062-1.276-0.145-2.57-0.079-3.848C168.64,97.836,167.397,97.876,167.304,98.682
								L167.304,98.682z"/>
						</g>
					</g>
				</g>
				<g>
					<g>
						<path style="fill:#FFFFFF;" d="M171.144,113.633c-0.908-0.305-7.985-0.517-9.372-1.017c0.343,2.46,0.705,4.98,1.88,7.168
							c0.746,1.39,2.107,2.4,3.684,2.419C171.144,122.25,171.144,113.633,171.144,113.633z"/>
					</g>
				</g>
				<g>
					<g>
						<g>
							<path style="fill:#E2906F;" d="M146.954,101.307c-0.116-1.099-1.15-2.412-2.185-2.82c-1.437-0.568-2.011,1.023-2.362,2.144
								c-0.586,1.867-0.472,3.952,0.479,5.682c0.544,0.989,1.546,2.222,2.778,2.243c0.524,0.009,0.666-0.838,0.127-0.937
								c-1.835-0.336-2.743-2.896-2.804-4.509c-0.038-0.985,0.153-3.864,1.482-3.911c0.796-0.028,1.802,1.546,1.896,2.188
								C146.414,101.718,146.99,101.644,146.954,101.307L146.954,101.307z"/>
						</g>
					</g>
				</g>
				<g>
					<g>
						<g>
							<path style="fill:#E2906F;" d="M146.025,103.706c-0.703,0.302-0.912,1.078-0.778,1.782c0.124,0.654,0.704,1.507,1.468,1.255
								c0.346-0.114,0.489-0.475,0.325-0.798c-0.14-0.274-0.437-0.399-0.519-0.703c-0.061-0.227-0.006-0.521,0.148-0.703
								C147.072,104.062,146.576,103.47,146.025,103.706L146.025,103.706z"/>
						</g>
					</g>
				</g>
				<g>
					<g>
						<g>
							<path style="fill:#7F4A19;" d="M141.641,92.784c-0.501-4.103-0.674-7.828,1.987-11.233c0.234-0.299-0.127-0.685-0.424-0.424
								c-3.296,2.893-2.705,7.866-2.182,11.741C141.069,93.216,141.684,93.138,141.641,92.784L141.641,92.784z"/>
						</g>
					</g>
				</g>
				<g>
					<g>
						<g>
							<path style="fill:#7F4A19;" d="M145.975,93.261c-0.057-3.479,0.097-6.711,0.717-10.137c0.041-0.227-0.256-0.304-0.341-0.094
								c-1.28,3.163-0.91,6.925-0.591,10.231C145.773,93.396,145.978,93.402,145.975,93.261L145.975,93.261z"/>
						</g>
					</g>
				</g>
				<g>
					<g>
						<g>
							<path style="fill:#7F4A19;" d="M147.911,78.124c4.429-6.711,14.316-7.656,21.702-6.847c0.231,0.025,0.285-0.366,0.055-0.408
								c-7.454-1.358-17.775,0.149-22.023,7.1C147.542,78.139,147.803,78.288,147.911,78.124L147.911,78.124z"/>
						</g>
					</g>
				</g>
				<g>
					<g>
						<g>
							<path style="fill:#7F4A19;" d="M150.083,80.452c3.312-2.419,6.854-3.593,10.712-4.818c0.219-0.07,0.196-0.449-0.057-0.423
								c-3.967,0.406-7.784,2.54-10.888,4.939C149.679,80.282,149.906,80.581,150.083,80.452L150.083,80.452z"/>
						</g>
					</g>
				</g>
				<g>
					<g>
						<g>
							<path style="fill:#7F4A19;" d="M170.485,78.845c1.546,1.649,5.473,3.994,7.632,2.188c0.113-0.095,0.025-0.317-0.125-0.302
								c-1.287,0.127-2.351,0.302-3.646-0.064c-1.374-0.389-2.586-1.086-3.633-2.05C170.561,78.475,170.342,78.692,170.485,78.845
								L170.485,78.845z"/>
						</g>
					</g>
				</g>
				<g>
					<g>
						<g>
							<path style="fill:#7F4A19;" d="M173.741,77.239c0.632,0.364,1.297,0.658,2.002,0.848c0.596,0.161,1.36,0.373,1.959,0.172
								c0.213-0.072,0.195-0.338,0-0.415c-0.556-0.222-1.216-0.169-1.804-0.317c-0.663-0.166-1.286-0.424-1.885-0.753
								C173.709,76.607,173.44,77.066,173.741,77.239L173.741,77.239z"/>
						</g>
					</g>
				</g>
				<g>
					<g>
						<g>
							<path style="fill:#7F4A19;" d="M152.587,83.497c2.862,0.624,7.539,0.873,8.859-2.527c0.064-0.165-0.183-0.301-0.296-0.172
								c-0.979,1.115-1.85,2.009-3.326,2.415c-1.679,0.462-3.469,0.281-5.163,0.017C152.489,83.203,152.41,83.458,152.587,83.497
								L152.587,83.497z"/>
						</g>
					</g>
				</g>
				<g>
					<g>
						<g>
							<path style="fill:#7F4A19;" d="M153.77,81.121c1.639,0.066,3.546-0.378,4.741-1.579c0.165-0.166-0.047-0.449-0.252-0.326
								c-1.464,0.88-2.737,1.59-4.489,1.736C153.662,80.961,153.659,81.117,153.77,81.121L153.77,81.121z"/>
						</g>
					</g>
				</g>
			</g>
		</g>
		<g>
			<g>
				<g>
					<g>
						<path style="fill:#F4B7B0;" d="M538.688,192.743c0.426,11.317,2.309,22.193,0,33.279
							c-2.286,10.974-13.168,40.664-17.888,47.494c-0.927,1.341-3.123,5.323-7.729,5.138c-2.12-0.085-10.321,4.932-6.793,7.169
							c7.63,0.361,12.72-3.526,18.579-3.526c3.081,4.753,7.007,3.227,7.186,2.197c0.427-0.759-1.885-1.155-2.874-2.657
							c-0.626-0.951,0.231-4.59,0.123-5.735c8.238-15.753,25.034-30.59,26.95-48.949c1.911-18.318,0.81-40.032-2.24-57.888
							c-1.435-8.397,2.522-12.247-7.942-11.583C534.75,158.398,538.332,183.289,538.688,192.743z"/>
					</g>
				</g>
				<g>
					<g>
						<path style="fill:#F99528;" d="M546.06,157.68c0,0-12.502-0.366-9.505,24.182c0,0,16.981,3.61,20.633,0
							C557.188,181.863,557.206,157.455,546.06,157.68z"/>
					</g>
				</g>
			</g>
			<g>
				<g>
					<g>
						<path style="fill:#EF8E25;" d="M622.398,410.533c0.767,0.214,1.289,0.903,1.292,1.699c0.049,12.526,7.462,37.541,7.049,38.254
							c-0.267,0.461-3.613,4.69-14.415-7.42c-4.073-4.566-6.011-8.913-9.193-13.947c-0.482-0.763,4.402-6.219,4.658-8.055
							c0.518-3.719-3.308-11.652-0.984-13.266C611.812,407.099,619.309,409.67,622.398,410.533z"/>
					</g>
				</g>
				<g>
					<g>
						<path style="fill:#F4B7B0;" d="M600.714,419.384c4.352,4.956,5.903,6.414,9.152,12.153
							c3.249,5.739,7.623,11.345,13.855,13.503c-2.716-12.275-1.678-17.165-6.024-28.962c-0.799-2.17-7.148-6.492-8.615-8.28
							c-2.128-2.593-18.906-28.889-25.352-37.242c-3.347-3.045-24.182,4.22-18.784,16.148
							C565.134,387.12,598.583,416.956,600.714,419.384z"/>
					</g>
				</g>
				<g>
					<g>
						<path style="fill:#FFCBC3;" d="M605.313,437.62c-7.104,4.991-13.42,8.203-18.49,14.159c5.483,2.217,11.736,0.543,17.192-1.739
							c5.456-2.281,10.853-5.202,16.76-5.494c-0.565-21.255,0.547-34.573-0.806-55.756c-0.067-1.043-10.086-8.777-11.033-9.218
							c-0.878-0.408-1.906-0.214-2.847,0.014c-6.34,1.535-11.61,5.712-9.805,12.723C601.987,414.461,607.261,429.23,605.313,437.62z
							"/>
					</g>
				</g>
				<g>
					<g>
						<g>
							<path style="fill:#746152;" d="M541.888,353.666c0.716,2.033,8.29,21.47,23.059,33.038
								c5.493-3.01,15.013-10.382,18.784-16.148c-5.796-10.743-15.032-18.978-15.389-20.009
								c-0.555-1.601,9.943-47.771,16.367-61.499c1.305,11.738,0.159,59.664,0.991,67.079c1.423,12.692,4.677,19.112,10.584,36.182
								c10.007,1.106,13.775-1.751,23.686-3.519c-2.518-17.49-6.013-20.614-7.916-31.711c-1.062-6.191,2.495-24.237,5.398-36.15
								c4.714-19.34,8.861-30.767,5.907-55.643c-18.43-1.7-53.65-0.088-72.118,1.247
								C544.003,302.096,537.995,342.618,541.888,353.666z"/>
						</g>
					</g>
					<g>
						<g>
							<g>
								<path style="fill:#665346;" d="M568.433,276.878c4.257,4.39,10.016,9.06,16.101,10.461c0.321,0.074,0.54-0.379,0.231-0.548
									c-2.658-1.455-5.47-2.486-8.053-4.112c-2.843-1.791-5.408-3.926-7.768-6.311
									C568.617,276.035,568.109,276.544,568.433,276.878L568.433,276.878z"/>
							</g>
						</g>
					</g>
				</g>
				<g>
					<g>
						<g>
							<path style="fill:#FFA028;" d="M614.498,441.404c4.5-0.547,7.905-4.065,7.905-4.065s0.903,1.772,1.626,3.378
								c1.032,2.293,5.724,13.828,2.141,15.095c-13.394,4.677-44.328,3.906-48.86,1.977c-1.128-2.062-0.053-4.745,1.717-6.292
								s4.078-2.29,6.226-3.244c3.732-1.658,11.668-5.541,14.672-8.311C603.8,436.368,606.76,442.344,614.498,441.404z"/>
						</g>
					</g>
					<g>
						<g>
							<g>
								<path style="fill:#FFFFFF;" d="M586.973,450.07c1.259,0.137,2.473,0.436,3.646,0.915c0.961,0.393,1.813,1.026,2.799,1.342
									c0.353,0.113,0.522-0.325,0.329-0.566c-1.453-1.815-4.59-2.409-6.774-2.583C586.395,449.132,586.411,450.009,586.973,450.07
									L586.973,450.07z"/>
							</g>
						</g>
					</g>
					<g>
						<g>
							<g>
								<path style="fill:#FFFFFF;" d="M593.203,446.312c1.585,0.007,3.074,0.619,4.38,1.49c0.579,0.387,1.131,0.826,1.621,1.322
									c0.4,0.405,0.572,0.761,1.13,0.902c0.251,0.063,0.474-0.119,0.487-0.371c0.062-1.252-1.918-2.388-2.857-2.927
									c-1.451-0.833-3.075-1.379-4.76-1.308C592.632,445.444,592.626,446.31,593.203,446.312L593.203,446.312z"/>
							</g>
						</g>
					</g>
					<g>
						<g>
							<g>
								<path style="fill:#FFFFFF;" d="M599.119,443.442c1.4-0.146,2.689,0.446,3.811,1.24c0.969,0.685,1.606,1.68,2.559,2.349
									c0.288,0.202,0.575-0.131,0.531-0.408c-0.21-1.333-1.815-2.379-2.909-2.982c-1.259-0.695-2.645-1.12-4.082-0.863
									C598.657,442.844,598.738,443.482,599.119,443.442L599.119,443.442z"/>
							</g>
						</g>
					</g>
				</g>
			</g>
			<g>
				<g>
					<g>
						<path style="fill:#FFA028;" d="M609.206,211.688c0.304-2.9,1.6-9.519,3.042-13.267c1.311-3.406,6.87-20.248,7.829-25.419
							c1.778-9.586-4.102-13.236-8.697-16.737c-3.948-1.14-12.019-2.117-16.111-1.64c-12.429,1.448-27.025,2.461-39.429,1.307
							c-1.873,0.17-8.282,1.344-9.781,1.749c3.957,12.225,3.957,12.225,3.957,25.787c0,3.221-8.375,16.117,0.65,25.799
							c4.649,4.987,8.219,11.51,7.426,20.565c-0.888,10.131-4.393,19.286-6.851,36.703c12.794,3.806,19.642,3.981,33.469,4.923
							c9.214,0.628,30.021-2.875,38.649-6.17C620.771,241.428,607.237,230.475,609.206,211.688z"/>
					</g>
				</g>
				<g>
					<g>
						<g>
							<path style="fill:#EA8C26;" d="M566.568,226.213c3.987,4.954,9.843,6.809,15.885,8.016c4.367,0.872,11.216,3.03,14.946-0.209
								c0.237-0.206-0.014-0.625-0.307-0.527c-5.057,1.686-10.847,0.327-15.931-0.777c-5.268-1.144-10.37-2.913-13.942-7.156
								C566.835,225.102,566.201,225.757,566.568,226.213L566.568,226.213z"/>
						</g>
					</g>
				</g>
				<g>
					<g>
						<g>
							<path style="fill:#EA8C26;" d="M571.665,241.144c5.367,4.335,12.5,7.83,19.556,7.645c0.373-0.01,0.492-0.611,0.092-0.68
								c-7.185-1.237-13.285-2.85-19.148-7.465C571.813,240.366,571.308,240.856,571.665,241.144L571.665,241.144z"/>
						</g>
					</g>
				</g>
				<g>
					<g>
						<g>
							<path style="fill:#EA8C26;" d="M570.186,193.464c-1.088,2.231-2.19,5.638-1.017,8.025c0.195,0.397,0.844,0.294,0.942-0.123
								c0.26-1.114,0.068-2.282,0.153-3.422c0.104-1.401,0.36-2.781,0.752-4.13C571.156,193.331,570.416,192.993,570.186,193.464
								L570.186,193.464z"/>
						</g>
					</g>
				</g>
			</g>
			<g>
				<g>
					<g>
						<path style="fill:#FFCBC3;" d="M592.935,175.711c-4.43,10.751-16.101,30.116-17.197,29.607
							c-12.401-5.749-19.233-5.154-31.634-10.903c-4.489-2.081-9.297-4.46-11.532-8.875c-2.408-4.757-1.396-7.608-3.936-8.1
							c-2.279-0.428,1.234,8.005-0.984,6.026c-2.297-1.805-8.497-11.839-9.957-11.654c-2.97,0.307,6.183,10.222,4.542,11.206
							c-2.297-0.492-11.234-9.458-12.382-7.325c-0.656,2.954,9.839,9.54,9.839,10.688c-0.82,1.149-10.79-7.218-12.389-4.667
							c0.622,2.133,11.284,7.537,11.077,9.094c-5.306-1.552-8.223-2.616-7.548,0c2.954,1.093,2.016,1.24,7.548,3.367
							c4.064,1.563,8.738,3.891,11.24,3.891c6.957,0,32.791,25.243,47.163,25.243c6.564,0,26.057-22.831,30.66-28.815
							c5.087-6.614,9.075-10.442,12.635-21.496c2.218-6.887-1.432-13.533-9.189-14.604
							C601.971,157.166,595.693,169.017,592.935,175.711z"/>
					</g>
				</g>
				<g>
					<g>
						<path style="fill:#F99528;" d="M611.623,191.904c1.723-2.951,2.315-3.964,4.038-6.915c2.272-3.89,4.523-8.833,5.109-13.3
							c1.48-11.28-6.913-15.334-11.345-15.693c-9.86-0.797-18.205,20.957-18.205,20.957
							C598.59,179.26,606.86,186.494,611.623,191.904z"/>
					</g>
				</g>
			</g>
			<g>
				<g>
					<g>
						<path style="fill:#A01F28;" d="M607.986,122.496c1.487,5.634,6.959,9.961,12.784,10.11c-2.495,6.008-10.082,5.37-12.797,4.685
							c-7.236-1.826-9.272-5.844-9.654-8.151c-0.427-2.577-0.42-5.261-2.13-7.236c-1.71-1.975-4.186-3.437-6.797-3.354
							c-5.844,0.187-9.449-1.316-8.55-8.302c0.593-4.613,3.133-5.796,7.493-5.715C606.898,104.884,606.622,117.33,607.986,122.496z"
							/>
					</g>
				</g>
				<g>
					<g>
						<path style="fill:#F4B7B0;" d="M571.931,187.442c6.078-4.594,9.096-8.884,12.779-13.502c4.56-5.719,7.498-10.537,10.56-19.315
							c-2.953-0.353-6.049-0.07-8.216-2.106c-4.803-4.512-2.492-17.624-2.822-21.071c-3.953,0.236-16.646,5.043-19.648,6.751
							c-2.496,1.42-1.387,1.354-0.843,4.215c1.574,8.268,1.085,12.374-7.9,13.518C557.498,160.127,559.635,174.971,571.931,187.442z
							"/>
					</g>
				</g>
				<g>
					<g>
						<path style="fill:#FFCBC3;" d="M555.375,139.27c1.754,5.532,8.061,12.195,11.618,12.195c2.162,0,8.797-1.834,13.045-7.999
							c4.483-6.506,6.069-14.048,6.375-21.942c0.153-3.945,0.08-8.131-1.989-11.493c-1.843-2.994-5.073-4.929-8.452-5.898
							s-6.939-1.076-10.454-1.131c-1.749-0.027-3.543-0.036-5.184,0.57c-3.03,1.118-6.08,3.974-6.764,7.13
							C551.982,118.037,553.161,132.286,555.375,139.27z"/>
					</g>
				</g>
				<g>
					<g>
						<path style="fill:#C0272D;" d="M559.156,109.199c5.044,5.651,14.745,7.715,22.71,7.017
							c-0.097,2.075,0.948,10.238,2.516,11.601c0.614,0.534,6.049-0.046,6.969-1.509c4.089-6.51,5.374-18.821-0.943-25.461
							c-4.375-4.598-10.245-7.593-19.758-7.593c-9.721,0-10.755,6.288-12.219,6.161c-5.487-0.478-8.196,7.783-8.517,8.523
							c-1.963,4.534-0.271,14.114,3.09,16.468C553.993,117.489,556.122,111.428,559.156,109.199z"/>
					</g>
				</g>
				<g>
					<g>
						<path style="fill:#FFCBC3;" d="M587.518,119.917c-4.494-0.46-4.745,7.819-4.341,9.57c0.404,1.751-0.047,3.495,1.982,3.495
							c3.731,0.001,5.253-2.789,5.735-5.909C591.376,123.945,590.938,120.267,587.518,119.917z"/>
					</g>
				</g>
				<g>
					<g>
						<g>
							<path style="fill:#C0272D;" d="M555.559,118.648c1.927-2.021,4.749-1.303,6.733,0.131c0.165,0.119,0.405-0.119,0.284-0.284
								c-1.654-2.264-5.539-2.221-7.344-0.173C555.037,118.543,555.352,118.865,555.559,118.648L555.559,118.648z"/>
						</g>
					</g>
				</g>
				<g>
					<g>
						<g>
							<path style="fill:#C0272D;" d="M569.729,118.732c1.218-0.584,2.462-0.954,3.823-0.818c1.232,0.123,2.35,0.656,3.537,0.959
								c0.304,0.078,0.513-0.367,0.219-0.52c-2.542-1.33-5.26-1.285-7.734,0.113C569.399,118.565,569.553,118.817,569.729,118.732
								L569.729,118.732z"/>
						</g>
					</g>
				</g>
				<g>
					<g>
						<g>
							<path style="fill:#E89B92;" d="M564.756,126.141c0.124,1.854,0.249,3.851-0.748,5.509c-0.454,0.755-1.525,1.726-1.252,2.729
								c0.336,1.233,2.663,1.6,3.715,1.422c0.285-0.048,0.345-0.512,0.083-0.633c-0.574-0.265-1.201-0.287-1.803-0.467
								c-0.739-0.221-1.211-0.25-0.839-1.28c0.165-0.456,0.626-0.901,0.867-1.32c1.053-1.83,0.868-3.945,0.639-5.96
								C565.37,125.727,564.727,125.709,564.756,126.141L564.756,126.141z"/>
						</g>
					</g>
				</g>
				<g>
					<g>
						<g>
							<path style="fill:#E89B92;" d="M585.284,124.539c0.245-0.724,0.337-1.68,1.187-1.937c1.282-0.387,1.921,0.663,2.292,1.682
								c0.684,1.883,0.352,3.3-0.403,5.102c-0.067,0.161,0.188,0.306,0.296,0.172c1.482-1.858,1.32-5.114-0.278-6.916
								c-0.614-0.692-1.435-0.761-2.27-0.34c-0.828,0.417-0.929,1.322-1.194,2.134C584.836,124.673,585.206,124.772,585.284,124.539
								L585.284,124.539z"/>
						</g>
					</g>
				</g>
				<g>
					<g>
						<g>
							<path style="fill:#E89B92;" d="M584.586,127.468c0.206-0.227,0.295-0.335,0.487-0.091c0.199,0.253,0.256,0.701,0.253,1.006
								c-0.004,0.393-0.099,0.821-0.293,1.165c-0.218,0.386-0.602,0.533-0.866,0.863c-0.107,0.134-0.095,0.385,0.112,0.424
								c1.364,0.259,1.685-1.981,1.63-2.887c-0.064-1.042-0.912-1.982-1.802-0.959C583.823,127.316,584.291,127.793,584.586,127.468
								L584.586,127.468z"/>
						</g>
					</g>
				</g>
				<g>
					<g>
						<path style="fill:#FFFFFF;" d="M569.568,138.349c-0.234,0.681-7.731,0.567-7.872,0.096c0.596,2.006,1.483,7.364,4.755,7.364
							C569.081,145.809,569.614,140.028,569.568,138.349z"/>
					</g>
				</g>
				<g>
					<g>
						<path style="fill:#C0272D;" d="M560.076,124.677c0,0.974-0.496,1.764-1.108,1.764c-0.612,0-1.108-0.79-1.108-1.764
							c0-0.974,0.496-1.764,1.108-1.764C559.58,122.913,560.076,123.703,560.076,124.677z"/>
					</g>
				</g>
				<g>
					<g>
						<ellipse style="fill:#C0272D;" cx="573.545" cy="124.677" rx="1.108" ry="1.764"/>
					</g>
				</g>
				<g>
					<g>
						<path style="fill:#F9B9B2;" d="M560.327,131.236c0,0.901-1.104,1.631-2.466,1.631c-1.362,0-2.466-0.73-2.466-1.631
							c0-0.901,1.104-1.631,2.466-1.631C559.223,129.605,560.327,130.336,560.327,131.236z"/>
					</g>
				</g>
				<g>
					<g>
						<path style="fill:#F9B9B2;" d="M578.021,131.236c0,0.901-1.104,1.631-2.466,1.631c-1.362,0-2.466-0.73-2.466-1.631
							c0-0.901,1.104-1.631,2.466-1.631C576.917,129.605,578.021,130.336,578.021,131.236z"/>
					</g>
				</g>
				<g>
					<g>
						<g>
							<path style="fill:#D32F3C;" d="M560.376,103.799c3.49,5.173,12.183,9.399,18.364,9.567c0.387,0.011,0.408-0.511,0.086-0.635
								c-6.265-2.4-13.423-3.764-17.822-9.417C560.726,102.958,560.122,103.424,560.376,103.799L560.376,103.799z"/>
						</g>
					</g>
				</g>
				<g>
					<g>
						<g>
							<path style="fill:#D32F3C;" d="M565.758,101.761c5.314,1.857,9.854,4.504,14.608,7.437c0.312,0.193,0.697-0.278,0.401-0.52
								c-4.282-3.497-9.628-5.777-14.922-7.229C565.641,101.394,565.564,101.693,565.758,101.761L565.758,101.761z"/>
						</g>
					</g>
				</g>
				<g>
					<g>
						<g>
							<path style="fill:#D32F3C;" d="M567.223,97.464c8.971,3.031,16.771,6.255,20.384,15.631c0.072,0.186,0.397,0.183,0.378-0.051
								c-0.814-9.942-12.493-14.027-20.554-16.337C566.942,96.567,566.748,97.303,567.223,97.464L567.223,97.464z"/>
						</g>
					</g>
				</g>
				<g>
					<g>
						<g>
							<path style="fill:#D32F3C;" d="M575.282,96.076c3.834,0.742,7.534,2.277,10.462,4.918c3.048,2.75,4.525,6.14,6.001,9.879
								c0.086,0.218,0.49,0.219,0.453-0.061c-1.088-8.23-8.96-14.285-16.881-14.993C575.171,95.806,575.137,96.048,575.282,96.076
								L575.282,96.076z"/>
						</g>
					</g>
				</g>
				<g>
					<g>
						<g>
							<path style="fill:#D32F3C;" d="M551.534,116.859c-0.177-2.007-0.296-4.072,0.13-6.06c0.447-2.085,1.548-3.536,2.893-5.136
								c0.169-0.201-0.041-0.513-0.289-0.374c-3.872,2.169-3.766,7.808-3.333,11.57
								C550.977,117.235,551.568,117.247,551.534,116.859L551.534,116.859z"/>
						</g>
					</g>
				</g>
				<g>
					<g>
						<g>
							<path style="fill:#D32F3C;" d="M553.919,113.514c0.177-1.261,0.535-2.461,1.155-3.581c0.569-1.028,1.434-1.805,2.046-2.79
								c0.182-0.294-0.172-0.599-0.453-0.452c-2.224,1.162-3.291,4.396-3.579,6.711C553.029,113.87,553.852,113.986,553.919,113.514
								L553.919,113.514z"/>
						</g>
					</g>
				</g>
				<g>
					<g>
						<g>
							<path style="fill:#C0272D;" d="M595.951,109.62c4.399,1.426,6.774,4.865,7.937,9.156c0.071,0.264,0.493,0.216,0.483-0.065
								c-0.149-4.553-4.092-8.409-8.306-9.506C595.796,109.134,595.689,109.534,595.951,109.62L595.951,109.62z"/>
						</g>
					</g>
				</g>
				<g>
					<g>
						<g>
							<path style="fill:#C0272D;" d="M596.877,115.276c3.332,1.898,5.227,4.343,6.19,8.039c0.443,1.701,0.703,2.914,1.805,4.363
								c2.418,3.181,6.366,5.808,10.252,6.721c0.336,0.079,0.444-0.381,0.139-0.504c-5.54-2.245-10.072-5.312-11.594-11.304
								c-0.93-3.658-3.227-6.104-6.496-7.82C596.839,114.597,596.548,115.089,596.877,115.276L596.877,115.276z"/>
						</g>
					</g>
				</g>
				<g>
					<g>
						<g>
							<path style="fill:#C0272D;" d="M599.643,123.544c0.743,4.715,4.494,10.257,9.618,10.873c0.245,0.029,0.331-0.352,0.124-0.459
								c-2.173-1.125-4.195-1.972-5.935-3.785c-1.797-1.872-2.941-4.195-3.436-6.731
								C599.966,123.197,599.605,123.304,599.643,123.544L599.643,123.544z"/>
						</g>
					</g>
				</g>
			</g>
		</g>
		<g>
			<g>
				<ellipse style="fill:#6A6F72;" cx="259.804" cy="441.788" rx="37.589" ry="9.387"/>
			</g>
			<g>
				<path style="fill:#54595B;" d="M266.504,377.264h-13.401c-3.233,0-5.854-2.621-5.854-5.854v-15.691
					c0-1.968,1.596-3.564,3.564-3.564h17.982c1.968,0,3.564,1.596,3.564,3.564v15.691
					C272.358,374.643,269.737,377.264,266.504,377.264z"/>
			</g>
			<g>
				<path style="fill:#7F8386;" d="M264.705,377.264h-9.803v59.654c0,1.975,1.601,3.577,3.577,3.577h2.65
					c1.975,0,3.577-1.601,3.577-3.577V377.264z"/>
			</g>
			<g>
				<path style="fill:#7F8386;" d="M351.674,354.975c-1.861,6.104-65.472,12.799-84.257,13.291
					c-18.775,0.492-72.778-11.322-76.184-38.397c-0.049-0.423-0.108-0.857-0.158-1.309c-0.059-0.443-0.108-0.896-0.167-1.359
					c0.01-0.01,0-0.03,0-0.039c-0.079-0.719-0.158-1.467-0.246-2.245c-0.079-0.798-0.167-1.615-0.256-2.471
					c-2.629-25.805-5.287-72.738-6.085-87.674c-0.01-0.236-0.029-0.473-0.039-0.709c-0.02-0.404-0.04-0.798-0.069-1.181
					c0.01-0.03,0.01-0.059,0-0.079c-0.02-0.492-0.049-0.975-0.079-1.447c-0.01-0.098-0.01-0.187-0.01-0.286
					c-0.01-0.118-0.02-0.246-0.029-0.364c-0.01-0.217-0.02-0.423-0.03-0.63c0-6.449,3.81-10.495,7.423-12.888
					c2.934-1.939,5.73-2.776,6.222-2.914c0.049-0.01,0.079-0.02,0.079-0.02c0.817-0.266,1.664-0.522,2.53-0.758h0.029
					c21.414-5.878,57.123-3.702,67.067-3.279c2.511,0.108,14.305,0.443,15.113,25.135c1.201,36.911,7.689,72.541,15.054,78.006
					c7.354,5.454,40.268,14.542,49.168,18.48c3.751,1.654,5.543,4.933,6.212,8.634C353.919,345.553,352.747,351.441,351.674,354.975
					z"/>
			</g>
			<g>
				<path style="fill:#6A6F72;" d="M351.674,354.975c-1.861,6.104-65.472,12.799-84.257,13.291
					c-18.775,0.492-72.778-11.322-76.184-38.397c-0.049-0.423-0.108-0.857-0.158-1.309c-0.059-0.443-0.108-0.896-0.167-1.359
					c0.01-0.01,0-0.03,0-0.039c-0.079-0.719-0.158-1.467-0.246-2.245c-0.079-0.798-0.167-1.615-0.256-2.471
					c-2.215-22.369-4.726-63.759-6.085-87.674c-0.01-0.236-0.029-0.473-0.039-0.709c-0.02-0.404-0.04-0.798-0.069-1.181
					c0.01-0.03,0.01-0.059,0-0.079c-0.02-0.492-0.049-0.975-0.079-1.447c-0.01-0.098-0.01-0.187-0.01-0.286
					c-0.01-0.118-0.02-0.246-0.029-0.364c-0.01-0.217-0.02-0.423-0.03-0.63c0-6.449,3.81-10.495,7.423-12.888
					c2.934-1.939,5.73-2.776,6.222-2.914c-12.484,6.399-3.465,49.089,0.866,109.993c1.093,15.408,40.504,30.629,65.59,30.137
					c25.076-0.492,72.246-5.336,87.014-13.213c0.581-0.305,1.172-0.551,1.782-0.719
					C353.919,345.553,352.747,351.441,351.674,354.975z"/>
			</g>
		</g>
		<g>
			<g>
				<g>
					<g>
						<g>
							<path style="fill:#C0272D;" d="M332.639,461.072c8.483,1.298,21.604,1.693,24.823-0.073c2.724-1.495,2.699-6.417-4.274-9.557
								c-12.325-5.551-22.263-10.732-22.747-11.632c-0.421-0.782-1.394-7.429-1.749-9.864c-0.088-0.603-0.228-1.286-0.753-1.595
								c-0.308-0.181-9.934-1.843-11.511,2.976c-0.879,2.686-0.127,20.324-0.21,22.998
								C316.05,459.734,327.052,460.217,332.639,461.072z"/>
						</g>
					</g>
					<g>
						<g>
							<g>
								<path style="fill:#FFFFFF;" d="M329.183,448.845c0.791-0.924,1.688-1.771,2.726-2.411c0.996-0.614,2.201-0.784,3.164-1.388
									c0.259-0.163,0.134-0.517-0.148-0.545c-1.181-0.118-2.609,0.72-3.565,1.35c-1.065,0.702-1.931,1.58-2.673,2.612
									C328.48,448.752,328.951,449.117,329.183,448.845L329.183,448.845z"/>
							</g>
						</g>
					</g>
					<g>
						<g>
							<g>
								<path style="fill:#FFFFFF;" d="M335.218,450.823c0.697-1.119,1.656-2,2.862-2.546c0.76-0.344,1.86-0.286,2.524-0.735
									c0.157-0.106,0.17-0.335,0-0.438c-0.779-0.476-2.176,0.166-2.906,0.52c-1.299,0.629-2.329,1.623-3.065,2.858
									C334.41,450.857,334.988,451.192,335.218,450.823L335.218,450.823z"/>
							</g>
						</g>
					</g>
					<g>
						<g>
							<g>
								<path style="fill:#FFFFFF;" d="M341.492,453.284c0.654-0.828,1.432-1.407,2.418-1.787c0.721-0.278,1.513-0.39,2.105-0.915
									c0.251-0.223,0.04-0.619-0.261-0.63c-0.899-0.033-1.881,0.433-2.676,0.823c-0.939,0.46-1.671,1.13-2.287,1.969
									C340.495,453.147,341.178,453.681,341.492,453.284L341.492,453.284z"/>
							</g>
						</g>
					</g>
				</g>
				<g>
					<g>
						<g>
							<path style="fill:#C0272D;" d="M368.734,455.672c11.196,1.202,23.862,0.637,27.081-1.03c2.724-1.411,2.699-6.06-4.274-9.025
								c-12.325-5.242-22.263-10.134-22.747-10.984c-0.421-0.738-1.394-7.015-1.749-9.314c-0.088-0.569-0.228-1.215-0.753-1.506
								c-0.308-0.171-9.934-1.74-11.511,2.81c-0.879,2.536-1.381,19.85-1.464,22.375
								C353.149,454.106,364.088,455.174,368.734,455.672z"/>
						</g>
					</g>
					<g>
						<g>
							<g>
								<path style="fill:#FFFFFF;" d="M368.68,442.849c0.435-1.12,1.253-2.062,2.176-2.814c0.438-0.357,0.918-0.673,1.423-0.925
									c0.443-0.221,0.923-0.279,1.277-0.631c0.173-0.172,0.09-0.474-0.143-0.54c-1.026-0.29-2.411,0.886-3.138,1.517
									c-1.001,0.87-1.833,1.95-2.278,3.206C367.843,443.094,368.517,443.266,368.68,442.849L368.68,442.849z"/>
							</g>
						</g>
					</g>
					<g>
						<g>
							<g>
								<path style="fill:#FFFFFF;" d="M380.907,447.036c0.393-0.583,0.853-1.102,1.439-1.496c0.618-0.416,1.321-0.668,1.954-1.059
									c0.445-0.275,0.152-0.939-0.35-0.829c-1.636,0.358-2.97,1.522-3.814,2.935C379.839,447.083,380.589,447.508,380.907,447.036
									L380.907,447.036z"/>
							</g>
						</g>
					</g>
					<g>
						<g>
							<g>
								<path style="fill:#FFFFFF;" d="M374.175,445.196c0.578-0.968,1.32-1.816,2.22-2.497c0.826-0.626,1.742-0.861,2.634-1.33
									c0.331-0.174,0.15-0.638-0.179-0.659c-1.048-0.069-2.175,0.721-2.954,1.341c-0.962,0.764-1.754,1.706-2.359,2.774
									C373.303,445.237,373.931,445.604,374.175,445.196L374.175,445.196z"/>
							</g>
						</g>
					</g>
				</g>
				<g>
					<g>
						<path style="fill:#1F1F38;" d="M352.302,330.51c0.847,0.641,6.408,5.858,7.155,6.854c8.167,10.886,9.277,70.148,10.766,97.034
							c-2.846,4.497-10.661,3.615-17.267,1.969c-4.659-19.485-15.279-58.051-19.3-80.487c-22.053-7.698-40.156-18.725-59.214-32.231
							c-2.56-1.814-5.209-3.832-6.358-6.751c-2.042-5.19,1.374-11.079,0.314-16.555c-0.375-1.916,12.531-3.537,14.553-3.289
							c6.013,0.738,12.045,4.362,14.626,4.447C300.477,301.596,335.862,318.072,352.302,330.51z"/>
					</g>
				</g>
				<g>
					<g>
						<path style="fill:#2B2A4A;" d="M246.267,341.331c14.264,7.605,29.151,14.042,44.463,19.224
							c1.577,0.534,3.22,1.091,4.399,2.268c1.305,1.303,1.844,3.167,2.334,4.945c5.994,21.746,13.304,45.459,16.75,74.01
							c3.89,2.464,14.768,1.766,18.427-1.43c-1.443-35.275-2.625-62.364-5.879-90.25c-0.264-2.261-2.346-7.37-6.64-10.766
							c-12.061-9.541-37.162-25.195-38.89-27.755c-2.746-4.067-4.726-7.366-7.272-11.561c-10.359,0.14-20.723-0.029-31.072-0.507
							c-5.733-0.265-15.356-3.552-15.913,4.14c-0.404,5.58-4.762,13.164-2.355,18.347
							C230.526,334.713,238.815,337.358,246.267,341.331z"/>
					</g>
				</g>
			</g>
			<g>
				<g>
					<g>
						<path style="fill:#F4B7B0;" d="M300.921,245.366c0.883,2.689-1.849,14.568,0.821,15.507
							c7.831,2.753,14.688,4.514,19.059,7.161c4.371,2.646,4.285,8.106,3.421,11.135c-0.764,2.679-6.217,4.857-8.369,3.088
							c-1.697-1.396-3.033-3.322-3.046-5.842c-1.504,2.162-4.602,4.126-7.123,4.888c-0.473-2.755-0.603-3.509,1.113-5.716
							c-7.984-0.779-17.325,1.831-20.613-7.33c-1.776-4.949-1.673-21.335-2.001-26.583c-0.3-4.802-1.699-7.447-0.023-13.538
							c1.021-3.71,1.93-6.777,5.026-9.061C299.125,211.744,299.026,239.594,300.921,245.366z"/>
					</g>
				</g>
				<g>
					<g>
						<path style="fill:#56AECE;" d="M302.89,245.202c-5.911,1.853-18.2,7.027-21.332,0.879c-2.689-5.279-4.826-45.641,0.931-45.252
							C299.894,202.003,303.411,245.038,302.89,245.202z"/>
					</g>
				</g>
				<g>
					<g>
						<path style="fill:#56AECE;" d="M215.312,205.61c-2.65,0.653-0.518,13.152,0.198,15.785
							c3.631,13.356,5.666,27.209,4.973,41.032c-0.778,15.517-3.438,52.682,4.136,59.569c3.613-3.106,10.996-10.59,21.812-11.098
							c22.26-1.045,39.754-6.46,51.148-9.397c-6.69-7.897-9.123-28.251-9.116-36.214c0.007-8.189,0.288-11.552-0.505-23.038
							c-0.911-13.198,1.491-27.566-5.469-41.42c-9.718-0.392-8.837,0.899-18.325-1.243c-6.368-1.438-15.369-0.303-26.09,1.477
							C226.797,202.933,222.28,203.892,215.312,205.61z"/>
					</g>
				</g>
				<g>
					<g>
						<path style="fill:#FFCBC3;" d="M216.384,286.282c4.098,0.273,19.896,0.192,45.647-7.442c6.65-1.971,4.232,2.49,10.327-0.82
							c2.642-1.435,3.886-2.589,6.885-2.79c4.041-0.27,2.779,1.594,5.268,4.789c2.789,0,2.101-8.781-2.626-12.502
							c-1.275-1.003-3.139-2.86-4.759-2.954c-2.679-0.155-7.394,2.412-9.707,3.774c-5.423,3.194-33.854,3.287-40.013,0.328
							c-0.192-8.876,4.444-30.868,1.501-39.244c-0.337-0.958-0.727-1.96-1.528-2.583c-0.845-0.657-1.984-0.764-3.053-0.799
							c-4.243-0.136-8.509,0.48-12.54,1.811C203.436,230.61,205.666,285.486,216.384,286.282z"/>
					</g>
				</g>
				<g>
					<g>
						<path style="fill:#56AECE;" d="M205.666,222.106c-1.216,7.478-1.232,26.235-0.197,29.983c1.264,4.581,27.354,4.107,28.059,0
							c0.179-1.045,0.079-30.049-1.969-35.444c-3.173-8.356-7.335-12.161-12.404-11.814
							C209.481,205.492,207.007,213.856,205.666,222.106z"/>
					</g>
				</g>
				<g>
					<g>
						<g>
							<path style="fill:#4B9CB2;" d="M230.057,244.379c2.172-9.079,0.067-20.411-3.596-28.878
								c-0.213-0.493-0.871-0.109-0.801,0.338c0.705,4.507,2.316,8.844,3.097,13.356c0.885,5.111,0.86,9.922,0.273,15.045
								C228.962,244.829,229.921,244.945,230.057,244.379L230.057,244.379z"/>
						</g>
					</g>
				</g>
				<g>
					<g>
						<g>
							<path style="fill:#4B9CB2;" d="M231.822,240.775c1.613-3.491,3.019-7.849,2.343-11.731c-0.068-0.392-0.593-0.241-0.635,0.086
								c-0.505,3.98-0.639,7.57-2.24,11.335C231.139,240.821,231.654,241.138,231.822,240.775L231.822,240.775z"/>
						</g>
					</g>
				</g>
				<g>
					<g>
						<g>
							<path style="fill:#4B9CB2;" d="M284.969,216.785c2.295,9.702,2.664,19.37,2.716,29.295c0.003,0.664,1.016,0.663,1.031,0
								c0.225-10.022-0.349-19.817-2.753-29.569C285.804,215.867,284.816,216.139,284.969,216.785L284.969,216.785z"/>
						</g>
					</g>
				</g>
				<g>
					<g>
						<g>
							<path style="fill:#4B9CB2;" d="M288.641,232.825c0.714-4.16,1.797-9.02,1.301-13.215c-0.043-0.363-0.572-0.499-0.68-0.092
								c-1.093,4.119-0.934,8.975-1.24,13.224C287.996,233.091,288.58,233.177,288.641,232.825L288.641,232.825z"/>
						</g>
					</g>
				</g>
				<g>
					<g>
						<g>
							<path style="fill:#4B9CB2;" d="M233.514,204.619c3.57,16.748,39.051,19.145,39.927-0.431c0.01-0.229-0.337-0.225-0.354,0
								c-1.353,18.16-34.658,15.68-38.861,0.235C234.1,203.962,233.415,204.157,233.514,204.619L233.514,204.619z"/>
						</g>
					</g>
				</g>
				<g>
					<g>
						<g>
							<path style="fill:#4B9CB2;" d="M244.795,259.813c9.243-3.303,18.593-8.569,25.011-16.153c0.217-0.256-0.115-0.595-0.37-0.37
								c-7.644,6.747-15.14,12.448-24.739,16.167C244.479,259.541,244.569,259.893,244.795,259.813L244.795,259.813z"/>
						</g>
					</g>
				</g>
				<g>
					<g>
						<g>
							<path style="fill:#4B9CB2;" d="M252.215,265.664c7.785-0.698,14.336-5.57,19.841-10.813c0.293-0.279-0.134-0.679-0.435-0.435
								c-5.945,4.81-11.438,9.951-19.406,10.787C251.924,265.233,251.917,265.691,252.215,265.664L252.215,265.664z"/>
						</g>
					</g>
				</g>
				<g>
					<g>
						<g>
							<path style="fill:#4B9CB2;" d="M226.063,315.197c11.043-4.675,21.071-8.525,33.057-9.868c0.431-0.048,0.457-0.697,0-0.692
								c-11.97,0.135-22.702,5.207-33.453,9.883C225.203,314.721,225.604,315.391,226.063,315.197L226.063,315.197z"/>
						</g>
					</g>
				</g>
				<g>
					<g>
						<g>
							<path style="fill:#4B9CB2;" d="M224.8,307.393c4.203-1.496,8.897-2.657,12.847-4.735c0.36-0.189,0.104-0.713-0.267-0.633
								c-4.327,0.943-8.64,3.065-12.789,4.611C224.124,306.811,224.321,307.564,224.8,307.393L224.8,307.393z"/>
						</g>
					</g>
				</g>
			</g>
			<g>
				<g>
					<g>
						<path style="fill:#F4B7B0;" d="M238.074,201.061c-1.098,0.908-1.777,1.262-1.793,2.686
							c-0.063,5.518,10.528,11.352,21.568,10.506c5.408-0.414,13.374-5.274,13.372-10.895c-0.001-3.003-3.405-2.531-5.362-5.059
							c-1.533-1.981-0.237-12.057-0.966-14.455c-4.423,0.403-18.2-4.541-20.666-2.074
							C240.854,185.145,242.176,197.666,238.074,201.061z"/>
					</g>
				</g>
				<g>
					<g>
						<path style="fill:#FFCBC3;" d="M244.637,194.407c4.622,4.303,12.203,6.746,18.069,4.409c4.247-1.693,6.342-6.887,8.348-12.777
							c2.495-7.325,0.99-22.8,0.002-31.907c-0.835-7.693-5.86-5.353-13.481-6.69C233.96,143.299,230.361,181.116,244.637,194.407z"
							/>
					</g>
				</g>
				<g>
					<g>
						<g>
							<ellipse style="fill:#2A2B4A;" cx="251.409" cy="172.726" rx="1.108" ry="1.764"/>
						</g>
					</g>
					<g>
						<g>
							<path style="fill:#2A2B4A;" d="M267.093,172.726c0,0.974-0.496,1.764-1.108,1.764c-0.612,0-1.108-0.79-1.108-1.764
								c0-0.974,0.496-1.764,1.108-1.764C266.597,170.962,267.093,171.752,267.093,172.726z"/>
						</g>
					</g>
				</g>
				<g>
					<g>
						<path style="fill:#2A2B4A;" d="M240.861,157.085c6,1.459,24.818,0.084,29.867-0.82c0.815-0.146,6.342,0.656,6.235-6.925
							c-0.054-3.861-0.984-8.999-11.639-8.992c-1.411,0.001-12.341,1.839-14.264,1.969c-6.17,0.417-16.129-0.323-16.129,9.517
							c0,0-10.477,9.517-0.795,21.566C240.902,181.82,242.821,157.562,240.861,157.085z"/>
					</g>
				</g>
				<g>
					<g>
						<path style="fill:#FFCBC3;" d="M234.502,167.984c-2.227,0.484-2.548,3.647-2.441,6.038c0.077,1.712,0.163,3.47,0.825,5.051
							c0.662,1.581,2.037,2.968,3.672,3.085c2.163,0.154,3.925-1.992,4.255-4.224C241.142,175.701,239.872,166.816,234.502,167.984z
							"/>
					</g>
				</g>
				<g>
					<g>
						<g>
							<path style="fill:#2A2B4A;" d="M246.3,166.941c1.288-0.964,2.734-1.608,4.347-1.778c1.395-0.147,2.695,0.414,4.043,0.316
								c0.448-0.033,0.788-0.612,0.397-0.959c-2.525-2.237-7.345-0.402-9.598,1.37C244.899,166.355,245.691,167.397,246.3,166.941
								L246.3,166.941z"/>
						</g>
					</g>
				</g>
				<g>
					<g>
						<g>
							<path style="fill:#2A2B4A;" d="M262.077,165.412c1.199-1.163,2.766-1.194,4.332-0.945c0.483,0.077,1.092,0.132,1.528,0.376
								c0.354,0.198,0.483,0.418,0.876,0.541c0.295,0.093,0.578-0.111,0.672-0.382c0.026-0.074,0.052-0.148,0.077-0.222
								c0.089-0.256-0.014-0.567-0.199-0.753c-0.985-0.991-2.712-1.012-4.022-0.992c-1.544,0.023-2.967,0.457-4.037,1.604
								C260.826,165.153,261.57,165.903,262.077,165.412L262.077,165.412z"/>
						</g>
					</g>
				</g>
				<g>
					<g>
						<g>
							<path style="fill:#E89B92;" d="M258.103,171.581c-0.258,2.487-0.083,5.23,1.425,7.313c0.645,0.892,1.583,1.495,1.912,2.615
								c0.346,1.18,0.108,1.124-0.836,1.464c-0.832,0.3-1.753,0.151-2.286,0.977c-0.182,0.282,0.005,0.641,0.299,0.734
								c1.939,0.616,4.808-0.272,4.595-2.573c-0.196-2.12-1.798-3.077-2.795-4.748c-0.999-1.673-1.118-3.876-1.021-5.782
								C259.439,170.738,258.187,170.769,258.103,171.581L258.103,171.581z"/>
						</g>
					</g>
				</g>
				<g>
					<g>
						<g>
							<path style="fill:#E89B92;" d="M238.476,173.101c-0.566-0.964-1.557-2.557-2.699-2.888c-1.267-0.367-1.771,1.065-2.077,2.054
								c-0.809,2.621-0.123,8.127,3.527,8.234c0.632,0.019,0.588-0.876,0-0.954c-2.525-0.335-3.137-4.132-2.846-6.116
								c0.203-1.384,0.728-3.138,2.207-1.736c0.525,0.498,0.981,1.102,1.37,1.709C238.166,173.727,238.673,173.436,238.476,173.101
								L238.476,173.101z"/>
						</g>
					</g>
				</g>
				<g>
					<g>
						<g>
							<path style="fill:#E89B92;" d="M237.587,175.652c-0.703,0.302-0.912,1.078-0.779,1.782c0.124,0.654,0.705,1.507,1.469,1.255
								c0.346-0.114,0.489-0.475,0.325-0.798c-0.14-0.274-0.437-0.399-0.519-0.703c-0.061-0.227-0.006-0.521,0.148-0.703
								C238.635,176.008,238.139,175.415,237.587,175.652L237.587,175.652z"/>
						</g>
					</g>
				</g>
				<g>
					<g>
						<g>
							<path style="fill:#E89B92;" d="M254.001,188.719c2.533,0.52,7.825,1.728,9.658-0.713c0.19-0.253-0.123-0.535-0.374-0.486
								c-1.479,0.29-2.778,0.712-4.328,0.717c-1.588,0.006-3.144-0.145-4.708-0.424
								C253.663,187.709,253.404,188.596,254.001,188.719L254.001,188.719z"/>
						</g>
					</g>
				</g>
				<g>
					<g>
						<g>
							<path style="fill:#F4B7B0;" d="M258.069,191.503c1.17-0.085,2.424-0.058,3.565-0.338c0.522-0.128,0.398-0.911-0.125-0.922
								c-1.171-0.023-2.392,0.286-3.548,0.458C257.509,190.77,257.612,191.536,258.069,191.503L258.069,191.503z"/>
						</g>
					</g>
				</g>
			</g>
		</g>
		<g>
			<g>
				<polygon style="fill:#A0A6AA;" points="403.349,261.138 296.565,261.138 306.41,190.907 413.194,190.907 				"/>
			</g>
			<g>
				<polygon style="fill:#BBBFC2;" points="405.318,261.138 298.534,261.138 308.379,190.907 415.163,190.907 				"/>
			</g>
			<g>
				<path style="fill:#C8CCCE;" d="M338.546,190.713c0,0-19.724,26.603-3.306,39.714c12.482,9.968,62.369,3.365,74.565-1.298
					l5.358-38.222L338.546,190.713z"/>
			</g>
			<g>
				<polygon style="fill:#626568;" points="368.734,284.493 351.673,284.493 346.751,246.08 363.811,246.08 				"/>
			</g>
			<g>
				<polygon style="fill:#808386;" points="371.688,284.493 354.627,284.493 349.704,246.08 366.765,246.08 				"/>
			</g>
			<g>
				<rect x="256.611" y="280.02" style="fill:#BBBFC2;" width="81.935" height="4.473"/>
			</g>
			<g>
				<rect x="332.639" y="280.02" style="fill:#808386;" width="53.846" height="4.473"/>
			</g>
		</g>
		<g>
			<g>
				<rect x="145.531" y="284.493" style="fill:#BA6D43;" width="419.416" height="9.111"/>
			</g>
			<g>
				<polygon style="fill:#A3603E;" points="153.478,456.874 147.872,456.874 165.112,293.604 178.393,293.604 				"/>
			</g>
			<g>
				<polygon style="fill:#894E34;" points="172.899,448.998 167.563,448.998 183.971,293.604 196.612,293.604 				"/>
			</g>
			<g>
				<polygon style="fill:#A3603E;" points="544.453,456.874 550.059,456.874 532.819,293.604 519.538,293.604 				"/>
			</g>
			<g>
				<polygon style="fill:#894E34;" points="525.033,448.998 530.368,448.998 513.96,293.604 501.32,293.604 				"/>
			</g>
		</g>
	</g>
</g>
</svg>
