<?xml version="1.0" encoding="utf-8"?>
<!-- Generator: Adobe Illustrator 27.5.0, SVG Export Plug-In . SVG Version: 6.00 Build 0)  -->
<svg version="1.1" xmlns="http://www.w3.org/2000/svg" xmlns:xlink="http://www.w3.org/1999/xlink" x="0px" y="0px"
	 viewBox="0 0 500 500" style="enable-background:new 0 0 500 500;" xml:space="preserve">
<g id="BACKGROUND">
	
		<ellipse transform="matrix(0.7071 -0.7071 0.7071 0.7071 -98.9166 253.0241)" style="fill:#E4ECF4;" cx="255.969" cy="245.915" rx="222.364" ry="222.364"/>
	
		<ellipse transform="matrix(0.7071 -0.7071 0.7071 0.7071 -87.4076 248.8094)" style="fill:#FFFFFF;" cx="256.636" cy="229.915" rx="200.915" ry="200.915"/>
	
		<ellipse transform="matrix(0.7071 -0.7071 0.7071 0.7071 -92.6827 246.6242)" style="fill:#E4ECF4;" cx="251.36" cy="235.19" rx="201.524" ry="201.524"/>
	
		<ellipse transform="matrix(0.7071 -0.7071 0.7071 0.7071 -87.4164 243.3381)" style="fill:#FFFFFF;" cx="250.027" cy="227.19" rx="182.306" ry="182.306"/>
	
		<ellipse transform="matrix(0.7071 -0.7071 0.7071 0.7071 -87.74 247.8905)" style="fill:#E4ECF4;" cx="255.36" cy="229.857" rx="179.639" ry="179.64"/>
	<path style="fill:#FFFFFF;" d="M363,80.334c0,2.577-2.089,4.666-4.667,4.666c-2.577,0-4.666-2.089-4.666-4.666
		c0-2.578,2.089-4.667,4.666-4.667C360.911,75.666,363,77.756,363,80.334z"/>
	<circle style="fill:#FFFFFF;" cx="73" cy="225" r="8"/>
	<path style="fill:#FFFFFF;" d="M445,308.333c0,2.946-2.388,5.334-5.333,5.334c-2.946,0-5.334-2.388-5.334-5.334
		c0-2.945,2.388-5.333,5.334-5.333C442.612,303,445,305.388,445,308.333z"/>
	<path style="fill:#FFFFFF;" d="M284.333,31.667c0,5.155-4.179,9.333-9.333,9.333s-9.333-4.179-9.333-9.333
		c0-5.154,4.179-9.333,9.333-9.333S284.333,26.512,284.333,31.667z"/>
</g>
<g id="OBJECTS">
	<g>
		<g>
			<path style="fill:#4E49C9;" d="M326.941,295.408c0,0,0.27,26.098-8.609,47.083c-8.879,20.986-26.636,49.236-28.25,49.236
				c-0.452,0-1.732-0.484-3.39-1.259c-4.272-2.002-10.978-5.983-11.946-8.696c-1.346-3.767,6.727-12.914,12.376-36.321
				c5.65-23.407,11.301-77.486,11.839-82.329c0.538-4.843,2.421-10.224,8.071-12.915c0,0,11.031,9.148,15.874,25.022
				c1.022,3.336,1.786,6.155,2.367,8.534C327.447,292.718,326.941,295.408,326.941,295.408z"/>
			<path style="fill:#3425A0;" d="M326.941,295.408c0,0,0.27,26.098-8.609,47.083c-8.879,20.986-26.636,49.236-28.25,49.236
				c-0.452,0-1.732-0.484-3.39-1.259c4.907-6.403,12.839-18.403,19.802-36.408c11.031-28.52,11.3-66.186,11.3-66.186
				s3.336-3.228,7.48-4.11C327.447,292.718,326.941,295.408,326.941,295.408z"/>
		</g>
		<g>
			<path style="fill:#270156;" d="M423.8,390.651c0,16.682-5.65,40.896-5.65,40.896s-1.947,0.592-5.23,1.442
				c-9.653,2.508-30.833,7.297-47.503,6.091c-22.331-1.614-37.398-8.878-37.398-8.878s-4.843-17.758-4.843-34.17
				c0-5.994,0.645-10.923,1.475-14.755c1.421-6.64,3.368-9.997,3.368-9.997l90.132-7.534
				C418.149,363.746,423.8,373.971,423.8,390.651z"/>
			<path style="fill:#1C0047;" d="M423.8,390.651c0,16.682-5.65,40.896-5.65,40.896s-1.947,0.592-5.23,1.442l-13.872-1.173
				c0,0,4.305-12.107,5.919-26.367c1.615-14.26-0.538-23.677-0.538-23.677s-28.25,6.727-36.59,5.92
				c-8.341-0.808-7.265-3.767-7.265-3.767s-20.071,2.637-35.924-2.648c1.421-6.64,3.368-9.997,3.368-9.997l90.132-7.534
				C418.149,363.746,423.8,373.971,423.8,390.651z"/>
			<path style="fill:#4E49C9;" d="M420.84,371.28c-1.076,1.345-27.98,8.609-40.088,8.878c-12.108,0.27-18.026,0.808-18.834-0.269
				c-0.807-1.076-0.807-3.228-0.807-3.228s-18.564,2.421-26.636,0.538c-8.072-1.884-9.148-4.305-8.879-5.919
				c0.269-1.614,2.69-13.184,6.995-22.869c4.305-9.686,4.305-12.646,2.422-19.372c-1.26-4.477-2.39-10.267-4.919-15.713
				c0-0.011-0.011-0.022-0.011-0.022c-1.259-2.712-2.873-5.338-5.025-7.673c-6.457-6.995-11.569-18.296-12.107-24.753
				c-0.538-6.457,0.538-11.838,0-14.26c-0.097-0.44-0.431-1-0.904-1.646c-2.152-2.905-7.361-7.447-8.243-9.653
				c-1.076-2.69,1.345-5.381,3.497-7.264c0.926-0.807,12.958-4.488,26.41-8.416c17.951-5.241,38.432-10.956,38.432-10.956
				c10.492,3.767,16.412,6.726,21.793,22.869c5.381,16.143,6.726,29.864,8.609,47.622c1.883,17.757,1.345,16.95,5.381,27.174
				c4.036,10.224,7.803,18.564,10.762,30.134C421.647,368.052,421.916,369.935,420.84,371.28z"/>
			<path style="fill:#6C7DE0;" d="M330.084,313.305c-1.259-2.712-2.873-5.338-5.025-7.673c-6.457-6.995-11.569-18.296-12.107-24.753
				c-0.538-6.457,0.538-11.838,0-14.26c-0.097-0.44-0.431-1-0.904-1.646c0.345,0.064,0.636,0.345,0.818,0.84
				c1.248,3.411,0.894,5.025,1.076,10.762c0.172,5.736,0.538,10.407,5.381,19.189c4.843,8.793,8.244,8.793,10.396,16.144
				C329.848,312.358,329.977,312.82,330.084,313.305z"/>
			<path style="fill:#4E49C9;" d="M420.84,371.28c-0.333,0.419-3.175,1.409-7.307,2.583c-9.105,2.615-24.451,6.112-32.781,6.295
				c-12.108,0.27-18.026,0.808-18.834-0.269c-0.807-1.076-0.807-3.228-0.807-3.228s-2.96-12.376-5.381-33.362
				c-1.098-9.514-1.862-15.981-2.594-20.792c-0.893-5.801-1.733-9.191-3.057-12.57c-1.668-4.272-4.208-6.146-6.737-9.19
				c-1.13-1.357-2.26-2.949-3.315-5.102c-3.282-6.727-10.676-38.345-6.317-56.005c13.432-3.918,28.282-8.114,34.912-9.965
				c2.228-0.624,3.52-0.99,3.52-0.99c10.492,3.767,16.412,6.726,21.793,22.869c2.41,7.243,4.014,14.002,5.219,20.857
				c0.076,0.431,0.151,0.851,0.216,1.281c0.904,5.338,1.571,10.751,2.217,16.52c0.323,2.895,0.635,5.865,0.958,8.965
				c1.883,17.757,1.345,16.95,5.381,27.174c4.036,10.224,7.803,18.564,10.762,30.134C421.647,368.052,421.916,369.935,420.84,371.28
				z"/>
			<path style="fill:#6C7DE0;" d="M343.175,298.815c2.152,4.126,8.968,29.237,12.196,49.506c3.228,20.269,3.588,29.057,3.588,29.057
				l2.152-0.717c0,0-1.794-14.888-5.919-35.515c-4.126-20.627-10.401-40.577-10.401-40.577L343.175,298.815z"/>
			<path style="fill:#3425A0;" d="M420.84,371.28c-0.333,0.419-3.175,1.409-7.307,2.583c0.161-1.959,0.118-4.445-0.409-7.426
				c-1.432-8.072-16.498-45.556-16.498-51.12c0-5.564,0-19.189-0.184-37.129c-0.011-1.679-0.204-3.433-0.538-5.22
				c-3.229-17.305-19.727-38.366-19.727-38.366s-5.736,7.534-8.965,13.991c-3.228,6.457-4.67,11.483-5.919,12.021
				c-1.259,0.538-3.767,1.432-4.133,2.508c-0.355,1.076,2.336,3.411,0.184,7.889c-2.152,4.487-11.301,16.863-13.636,29.423
				c0,0-0.894-0.904-0.894-4.133c0-3.229,3.767-11.655,5.026-17.036c1.248-5.381,0.71-10.579,2.69-16.498
				c1.97-5.919,12.914-24.214,16.315-30.316c0.603-1.076,1.184-2.001,1.775-2.776c2.228-0.624,3.52-0.99,3.52-0.99
				c10.492,3.767,16.412,6.726,21.793,22.869c2.41,7.243,4.014,14.002,5.219,20.857c1.475,8.416,2.357,16.972,3.391,26.766
				c1.883,17.757,1.345,16.95,5.381,27.174c4.036,10.224,7.803,18.564,10.762,30.134C421.647,368.052,421.916,369.935,420.84,371.28
				z"/>
			<path style="fill:#BDE2EA;" d="M364.501,238.961c-4.273,9.04-13.797,20.534-15.443,27.927
				c-1.636,7.393-8.706,27.604-8.706,27.604s-11.333-2.303-17.413-15.604c-6.07-13.313-4.596-36.139-4.596-36.139
				s1.141-0.474,2.379-0.936c1.055-0.409,2.185-0.807,2.712-0.872c1.151-0.172,28.584-15.121,32.038-15.777
				c0.754-0.14,1.475-0.248,2.163-0.323c2.443-0.237,4.402-0.021,5.554,0.495c0.915,0.398,2.83,2.056,3.153,5.392
				C366.546,232.795,366.137,235.507,364.501,238.961z"/>
			<path style="opacity:0.29;fill:#146F84;" d="M366.342,230.729c-0.107,0.678-0.248,1.388-0.388,2.152
				c-0.926,4.982-5.565,5.564-4.746,1.506c0.602-2.992-1.916-7.899-3.443-7.899c-0.538,0-0.958,0.603-1.076,2.109
				c-0.463,5.79-13.657,23.041-15.745,22.923c-2.077-0.118-7.286-5.553-8.911-5.553c-1.614,0-3.82,4.046-5.091,3.358
				c-1.205-0.667-3.874-2.476-6.22-7.512c1.055-0.409,2.185-0.807,2.712-0.872c1.151-0.172,28.584-15.121,32.038-15.777
				c0.754-0.14,1.475-0.248,2.163-0.323c2.443-0.237,4.402-0.021,5.554,0.495C364.103,225.735,366.019,227.392,366.342,230.729z"/>
			<path style="fill:#F5FEFF;" d="M331.977,243.237c0,0-2.464,5.092-1.642,21.355c0.821,16.264,8.378,29.405,8.378,29.405
				l1.972-0.492c0,0-5.586-12.485-7.229-25.299c-1.643-12.813,1.314-23.82,1.314-23.82L331.977,243.237z"/>
			<path style="fill:#95C9D1;" d="M346.763,222.867c4.914,0.371,8.378,1.314,9.527,2.136c1.15,0.821-1.643,8.542-7.392,15.113
				c-5.75,6.571-8.379,8.542-8.379,8.542s-6.406-4.435-8.213-4.6c-1.808-0.164-4.929,3.121-4.929,3.121s-4.929-2.628-5.585-4.435
				c-0.657-1.807,3.285-8.542,7.557-12.649C333.62,225.988,338.056,222.21,346.763,222.867z"/>
			<path style="fill:#6363D3;" d="M319.493,240.938c0,0-0.657,11.007,3.285,23.491c3.942,12.485,10.842,19.549,13.964,24.148
				c3.121,4.6,4.6,8.214,4.6,8.214s-23.656-15.113-26.12-17.906c-2.464-2.793,0.821-8.049-0.328-11.827
				c-1.15-3.778-9.036-13.635-9.2-16.756c-0.164-3.122,4.271-4.764,7.886-7.064C317.193,240.938,319.493,240.938,319.493,240.938z"
				/>
			<path style="fill:#6363D3;" d="M338.877,292.191c0,0,1.15-23.163,8.871-37.783c7.721-14.621,13.799-19.549,14.785-22.835
				c0.985-3.286,0.164-4.928-1.644-5.914c-1.807-0.985-3.121-0.985-3.121-0.985s8.214-2.136,12.978-0.165
				c4.765,1.972,4.435,4.6,3.614,7.228c-0.821,2.628-7.063,9.857-9.692,15.935c-2.628,6.078-2.464,7.721-3.778,9.528
				c-1.313,1.807-6.406,2.792-7.392,3.942c-0.986,1.149,2.3,5.092,2.628,6.899c0.329,1.807-5.914,13.471-9.363,20.698
				c-3.45,7.228-1.972,11.828-1.972,11.828s-3.942-3.45-4.764-4.929C339.206,294.162,338.877,292.191,338.877,292.191z"/>
			<path style="fill:#211672;" d="M401.587,290.21c-1.539,2.701-3.842,6.005-7.297,9.857
				c-10.579,11.839-35.687,22.245-35.687,22.245l40.767-48.622C400.274,279.028,400.941,284.441,401.587,290.21z"/>
			<path style="fill:#F2B71D;" d="M318.537,346.193h-29.122c-0.592,0-1.151-0.129-1.668-0.387c-0.786-0.366-1.453-1.012-1.841-1.83
				l-13.754-29.036c-0.57-1.216-1.743-2.044-3.078-2.195l-0.064-0.011c-1.409-0.15-2.615-1.055-3.153-2.367l-9.718-23.343
				c-1.098-2.647,0.958-5.543,3.831-5.359l35.45,2.195l0.129,0.011c1.475,0.097,2.756,1.001,3.337,2.356l23.224,54.563
				C323.196,343.353,321.324,346.193,318.537,346.193z"/>
			<g>
				<path style="fill:#FBBDA8;" d="M330.444,326.199c0,0-1.04,0.323-2,0.727c-0.538,0.215-0.995,0.592-1.515,1.049
					c-0.422,0.377-0.879,0.807-1.444,1.265c-1.282,1.04-3.434,1.999-7.434,2.564c-3.999,0.556-11.037,1.515-13.44,1.111
					c-2.395-0.395-4.636-1.435-4.959-3.03c-0.313-1.605-0.161-2.726-0.161-2.726s-1.192-0.476-2.071-0.879
					c-0.888-0.395-1.363-0.96-1.443-1.839c-0.081-0.878,0.798-1.838,0.798-1.838s-2.717-1.362-2.878-2.797
					c-0.162-1.444,0.637-2.564,1.596-2.564c0.897,0,2.511,0.636,2.708,0.717c-0.135-0.107-1.004-0.852-0.78-1.516
					c0.233-0.717,0-1.757,2.475-1.362c2.484,0.403,5.596,0.968,8.797,1.12c2.161,0.108,3.219-0.143,3.667-0.412
					c0.206-0.144,0.278-0.278,0.251-0.386c-0.081-0.322-1.516-0.475-1.516-0.475l-0.564-1.211h-0.009l-1.192-2.556
					c0,0,4.482-0.395,5.918-0.232c1.443,0.161,4.402,1.676,5.998,2.08c1.104,0.268,3.362,0.099,4.672-0.036v-0.009
					c0.609-0.063,1.014-0.117,1.014-0.117s-0.242,1.597,0.475,4.636C328.122,320.523,330.444,326.199,330.444,326.199z"/>
				<path style="fill:#F2918F;" d="M330.444,326.199c0,0-1.04,0.323-2,0.727c-0.538,0.215-0.995,0.592-1.515,1.049
					c-0.297-0.493-0.637-1.265-0.933-2.466c-0.664-2.699-0.941-10.393-0.081-12.535v-0.009c0.609-0.063,1.014-0.117,1.014-0.117
					s-0.242,1.597,0.475,4.636C328.122,320.523,330.444,326.199,330.444,326.199z"/>
				<path style="fill:#F2918F;" d="M312.609,315.403c-0.081-0.322-1.516-0.475-1.516-0.475l-0.564-1.211
					c0.538,0.099,2.018,0.395,2.896,0.896c1.085,0.619,2.098,0.619,2.098,0.619s-1.847,0.528-3.165,0.556
					C312.564,315.646,312.637,315.511,312.609,315.403z"/>
				<path style="fill:#F2918F;" d="M298.446,318.246c0,0,2.029,1.041,5.689,1.789c3.658,0.748,5.341,0.48,5.341,0.48
					s-1.95,1.068-5.849,0.188C299.728,319.821,298.446,318.246,298.446,318.246z"/>
				<path style="fill:#F2918F;" d="M297.592,322.652c0,0,2.243,0.908,4.673,1.201c2.431,0.294,6.757,0.027,6.757,0.027
					s-3.311,1.229-7.317,0.507C297.698,323.667,297.592,322.652,297.592,322.652z"/>
				<path style="fill:#F2918F;" d="M299.889,327.299c0,0,2.777,1.041,5.393,1.282c2.617,0.24,6.517-0.614,6.517-0.614
					s-2.537,1.415-5.688,1.148c-3.151-0.268-4.22-0.588-4.887-0.908C300.556,327.887,299.889,327.299,299.889,327.299z"/>
			</g>
			<path style="fill:#BDE2EA;" d="M340.851,327.56c-5.639,1.328-9.235,1.73-9.235,1.73s-3.438-3.269-5.024-9.055
				c-1.587-5.784-1.058-10.06-1.058-10.06s3.522,0.05,8.653-1.941c0.486,2.414,1.29,5.895,2.454,10.241
				C337.635,322.168,339.285,325.236,340.851,327.56z"/>
			<path style="fill:#4E49C9;" d="M403.782,272.958c-4.067,14.841-14.206,30.102-28.411,39.939
				c-12.635,8.749-26.055,13.205-34.729,15.368c-0.893-1.389-1.808-3.035-2.615-4.897c-0.646-1.474-1.227-3.077-1.668-4.821
				c-0.947-3.702-1.657-6.823-2.152-9.244c-0.129-0.613-0.247-1.184-0.345-1.711c6.027-2.476,14.238-7.878,21.6-19.717
				c10.697-17.197,8.965-32.932,13.679-43.876c0.011-0.022,0.011-0.043,0.022-0.065c1.335-3.056,3.175-5.747,5.94-7.985
				c12.646-10.224,26.905-2.691,30.134,16.681C406.279,258.893,405.72,265.877,403.782,272.958z"/>
			<path style="fill:#3425A0;" d="M403.804,272.452c0,0-0.011,0.173-0.021,0.506c-4.067,14.841-14.206,30.102-28.411,39.939
				c-12.635,8.749-26.055,13.205-34.729,15.368c-0.893-1.389-1.808-3.035-2.615-4.897c4.628-0.796,12-2.712,23.267-7.156
				C384.971,306.891,400.393,283.215,403.804,272.452z"/>
			<path style="fill:#6C7DE0;" d="M369.14,243.998c-0.797,2.432-1.743,5.876-1.905,8.911c-0.29,5.402-2.453,15.809-3.831,21.007
				c-1.378,5.209-3.928,10.902-11.483,21.514c-5.714,8.007-14.001,12.269-17.714,13.872c-0.129-0.613-0.247-1.184-0.345-1.711
				c6.027-2.476,14.238-7.878,21.6-19.717C366.158,270.677,364.426,254.942,369.14,243.998z"/>
			<path style="fill:#6363D3;" d="M398.294,345.354c-0.107,6.037-0.431,13.032-0.484,15.002
				c-0.118,3.648-12.613,10.288-16.487,10.729c-3.863,0.441-13.484-5.424-14.26-8.405c-0.431-1.657-0.936-9.491-1.291-16.132
				c-0.141-2.733-0.269-5.273-0.355-7.092c-0.064-1.421,1.162-2.561,2.583-2.379c3.282,0.431,8.997,1.012,13.99,0.711
				c7.522-0.441,14.712-2.314,15.82-2.099C398.315,335.798,398.38,340.231,398.294,345.354z"/>
			<path style="fill:#4040BF;" d="M398.294,345.354c-6.07,1.334-12.688,2.066-19.608,2.066c-4.455,0-8.782-0.302-12.914-0.872
				c-0.141-2.733-0.269-5.273-0.355-7.092c-0.064-1.421,1.162-2.561,2.583-2.379c3.282,0.431,8.997,1.012,13.99,0.711
				c7.522-0.441,14.712-2.314,15.82-2.099C398.315,335.798,398.38,340.231,398.294,345.354z"/>
			<path style="fill:#FFC74A;" d="M295.42,283.86l-7.673,61.946c-0.786-0.366-1.453-1.012-1.841-1.83l-13.754-29.036
				c-0.57-1.216-1.743-2.044-3.078-2.195l-0.064-0.011c-1.409-0.15-2.615-1.055-3.153-2.367l-9.718-23.343
				c-1.098-2.647,0.958-5.543,3.831-5.359L295.42,283.86z"/>
		</g>
		<g>
			<path style="fill:#E950CC;" d="M392.3,192.943c-4.004,7.243-4.004,13.98-2.002,19.974c0.452,1.367,0.785,2.454,0.958,3.326
				c0.603,2.949-0.484,3.304-3.95,2.916c-4.498-0.495-7.748-1.249-10.988-4.24c-3.152-2.906-5.585-8.857-5.735-9.223
				c-0.011-0.011-0.011-0.011-0.011-0.021c0,0-0.495,4.994-0.495,6.996c0,2.001-5.252-0.495-8.244-8.244
				c-2.991-7.738-1.496-17.229,2.002-26.958c0.581-1.625,1.065-3.013,1.464-4.219c1.969-6.07,1.614-7.566-0.474-10.267
				c-2.497-3.25-3.993-0.247-6.737-2.744c-2.744-2.497-3.992-8.739-3.992-8.739s-1.012-2.303,0.936-5.682
				c0.775-1.335,2.002-2.841,3.95-4.434c0.646-0.538,1.366-1.076,2.174-1.614c0.731-0.495,1.539-1.001,2.421-1.507
				c10.321-5.897,23.849-2.023,30.069,9.234c1.162,2.077,2.066,4.423,2.647,6.995c0.011,0.032,0.021,0.076,0.021,0.108
				C400.016,171.032,396.281,185.711,392.3,192.943z"/>
			<path style="fill:#C433AF;" d="M369,166.081c-0.452,4.079,0.236,0.657-3.702,7.167c1.969-6.07,1.614-7.566-0.474-10.267
				c-2.497-3.25-3.993-0.247-6.737-2.744c-2.744-2.497-3.992-8.739-3.992-8.739s-1.012-2.303,0.936-5.682
				c4.606,0.29,7.932,2.895,9.848,5.919c2.152,3.412,1.432,6.812,1.432,6.812S369.538,161.238,369,166.081z"/>
			<path style="fill:#C433AF;" d="M387.306,219.159c-4.498-0.495-7.748-1.249-10.988-4.24c-3.152-2.906-5.585-8.857-5.735-9.223
				c-0.011-0.011-0.011-0.011-0.011-0.021c-1.206-4.789-0.851-11.967,1.119-14.841c0,0-1.076,10.407,4.305,18.834
				c4.272,6.694,10.912,6.941,15.261,6.576C391.858,219.191,390.771,219.547,387.306,219.159z"/>
			<path style="fill:#4E49C9;" d="M344.604,149.247c0,0,7.49-1.748,10.736-1.249c3.246,0.499,5.743,8.49,7.241,13.234
				c1.498,4.744-5.992,7.491-8.24,7.99c-2.247,0.499-5.243-3.246-6.741-7.741C346.102,156.988,344.604,149.247,344.604,149.247z"/>
			<path style="fill:#E950CC;" d="M353.782,176.466c-1.636,14.475-7.469,16.477-7.469,16.477l-8.674,0.915l-52.756,5.575
				c0,0-20.318-3.24-24.989-14.228c-4.671-10.988-3.035-37.452,24.516-50.689c22.579-10.837,36.214-1.915,40.411,1.668
				c0.936,0.796,1.399,1.324,1.399,1.324s5.844,1.249,13.087,5.995C346.539,148.249,355.418,161.98,353.782,176.466z"/>
			<path style="fill:#C433AF;" d="M353.782,176.466c-1.636,14.475-7.469,16.477-7.469,16.477l-8.674,0.915
				c-2.045-1.819-3.434-3.379-3.434-3.379s-1.076-5.026,3.767-7.716c4.843-2.69,7.35,0,7.35,0s2.874,0.183,1.798-15.422
				c-1.077-15.605-12.022-25.108-22.783-28.702c0,0,0.129-1.066,0.483-2.454c0.936,0.796,1.399,1.324,1.399,1.324
				s5.844,1.249,13.087,5.995C346.539,148.249,355.418,161.98,353.782,176.466z"/>
			<path style="fill:#F49A98;" d="M348.197,224.583c0,0,0,1.151-0.872,3.444c-0.613,1.603-1.668,3.777-3.444,6.521
				c-4.315,6.64-11.031,8.297-12.699,7.598c-0.731-0.313-4.057-4.273-7.35-8.287h-0.012c-2.766-3.379-5.51-6.801-6.693-8.157
				c3.142-1.356,6.231-3.014,9.212-4.918c6.36-4.057,10.052-8.147,12.172-11.741L348.197,224.583z"/>
			<path style="fill:#E5768B;" d="M348.197,224.583c0,0,0,1.151-0.872,3.444c-0.161-0.915-0.452-2.12-1.012-3.229
				c-1.087-2.163-6.21-8.179-6.21-8.179s-10.934,16.455-14.582,17.144c-0.646,0.119-1.206,0.14-1.689,0.097h-0.012
				c-2.766-3.379-5.51-6.801-6.693-8.157c3.142-1.356,6.231-3.014,9.212-4.918c6.36-4.057,10.052-8.147,12.172-11.741
				L348.197,224.583z"/>
			<path style="fill:#FCB5A2;" d="M348.412,194.439c-0.936,6.242-5.607,6.489-5.607,6.489c0.162,2.013,0.119,3.734-0.064,5.188
				c0,0.032,0,0.075-0.011,0.107c-0.29,1.636-0.872,3.563-1.926,5.693c-0.323,0.517-0.56,0.753-0.56,0.753l0.087,0.161
				c-2.066,3.777-5.65,8.083-11.86,12.355c-2.895,2.001-5.908,3.745-8.965,5.176c-2.594,1.216-5.229,2.206-7.866,2.949
				c-8.007,2.239-16.004,2.099-22.945-1.345c-4.229-2.088-8.082-5.402-11.3-10.148c-8.933-13.14-9.287-26.98-8.804-33.631
				c0-0.011,0-0.011,0-0.021c0.141-1.141,0.302-2.109,0.452-2.852c0,0,0-0.011,0-0.022c0.086-0.441,0.173-0.807,0.237-1.098
				c0.118-0.484,0.193-0.743,0.193-0.743s1.625-4.487,6.759-10.977c4.821-6.091,10.665-9.987,11.375-10.45
				c0.054-0.032,0.075-0.043,0.075-0.043s0.571,1.991,2.239,4.886c2.346,4.068,6.866,9.922,15.045,14.593
				c14.012,7.985,30.833,5.995,30.833,5.995c1.636-3.746,4.907-4.499,7.942-3.498C346.776,184.958,349.338,188.197,348.412,194.439z
				"/>
			<path style="fill:#F2918F;" d="M348.412,194.439c-0.936,6.242-5.607,6.489-5.607,6.489c0.162,2.013,0.119,3.734-0.064,5.188
				c0,0.032,0,0.075-0.011,0.107c-0.29,1.636-0.872,3.563-1.926,5.693c-0.323,0.517-0.56,0.753-0.56,0.753l0.087,0.161
				c-2.066,3.777-5.65,8.083-11.86,12.355c-2.895,2.001-5.908,3.745-8.965,5.176c-2.594,1.216-5.229,2.206-7.866,2.949
				c3.745-2.066,8.447-4.896,14.313-8.75c20.447-13.452,14.357-24.752,14.357-24.752s6.457-1.442,6.005-6.866
				c-0.452-5.424-1.7-7.663-5.112-7.845c-3.411-0.183-5.402,2.357-5.402,2.357c1.636-3.746,4.907-4.499,7.942-3.498
				C346.776,184.958,349.338,188.197,348.412,194.439z"/>
			<path style="fill:#F2918F;" d="M289.921,166.867c-4.036,2.529-14.776,9.74-20.879,18.424c0.086-0.441,0.173-0.807,0.237-1.098
				c0.118-0.484,0.193-0.743,0.193-0.743s1.625-4.487,6.759-10.977c4.821-6.091,10.665-9.987,11.375-10.45
				c0.054-0.032,0.075-0.043,0.075-0.043S288.253,163.972,289.921,166.867z"/>
			<path style="fill:#FCB5A2;" d="M343.214,211.917c-0.15,0.301-0.323,0.602-0.506,0.915l-0.097-0.161
				C342.611,212.67,342.869,212.433,343.214,211.917z"/>
			<path style="fill:#E950CC;" d="M326.221,137.508c-0.624,7.232-16.768,21.406-30.758,23.73
				c-13.99,2.335-23.859,18.661-25.829,24.042c-1.969,5.381-0.742,8.136-0.742,8.136s-0.345-0.043-0.915-0.215
				c-3.207-0.947-13.56-5.747-9.083-27.766c0.194-1.001,0.431-2.045,0.7-3.121c1.216-4.897,3.077-9.094,5.359-12.678
				c9.954-15.68,27.959-19.802,35.729-20.932c0.926-0.14,1.711-0.226,2.314-0.291c0.775-0.086,1.603-0.097,2.465-0.054
				c3.1,0.151,6.629,1.033,9.782,2.12c3.67,1.27,6.834,2.82,8.201,3.852C326.317,136.485,326.221,137.508,326.221,137.508z"/>
			<path style="fill:#C433AF;" d="M326.221,137.508c-0.624,7.232-16.768,21.406-30.758,23.73
				c-13.99,2.335-23.859,18.661-25.829,24.042c-1.969,5.381-0.742,8.136-0.742,8.136s-0.345-0.043-0.915-0.215
				c-0.463-0.463-0.925-0.958-1.388-1.463c-12.915-14.174,4.477-33.545,17.93-32.824c13.452,0.71,15.249-0.183,26.011-6.995
				c9.105-5.769,10.892-13.463,4.714-21.438c3.67,1.27,6.834,2.82,8.201,3.852C326.317,136.485,326.221,137.508,326.221,137.508z"/>
			<path style="fill:#F28BE4;" d="M302.814,142.05c-6.834,12.032-34.589,20.749-43.92,23.386c0.194-1.001,0.431-2.045,0.7-3.121
				c1.216-4.897,3.077-9.094,5.359-12.678c12.053,0.656,24.376-3.551,31.941-12.247c2.658-3.046,3.659-6.027,3.788-8.685
				c0.926-0.14,1.711-0.226,2.314-0.291c0.775-0.086,1.603-0.097,2.465-0.054C306.257,131.976,305.924,136.583,302.814,142.05z"/>
			<path style="fill:#F28BE4;" d="M396.313,154.598c-1.97,1.518-5.661,2.949-12.419,1.98c-12.56-1.797-18.123-7.716-22.245-12.193
				c-1.055-1.151-1.938-2.152-2.669-3.003c0.646-0.538,1.366-1.076,2.174-1.614c4.466,6.898,12.193,12.613,21.664,12.15
				c5.392-0.269,8.781-2.368,10.826-4.423c1.162,2.077,2.066,4.423,2.647,6.995C396.303,154.523,396.313,154.566,396.313,154.598z"
				/>
		</g>
		<g>
			<path style="fill:#080651;" d="M276.235,201.629c0.432,1.961,0.002,3.723-0.96,3.935c-0.962,0.212-2.092-1.206-2.524-3.167
				c-0.432-1.961-0.002-3.723,0.96-3.935C274.673,198.25,275.804,199.668,276.235,201.629z"/>
			<path style="fill:#080651;" d="M305.573,194.886c0.433,1.962,0.003,3.723-0.959,3.935c-0.963,0.212-2.093-1.206-2.525-3.167
				c-0.433-1.961-0.003-3.723,0.959-3.935C304.012,191.507,305.142,192.925,305.573,194.886z"/>
			<path style="fill:#D15A74;" d="M285.395,197.217c0.479,0.633,0.917,1.29,1.373,1.936c0.223,0.314,0.466,0.673,0.665,1.139
				c0.198,0.446,0.324,1.122,0.101,1.744c-0.221,0.627-0.674,1.048-1.041,1.329c-0.378,0.284-0.73,0.479-1.006,0.675
				c-0.287,0.204-0.445,0.353-0.563,0.549c-0.128,0.193-0.213,0.438-0.247,0.693c-0.061,0.529,0.064,1.033,0.393,1.48
				c0.332,0.439,0.832,0.821,1.406,1.021c1.135,0.419,2.605,0.233,3.716-0.586l0.017-0.012c0.24-0.178,0.579-0.126,0.757,0.114
				c0.148,0.201,0.137,0.47-0.011,0.657c-1.121,1.419-3.139,2.115-5.027,1.609c-0.929-0.265-1.81-0.785-2.438-1.601
				c-0.646-0.796-0.959-1.936-0.782-2.968c0.079-0.521,0.264-1.04,0.577-1.501c0.31-0.471,0.78-0.828,1.149-1.055
				c0.765-0.455,1.387-0.774,1.477-1.016c0.175-0.198-0.038-0.804-0.424-1.52c-0.341-0.713-0.701-1.416-1.019-2.143
				c-0.12-0.274,0.005-0.593,0.279-0.713C284.979,196.945,285.247,197.022,285.395,197.217z"/>
			<path style="fill:#CE5771;" d="M304.537,217.505c-0.29,1.668-1.033,3.142-2.453,3.993c-4.079,2.421-8.158,3.659-12.236,2.271
				c-0.313-0.097-0.625-0.215-0.937-0.355c-4.392-1.916-5.769-6.307-5.908-8.093c-0.087-1.173,0.721-1.345,1.27-1.313
				c0.291,0.01,0.517,0.075,0.517,0.075c3.153,0.14,7.135-0.689,10.708-2.884c2.476-1.528,4.101-2.981,5.456-3.175
				c0.593-0.086,1.142,0.075,1.68,0.57C303.838,209.703,305.161,214.018,304.537,217.505z"/>
			<path style="fill:#FFFFFF;" d="M301.664,211.338c-0.409,1.378-1.227,2.196-5.069,3.573c-3.842,1.367-8.922,2.325-10.428,1.915
				c-1.044-0.28-1.625-1.862-1.895-2.819c0.291,0.01,0.517,0.075,0.517,0.075c3.153,0.14,7.135-0.689,10.708-2.884
				c2.476-1.528,4.101-2.981,5.456-3.175C301.395,209.025,301.922,210.499,301.664,211.338z"/>
			<path style="fill:#FFD9D9;" d="M304.537,217.505c-0.29,1.668-1.033,3.142-2.453,3.993c-4.079,2.421-8.158,3.659-12.236,2.271
				c0.333-1.356,1.625-4.671,6.468-6.393C299.813,216.128,302.697,216.741,304.537,217.505z"/>
			<path style="fill:#A81694;" d="M268.891,193.413c0.311,0.624,0.368,0.829,0.921,0.599c0.553-0.23,1.707-1.585,2.975-1.83
				c1.428-0.276,2.461,0.126,2.875-0.013c0.415-0.138,0.369-1.612-0.414-2.165c-0.783-0.553-2.977-0.381-4.497,0.264
				C269.23,190.913,268.153,191.939,268.891,193.413z"/>
			<path style="fill:#A81694;" d="M299.03,185.784c0,0,1.017-1.181,3.052-1.378c2.034-0.197,3.379,0.755,3.773,0.853
				c0.393,0.099,0.787-1.247,0.558-2.001s-2.494-1.477-4.659-1.378c-2.166,0.099-3.413,1.346-3.741,1.772
				c-0.328,0.427,0.197,1.805,0.427,2.1C298.669,186.047,299.03,185.784,299.03,185.784z"/>
		</g>
	</g>
	<g>
		<g>
			<g>
				<path style="fill:#78BCF9;" d="M249.725,407.462c-0.613,4.573-4.359,8.835-7.781,11.591c-1.108,0.882-2.185,1.614-3.11,2.142
					c-3.767,2.152-37.667,3.229-51.259-12.656c-13.593-15.863-17.359-53.132-17.618-63.216c-0.28-10.095,1.873-18.296,1.873-18.296
					c0.517,0.064,1.044,0.13,1.571,0.194c7.48,0.925,16.229,2.809,24.398,20.652c8.749,19.103,14.26,25.56,21.793,31.209
					c7.534,5.65,24.753,10.763,26.905,13.313C248.648,394.956,250.532,401.413,249.725,407.462z"/>
				<path style="fill:#639AEA;" d="M241.943,419.053c-1.108,0.882-2.185,1.614-3.11,2.142c-3.767,2.152-37.667,3.229-51.259-12.656
					c-13.593-15.863-17.359-53.132-17.618-63.216c-0.28-10.095,1.873-18.296,1.873-18.296c0.517,0.064,1.044,0.13,1.571,0.194
					c1.119,0.43,1.894,0.871,1.894,0.871c6.586,5.22,6.812,17.241,5.22,27.454c-1.582,10.202,1.819,28.121,7.264,39.238
					c5.446,11.117,13.83,20.642,36.516,24.505C231.881,420.581,237.639,420.172,241.943,419.053z"/>
				<path style="fill:#638DEA;" d="M183.011,424.509l-70.556-1.625l-32.771-0.753c0,0-4.036-12.107-3.767-42.37
					c0.204-23.246,7.867-40.616,14.271-50.345c0.097-0.151,0.193-0.302,0.29-0.441c1.83-2.733,3.54-4.832,4.939-6.253
					c6.328-6.457,22.062-9.148,34.041-2.562c11.978,6.587,28.121,14.529,33.093,11.031c4.972-3.497,6.587-7.932,6.587-7.932
					s3.767,1.205,8.211,9.944c0.097,0.193,0.194,0.398,0.28,0.603c3.971,9.04-4.8,28.961-0.064,41.466
					c4.843,12.785,4.789,18.759,6.802,27.906C186.39,412.326,183.011,424.509,183.011,424.509z"/>
				<path style="fill:#5269DB;" d="M112.456,422.884l-32.771-0.753c0,0-4.036-12.107-3.767-42.37
					c0.204-23.246,7.867-40.616,14.271-50.345l15.691-0.42c0,0-16.789,34.029-6.124,66.24
					C104.33,409.055,108.818,417.621,112.456,422.884z"/>
				<path style="fill:#5269DB;" d="M177.63,333.807c-0.452-0.193-0.925-0.366-1.42-0.495c-4.994-1.366-7.039,2.045-17.241,6.35
					c-10.213,4.315-31.985-8.62-31.985-8.62s-17.477-10.665-23.827,1.818c0,0-7.071-0.484-12.678-3.885
					c1.83-2.733,3.54-4.832,4.939-6.253c6.328-6.457,22.062-9.148,34.041-2.562c11.978,6.587,28.121,14.529,33.093,11.031
					c4.972-3.497,6.587-7.932,6.587-7.932s3.767,1.205,8.211,9.944C177.447,333.397,177.544,333.603,177.63,333.807z"/>
				<path style="fill:#9ACDDB;" d="M138.952,388.121c4.446-0.103,22.436-0.827,26.054-0.518c3.619,0.311,3.826,0,5.376,3.412
					c1.551,3.412,2.482,11.683,2.482,15.818c0,4.136-2.482,4.446-5.79,4.652c-3.309,0.207-25.123,1.241-28.225,0.414
					c-3.102-0.827-3.205-13.854-3.412-18.92C135.229,387.914,138.952,388.121,138.952,388.121z"/>
				<path style="fill:#78BCF9;" d="M171.033,326.618c-2.174,7.35-5.94,12.16-10.17,14.507c-0.527,0.29-1.065,0.538-1.604,0.753
					c-0.409,0.173-0.829,0.313-1.249,0.431c-0.904,0.259-1.808,0.409-2.723,0.452c-3.444,0.172-7.297-0.161-11.192-1.022
					c-0.011,0-0.011,0-0.011,0c-1.916-0.431-3.832-0.98-5.726-1.668c-3.455-1.248-6.813-2.949-9.836-5.112
					c-8.071-5.779-12.785-10.762-18.704-14.26c-3.057-1.808-5.188-1.345-7.006-0.56c-0.011,0-0.021,0.011-0.032,0.011
					c-1.689,0.743-3.121,1.755-4.8,1.496c-2.647-0.409-3.379-1.205-3.734-4.326c-0.108-0.883-0.183-1.959-0.28-3.261
					c0-0.161-0.011-0.323-0.021-0.484c-0.398-6.328,1.076-12.118,21.125-14.938c20.039-2.82,41.294,2.421,44.522,3.497
					c2.605,0.872,4.509,1.916,7.566,4.908c0.721,0.71,1.506,1.527,2.389,2.485c0.635,0.7,1.194,1.324,1.657,1.927
					C174.057,315.135,173.691,317.588,171.033,326.618z"/>
				<path style="fill:#639AEA;" d="M158.064,342.04c0,0-0.011,0.097-0.054,0.269c-0.904,0.259-1.808,0.409-2.723,0.452
					c-3.444,0.172-7.297-0.161-11.192-1.022c-0.011,0-0.011,0-0.011,0c-1.916-0.431-3.832-0.98-5.726-1.668
					c-3.455-1.248-6.813-2.949-9.836-5.112c-8.071-5.779-12.785-10.762-18.704-14.26c-3.057-1.808-5.188-1.345-7.006-0.56
					c2.454-1.334,9.977-3.949,21.718,5.048C139.059,336.304,146.765,342.943,158.064,342.04z"/>
				<path style="fill:#639AEA;" d="M134.392,300.609c-12.915,0.718-16.502,0.359-18.475,4.126
					c-1.973,3.767,6.278,8.43,15.246,12.556c8.969,4.125,17.628,9.227,21.639,8.649c4.01-0.577,1.858-8.11-2.806-15.285
					S134.392,300.609,134.392,300.609z"/>
				<g>
					<path style="fill:#F2979C;" d="M157.107,310.68c0,0,1.431,13.193-4.305,15.26c-3.81,1.367-11.311-5.047-15.939-9.718
						c-2.378-2.379-3.993-4.305-3.993-4.51c0-0.624-1.259-14.227-1.614-17.521c-0.161-1.593-1.442-2.809-3.347-4.294
						c7.802,4.122,20.308,5.413,30.94,4.349c-1.065,1.409-1.56,4.337-1.765,7.328C156.784,306.052,157.107,310.68,157.107,310.68z"
						/>
					<path style="fill:#DB6A8D;" d="M158.85,294.246c-1.065,1.409-1.56,4.337-1.765,7.328c-0.904,0.894-2.357,2.023-4.456,2.863
						c-3.476,1.377-17.822-6.124-17.822-6.124s0.549,10.74,1.227,15.1c0.151,0.936,0.441,1.883,0.829,2.809
						c-2.378-2.379-3.993-4.305-3.993-4.51c0-0.624-1.259-14.227-1.614-17.521c-0.161-1.593-1.442-2.809-3.347-4.294
						C135.712,294.02,148.217,295.31,158.85,294.246z"/>
				</g>
				<path style="fill:#CAE4F9;" d="M144.085,341.738c-1.916-0.431-3.832-0.98-5.726-1.668c-6.285-5.812-15.304-15.681-20.911-20.599
					c-6.974-6.124-17.897-3.788-23.203-2.152c-0.108-0.883-0.183-1.959-0.28-3.261c0.947,0.42,2.206,0.699,3.745,0.42
					c3.864-0.679,8.621-3.175,14.518-0.904c5.897,2.271,12.484,7.265,19.511,15.885
					C135.464,334.022,140.329,338.521,144.085,341.738z"/>
				<path style="fill:#CAE4F9;" d="M171.205,311.454c-0.032,1.754-0.172,3.992-0.441,6.888c-0.807,8.706-6.199,17.983-9.901,22.783
					c-0.527,0.29-1.065,0.538-1.604,0.753c1.065-1.689,2.486-4.046,3.788-6.521c2.389-4.563,7.265-16.369,4.111-28.314
					c0.721,0.71,1.506,1.527,2.389,2.485C170.183,310.228,170.742,310.852,171.205,311.454z"/>
			</g>
			<g>
				<path style="fill:#5B42C4;" d="M183.269,218.449c-1.549,5.736-4.821,9.869-4.821,9.869s1.205,1.432,2.927,8.793
					c1.722,7.361,0.345,18.306,0.345,18.306s-8.954,13.829-15.497,17.596c-6.554,3.768-21.018,7.717-30.661,7.361
					c-9.654-0.365-22.396-8.975-25.323-13.107c-0.99-1.399-2.228-4.832-3.39-9.04c-2.249-8.201-4.24-19.372-3.669-24.344
					c0.861-7.544,6.026-12.743,9.815-16.509c0.29-0.291,0.57-0.56,0.861-0.818c3.455-3.121,6.543-4.036,6.543-4.036
					c2.755-4.122,9.987-8.254,17.402-8.254c7.404,0,9.643-4.843,12.054-3.95c2.411,0.893,3.099,4.671,3.099,4.671
					s6.027-0.366,6.027,1.248c0,1.625-2.066,4.488-2.066,4.488s3.444,0.904,6.199-0.71c2.766-1.615,6.382-4.671,8.62-2.874
					c2.152,1.722,1.119,4.434,1.044,4.649c0.247-0.237,4.574-4.272,8.082-3.573C184.475,208.935,184.819,212.702,183.269,218.449z"
					/>
				<path style="opacity:0.61;fill:#352E93;" d="M113.93,220.171c-4.918,4.66-7.114,10.095-6.984,19.404
					c0.129,9.32,4.531,16.95,4.531,16.95s-2.788,1.055-4.628,1.701c-2.249-8.201-4.24-19.372-3.669-24.344
					c0.861-7.544,6.026-12.743,9.815-16.509c0.29-0.291,0.57-0.56,0.861-0.818C114.123,218.352,113.93,220.171,113.93,220.171z"/>
				<path style="fill:#FFB1AE;" d="M184.69,272.518c-0.064,6.177-1.119,12.311-4.563,17.294c-3.208,4.639-8.664,6.382-13.819,7.447
					c-0.678,0.14-1.356,0.27-2.034,0.377c-5.887,1.033-11.892,1.27-17.833,0.904c-3.304-0.205-6.597-0.614-9.826-1.313
					c-2.508-0.549-5.898-1.119-8.061-2.637c-1.42-1.001-3.228-2.142-5.241-3.724c-7.382-8.47-8.76-18.359-8.932-19.684
					c-0.011-0.097-0.011-0.15-0.011-0.15s-8.965,0.183-9.126-7.533c-0.172-7.717,5.166-9.514,9.126-9.159
					c0.958,0.086,1.787,0.345,2.475,0.743h0.011c2.152,1.216,3.067,3.681,3.196,6.263c0.162,2.992,1.894,5.564,4.176,5.909
					c0.14,0.032,0.28,0.043,0.42,0.043h0.043c0.172,0,0.355-0.011,0.527-0.032c2.755-0.355,3.271-6.285,2.938-12.559
					c-0.301-5.585,0.603-14.163,6.866-18.134c0.775-0.495,1.636-0.926,2.593-1.259c8.621-3.046,16.38,0.613,22.923,0
					c7.738-0.711,13.775-3.412,13.775-3.412c0.129-0.064,0.301-0.032,0.484,0.075c1.162,0.646,3.121,4.133,3.357,4.574
					c3.917,7.286,4.864,15.853,5.769,24.02C184.345,264.359,184.722,268.449,184.69,272.518z"/>
				<path style="fill:#E57F90;" d="M114.975,261.689c0,1.649-1.283,2.987-2.866,2.987s-2.866-1.338-2.866-2.987
					c0-1.649,1.283-2.986,2.866-2.986S114.975,260.039,114.975,261.689z"/>
				<path style="fill:#E57F90;" d="M164.274,297.636c-5.887,1.033-11.892,1.27-17.833,0.904c-3.304-0.205-6.597-0.614-9.826-1.313
					c-2.508-0.549-5.898-1.119-8.061-2.637c-1.42-1.001-3.228-2.142-5.241-3.724c-7.382-8.47-8.76-18.359-8.932-19.684
					c-0.011-0.097-0.011-0.15-0.011-0.15s-8.965,0.183-9.126-7.533c-0.172-7.717,5.166-9.514,9.126-9.159
					c0.958,0.086,1.787,0.345,2.475,0.743c-6.974-0.108-11.192,3.39-9.643,7.78c1.55,4.402,4.918,5.822,8.921,4.402
					c0,0,0.904,12.29,6.855,20.695c5.952,8.405,27.562,9.954,36.225,9.567C161.315,297.432,162.983,297.496,164.274,297.636z"/>
				<path style="fill:#E57F90;" d="M135.023,236.572c0.775-0.495,1.636-0.926,2.593-1.259c8.621-3.046,16.38,0.613,22.923,0
					c7.738-0.711,13.775-3.412,13.775-3.412c0.129-0.064,0.301-0.032,0.484,0.075c-3.003,2.077-9.094,5.79-15.95,7.34
					C150.93,241.114,139.145,237.853,135.023,236.572z"/>
				<path style="fill:#5B42C4;" d="M185.077,219.525c-1.065,2.378-2.443,5.241-4.725,7.856c-1.248,1.431-2.755,2.788-4.649,3.939
					c-3.476,2.152-8.222,3.605-14.819,3.605c-16.681,0-25.613,1.292-35.827-1.291c-10.224-2.594-11.128-8.416-11.773-11.128
					c0,0-1.55-4.402,0.129-9.708c1.292-4.068,5.327-7.684,11.064-9.32c1.732-0.495,3.605-0.807,5.618-0.893
					c1.431-0.065,2.776-0.172,4.036-0.334c0.215-0.021,0.431-0.054,0.635-0.086c1.442-0.172,2.788-0.431,4.036-0.721
					c0.344-0.086,0.678-0.172,1.001-0.258c3.497-0.936,6.317-2.26,8.921-3.777c4.66-2.712,7.114-0.387,7.243,2.454
					c0.129,2.852-1.292,4.402-1.292,4.402s3.239,0,6.597-1.679c1.97-0.99,1.905,0.872,1.507,2.572
					c-0.258,1.13-0.678,2.207-0.721,2.335c0.237-0.183,3.412-2.669,8.018-4.907c3.519-1.722,5.155-0.269,5.822,1.539
					c0.236,0.646,0.355,1.335,0.387,1.948c0.075,1.42-0.711,2.787-1.324,3.637c0.506-0.549,1.238-1.237,2.152-1.818
					c1.227-0.786,2.777-1.356,4.466-1.044C185.723,207.633,187.789,213.445,185.077,219.525z"/>
				<path style="opacity:0.61;fill:#352E93;" d="M175.704,231.32c-3.476,2.152-8.222,3.605-14.819,3.605
					c-16.681,0-25.613,1.292-35.827-1.291c-10.224-2.594-11.128-8.416-11.773-11.128c0,0-1.55-4.402,0.129-9.708
					c1.292-4.068,5.327-7.684,11.064-9.32c-6.629,6.252-6.705,13.861-1.625,19.415c5.693,6.21,12.935,10.342,28.982,10.342
					C167.363,233.236,172.346,230.33,175.704,231.32z"/>
				<path style="fill:#8577DB;" d="M177.113,207.892c-1.216,2.099-3.013,4.326-5.618,5.682c-5.951,3.11-20.05,5.435-27.68,0.129
					c-5.349-3.702-7.964-8.803-9.051-11.537c1.442-0.172,2.788-0.431,4.036-0.721c2.669,2.282,7.77,5.618,14.841,5.532
					c3.562-0.043,6.629-0.807,9.137-1.819c-0.258,1.13-0.678,2.207-0.721,2.335c0.237-0.183,3.412-2.669,8.018-4.907
					c3.519-1.722,5.155-0.269,5.822,1.539c0.236,0.646,0.355,1.335,0.387,1.948c0.075,1.42-0.711,2.787-1.324,3.637
					C175.467,209.161,176.199,208.473,177.113,207.892z"/>
			</g>
			<g>
				<path style="fill:#140C66;" d="M150.312,258.216c0.103,1.735-0.529,3.184-1.411,3.236c-0.882,0.052-1.68-1.311-1.783-3.047
					c-0.103-1.734,0.528-3.184,1.411-3.235C149.41,255.117,150.209,256.481,150.312,258.216z"/>
				<path style="fill:#140C66;" d="M181.723,256.351c0.103,1.735-0.529,3.184-1.411,3.236c-0.882,0.053-1.681-1.312-1.784-3.046
					c-0.103-1.735,0.528-3.184,1.411-3.236C180.821,253.252,181.62,254.616,181.723,256.351z"/>
				<path style="fill:#D15A74;" d="M173.607,257.274c-0.002,0.451,0.002,0.886,0.028,1.292c0.025,0.409,0.114,0.757,0.229,1.191
					c0.111,0.399,0.238,0.785,0.393,1.033c0.075,0.122,0.157,0.191,0.185,0.195c0.1,0.055,0.236,0.115,0.378,0.158
					c0.583,0.198,1.516,0.104,2.577,0.358c0.996,0.233,2.013,0.646,2.857,1.436c0.861,0.753,1.424,2.011,1.433,3.115
					c0.066,1.122-0.284,2.36-1.14,3.242c-0.842,0.86-1.915,1.256-2.925,1.392c-1.014,0.126-1.958,0.034-2.852-0.091l-0.017-1.076
					c0.899-0.153,1.765-0.255,2.514-0.502c0.737-0.234,1.385-0.614,1.76-1.093c0.717-0.898,0.665-2.619-0.258-3.415
					c-0.468-0.448-1.142-0.803-1.88-1.01c-0.676-0.224-1.595-0.185-2.716-0.604c-0.278-0.112-0.546-0.257-0.81-0.467
					c-0.331-0.27-0.513-0.578-0.642-0.854c-0.249-0.557-0.326-1.058-0.379-1.54c-0.048-0.447-0.091-0.993-0.041-1.484
					c0.037-0.493,0.139-0.953,0.235-1.395L173.607,257.274z"/>
				<path style="fill:#5B42C4;" d="M142.541,252.737c1.021-0.72,3.605-2.292,6.604-2.033c2.999,0.259,3.675,0.668,4.153,0.082
					c0.479-0.586,0.596-2.471-0.204-3.179c-0.799-0.708-3.021-1.354-5.927-1.075c-2.905,0.279-5.878,2.044-6.307,2.879
					c-0.429,0.835,0.482,3.214,0.849,3.503C142.078,253.204,142.541,252.737,142.541,252.737z"/>
				<path style="fill:#5B42C4;" d="M175.18,247.556c1.492-0.816,3.054-0.888,4.332-0.639c1.278,0.248,1.989,0.888,2.344,0.533
					c0.355-0.355,0.284-2.13-0.142-2.734c-0.426-0.604-1.775-1.243-4.19-1.101c-2.415,0.142-3.906,0.958-4.048,1.704
					c-0.142,0.746,0.284,2.202,0.604,2.415C174.399,247.947,175.18,247.556,175.18,247.556z"/>
				<path style="fill:#CE5771;" d="M175.768,284.506c-0.98,1.518-2.605,2.712-5.273,2.992c-4.434,0.463-7.07-0.765-8.814-2.475
					c-1.249-1.205-2.045-2.669-2.701-3.917c-1.582-3.014-1.356-5.65-0.226-5.381c0.323,0.075,0.958,0.15,1.776,0.226
					c2.045,0.172,5.306,0.28,8.19,0.032c2.507-0.204,4.681-0.893,5.973-1.389c0.796-0.29,1.259-0.527,1.259-0.527
					s0.527-0.57,0.753-0.226c0.226,0.334,0.334,1.28,0.409,2.939C177.167,277.845,177.555,281.708,175.768,284.506z"/>
				<path style="fill:#FFFFFF;" d="M174.692,274.594c-0.011,0.291-0.021,0.646-0.021,1.055c0,1.087,0,2.143-2.486,3.153
					c-2.486,1.022-7.899,0.98-10.009,0.27c-1.582-0.538-1.7-2.238-1.646-3.121c2.045,0.172,5.306,0.28,8.19,0.032
					C171.227,275.778,173.4,275.089,174.692,274.594z"/>
				<path style="fill:#FFD9D9;" d="M175.768,284.506c-0.98,1.518-2.605,2.712-5.273,2.992c-4.434,0.463-7.07-0.765-8.814-2.475
					c0.958-1.173,3.164-3.175,7.157-3.282C172.604,281.644,174.746,283.344,175.768,284.506z"/>
			</g>
		</g>
		<g>
			<path style="fill:#28AFAF;" d="M461.833,435.056v32.447c0,7.103-5.812,12.914-12.915,12.914H58.226
				c-7.103,0-12.914-5.811-12.914-12.914v-32.447c0-5.962,4.089-11.01,9.6-12.474c1.055-0.29,2.174-0.441,3.315-0.441h390.692
				C456.021,422.141,461.833,427.952,461.833,435.056z"/>
			<path style="fill:#44C1BD;" d="M447.207,426.166V445c0,7.103-5.812,12.914-12.914,12.914H67.309
				c-7.103,0-12.914-5.812-12.914-12.914v-18.834c0-1.237,0.183-2.443,0.517-3.584c1.055-0.29,2.174-0.441,3.315-0.441h388.336
				C446.981,423.411,447.207,424.768,447.207,426.166z"/>
			<path style="fill:#146F84;" d="M187.436,476.209H60.183c-2.888,0-5.25-2.362-5.25-5.25v-0.8c0-2.888,2.362-5.25,5.25-5.25
				h127.253c2.888,0,5.25,2.362,5.25,5.25v0.8C192.686,473.847,190.324,476.209,187.436,476.209z"/>
			<path style="fill:#146F84;" d="M247.793,476.209h-42.324c-2.887,0-5.25-2.362-5.25-5.25v-0.8c0-2.888,2.363-5.25,5.25-5.25
				h42.324c2.887,0,5.25,2.362,5.25,5.25v0.8C253.043,473.847,250.68,476.209,247.793,476.209z"/>
			<path style="fill:#146F84;" d="M396.039,476.209h-42.323c-2.888,0-5.25-2.362-5.25-5.25v-0.8c0-2.888,2.362-5.25,5.25-5.25
				h42.323c2.888,0,5.25,2.362,5.25,5.25v0.8C401.289,473.847,398.927,476.209,396.039,476.209z"/>
		</g>
		<g>
			<polygon style="fill:#A6A0F2;" points="127.886,421.81 125.259,418.965 232.326,418.965 301.382,440.516 184.686,446.181 			"/>
			<polygon style="fill:#7465D1;" points="125.259,424.458 184.686,452.174 184.686,446.181 125.259,418.965 			"/>
			<polygon style="fill:#7465D1;" points="184.686,452.174 302.54,446.681 359.72,357.291 244.612,358.04 			"/>
			<path style="fill:#A6A0F2;" d="M298.252,386.354c7.126,9.518,3.935,23.948-7.126,32.228c-11.062,8.28-25.805,7.274-32.93-2.244
				c-7.126-9.52-3.936-23.948,7.126-32.228C276.384,375.83,291.127,376.835,298.252,386.354z"/>
			<polygon style="fill:#5B42C4;" points="184.686,452.174 182.938,445.183 240.367,353.046 244.612,358.04 			"/>
			<polygon style="fill:#5B42C4;" points="240.367,353.046 355.725,353.296 359.72,357.291 244.612,358.04 			"/>
		</g>
		<g>
			<path style="fill:#78BCF9;" d="M147.356,398.454l-1.065,2.099l-9.019,17.671c0,0-1.345,2.831-6.188,3.368
				c-4.843,0.539-10.762-0.935-22.062-6.316c-11.3-5.382-29.327-15.207-35.655-37.129c-0.517-1.787-0.925-3.627-1.248-5.489v-0.032
				c-3.552-20.985,5.23-45.534,20.835-47.029c2.96-0.28,8.933-0.055,15.799,4.52c6.855,4.574,5.779,13.593,5.65,21.524
				c-0.14,7.932,3.229,23.278,9.147,28.25c5.919,4.972,10.622,7.124,16.272,9.148C145.473,391.06,147.356,398.454,147.356,398.454z"
				/>
			<path style="fill:#639AEA;" d="M146.291,400.553l-9.019,17.671c0,0-1.345,2.831-6.188,3.368
				c-4.843,0.539-10.762-0.935-22.062-6.316c-11.3-5.382-29.327-15.207-35.655-37.129c-0.517-1.787-0.925-3.627-1.248-5.489
				c3.325,8.632,9.051,16.843,21.513,27.572c16.336,14.066,35.611,17.467,35.611,17.467s0.226-1.582,0.452-5.22
				c0.237-3.627,2.045-8.395,7.265-11.343C139.845,399.509,143.547,399.886,146.291,400.553z"/>
			<path style="fill:#4E97D8;" d="M156.856,402.56c0,0-7.878-4.754-11.001-5.297c-3.124-0.543-8.964,4.753-10.458,10.05
				c-1.494,5.297-1.358,11.681-0.408,13.31c0.951,1.63,8.828,4.482,11.272,4.482c2.445,0,5.704-4.074,9.235-11.001
				C159.029,407.177,159.165,404.461,156.856,402.56z"/>
			<path style="fill:#254CAD;" d="M156.085,408.022c-0.215,1.657-1.862,4.53-3.713,8.523c-0.98,2.12-1.969,3.573-2.831,4.455
				c-1.399,1.442-2.475,1.399-2.733,0.302c-0.129-0.581-0.107-1.335,0.054-2.228c0.344-1.841,1.249-4.272,2.529-7.006
				c1.248-2.681,2.637-4.768,4.057-5.489c0.732-0.388,1.464-0.398,2.184,0.054C156.052,406.902,156.181,407.365,156.085,408.022z"/>
			<path style="fill:#FFB1AE;" d="M177.63,427.274c0,0,0.689,1.905,0.549,3.261c-0.14,1.356-1.227,2.034-1.227,2.034
				s0.409,0.818,0.549,1.765c0.129,0.958-0.678,1.227-0.678,1.227s-0.678,1.904-2.174,2.034c-1.496,0.14-2.443-2.981-5.973-5.295
				c-3.54-2.304-8.695-3.121-11.688-4.757c-2.981-1.625-2.712-1.895-5.026-4.337c-0.764-0.808-1.625-1.56-2.421-2.207
				c-0.462-0.365-0.904-0.699-1.302-0.99c-0.592-0.43-1.077-0.753-1.378-0.936c0.344-1.841,1.249-4.272,2.529-7.006
				c1.248-2.681,2.637-4.768,4.057-5.489c0.377,0.216,0.839,0.474,1.324,0.743c0.42,0.226,0.872,0.473,1.313,0.699
				c0.215,0.107,0.441,0.215,0.656,0.323c0.851,0.408,1.626,0.753,2.152,0.871c1.765,0.409,4.208,0.409,5.973,0.947
				c1.765,0.549,4.488,2.034,6.382,3.121c1.905,1.087,3.261,2.453,5.575,2.991c0.086,0.022,0.162,0.044,0.226,0.065
				c1.905,0.646-0.366,2.787-0.366,2.787s1.356,1.496,1.765,3.939C178.857,425.51,177.63,427.274,177.63,427.274z"/>
			<path style="fill:#E57F90;" d="M167.889,414.095c0,0,4.625,1.989,6.116,3.083c1.492,1.095,2.678,1.95,2.678,1.95
				s-0.042-0.757-0.539-1.204c-0.497-0.447-2.835-2.039-4.425-2.834C170.127,414.294,167.889,414.095,167.889,414.095z"/>
			<path style="fill:#E57F90;" d="M177.63,427.274c0,0-0.591-2.688-1.138-3.98c-0.547-1.293-3.331-2.934-3.331-2.934
				s2.635,0.846,3.381,1.939C177.287,423.394,177.63,427.274,177.63,427.274z"/>
			<path style="fill:#E57F90;" d="M176.952,432.569c0,0-1.007-4.452-1.555-6.143c-0.547-1.69-4.326-3.779-4.326-3.779
				s2.437,0.646,3.68,1.74c1.243,1.095,1.591,3.133,1.79,4.128C176.74,429.51,176.952,432.569,176.952,432.569z"/>
			<path style="fill:#E57F90;" d="M176.823,435.561c0,0-0.027-0.058-0.077-0.163c-0.411-0.855-2.373-4.842-3.834-6.038
				c-1.641-1.343-5.669-3.928-5.669-3.928s3.879,1.74,5.619,3.132c1.74,1.392,2.635,3.282,3.083,4.226"/>
			<path style="fill:#E57F90;" d="M156.741,408.345c-0.721,0.247-3.25,1.27-5.854,4.207c-2.561,2.885-2.69,6.35-2.647,7.458
				c-0.592-0.43-1.077-0.753-1.378-0.936c0.344-1.841,1.249-4.272,2.529-7.006c1.248-2.681,2.637-4.768,4.057-5.489
				c0.377,0.216,0.839,0.474,1.324,0.743c0.42,0.226,0.872,0.473,1.313,0.699C156.3,408.129,156.526,408.236,156.741,408.345z"/>
		</g>
		<g>
			<path style="fill:#5B42C4;" d="M157.566,358.434c-0.177,0-0.358-0.044-0.524-0.137c-15.81-8.846-27.081-25.502-29.413-43.468
				c-0.734-5.658,0.111-9.694,2.587-12.339c0.406-0.434,1.087-0.455,1.521-0.05c0.434,0.406,0.456,1.087,0.05,1.522
				c-2.008,2.145-2.67,5.609-2.023,10.59c2.246,17.304,13.102,33.347,28.33,41.866c0.519,0.29,0.704,0.946,0.413,1.465
				C158.31,358.235,157.944,358.434,157.566,358.434z"/>
			<path style="fill:#5B42C4;" d="M162.556,357.969c-0.098,0-0.198-0.014-0.296-0.041c-0.571-0.164-0.902-0.76-0.739-1.331
				c4.855-16.986,3.148-35.811-4.684-51.646c-0.264-0.533-0.045-1.179,0.487-1.442c0.533-0.265,1.179-0.045,1.442,0.487
				c8.066,16.31,9.825,35.697,4.824,53.191C163.455,357.66,163.024,357.969,162.556,357.969z"/>
			<path style="fill:#EEF8FF;" d="M166.899,390.979h-13.724c-1.932,0-3.512-1.581-3.512-3.513V360.86
				c0-1.932,1.58-3.512,3.512-3.512h13.724c1.932,0,3.512,1.58,3.512,3.512v26.606C170.411,389.398,168.831,390.979,166.899,390.979
				z"/>
		</g>
	</g>
	<g>
		<path style="fill:#91C5CE;" d="M379.263,94.175v5.591h-33.565v-5.591c0-3.299,2.702-6.001,6.01-6.001h21.544
			C376.552,88.174,379.263,90.876,379.263,94.175z"/>
		<path style="fill:#BDE2EA;" d="M393.881,66.369c0,17.343-14.059,31.402-31.402,31.402c-17.343,0-31.401-14.059-31.401-31.402
			c0-17.343,14.059-31.402,31.401-31.402C379.822,34.967,393.881,49.026,393.881,66.369z"/>
		<path style="fill:#BDE2EA;" d="M379.263,94.175v5.591h-33.565v-5.591c0-3.299,2.702-6.001,6.01-6.001h21.544
			C376.552,88.174,379.263,90.876,379.263,94.175z"/>
		<g>
			
				<line style="fill:none;stroke:#EDFBFC;stroke-width:3;stroke-linecap:round;stroke-miterlimit:10;" x1="354.051" y1="99.767" x2="354.051" y2="78.511"/>
			
				<line style="fill:none;stroke:#EDFBFC;stroke-width:3;stroke-linecap:round;stroke-miterlimit:10;" x1="373.074" y1="99.767" x2="373.074" y2="78.511"/>
			
				<ellipse style="fill:none;stroke:#EDFBFC;stroke-width:3;stroke-linecap:round;stroke-miterlimit:10;" cx="354.628" cy="72.938" rx="3.07" ry="5.573"/>
			<path style="fill:none;stroke:#EDFBFC;stroke-width:3;stroke-linecap:round;stroke-miterlimit:10;" d="M363.78,72.938
				c0,3.078-1.374,5.573-3.07,5.573c-1.695,0-3.07-2.495-3.07-5.573s1.375-5.573,3.07-5.573
				C362.406,67.364,363.78,69.859,363.78,72.938z"/>
			
				<ellipse style="fill:none;stroke:#EDFBFC;stroke-width:3;stroke-linecap:round;stroke-miterlimit:10;" cx="366.793" cy="72.938" rx="3.07" ry="5.573"/>
			
				<ellipse style="fill:none;stroke:#EDFBFC;stroke-width:3;stroke-linecap:round;stroke-miterlimit:10;" cx="372.876" cy="72.938" rx="3.07" ry="5.573"/>
		</g>
		<path style="fill:#91C5CE;" d="M363.628,125.7h-2.298c-2.578,0-4.688-2.109-4.688-4.688v-2.297c0-2.578,2.109-4.688,4.688-4.688
			h2.298c2.578,0,4.688,2.109,4.688,4.688v2.297C368.315,123.59,366.206,125.7,363.628,125.7z"/>
		<path style="fill:#91C5CE;" d="M379.263,99.767v11.253c0,6.982-5.716,12.698-12.69,12.698h-8.185
			c-6.982,0-12.69-5.716-12.69-12.698V99.767H379.263z"/>
	</g>
	<g>
		<path style="fill:#91C5CE;" d="M240.397,40.737h-7.961c-1.361,0-2.475-1.114-2.475-2.475V24.426c0-1.361,1.114-2.476,2.475-2.476
			h7.961c1.361,0,2.476,1.114,2.476,2.476v13.835C242.873,39.623,241.759,40.737,240.397,40.737z"/>
		<path style="fill:#91C5CE;" d="M250.852,48.788l-5.629-5.629c-0.963-0.963-0.963-2.538,0-3.5l9.783-9.783
			c0.962-0.963,2.538-0.963,3.5,0l5.63,5.629c0.962,0.962,0.962,2.538,0,3.501l-9.783,9.783
			C253.391,49.75,251.815,49.75,250.852,48.788z"/>
		<path style="fill:#91C5CE;" d="M252.553,61.874v-7.961c0-1.361,1.114-2.475,2.476-2.475h13.835c1.361,0,2.476,1.114,2.476,2.475
			v7.961c0,1.361-1.114,2.476-2.476,2.476h-13.835C253.667,64.349,252.553,63.235,252.553,61.874z"/>
		<path style="fill:#91C5CE;" d="M244.501,72.329l5.629-5.629c0.963-0.963,2.538-0.963,3.501,0l9.783,9.783
			c0.962,0.962,0.962,2.538,0,3.5l-5.63,5.629c-0.963,0.962-2.538,0.962-3.5,0l-9.784-9.783
			C243.539,74.867,243.539,73.291,244.501,72.329z"/>
		<path style="fill:#91C5CE;" d="M231.416,74.029h7.961c1.361,0,2.475,1.114,2.475,2.476v13.835c0,1.361-1.114,2.476-2.475,2.476
			h-7.961c-1.362,0-2.476-1.114-2.476-2.476V76.504C228.94,75.143,230.054,74.029,231.416,74.029z"/>
		<path style="fill:#91C5CE;" d="M220.961,65.978l5.629,5.629c0.963,0.963,0.963,2.538,0,3.501l-9.783,9.783
			c-0.963,0.963-2.538,0.963-3.501,0l-5.629-5.629c-0.963-0.963-0.963-2.538,0-3.501l9.783-9.783
			C218.423,65.015,219.998,65.015,220.961,65.978z"/>
		<path style="fill:#91C5CE;" d="M219.261,52.892v7.961c0,1.361-1.114,2.475-2.475,2.475H202.95c-1.362,0-2.476-1.114-2.476-2.475
			v-7.961c0-1.361,1.114-2.476,2.476-2.476h13.835C218.147,50.417,219.261,51.531,219.261,52.892z"/>
		<path style="fill:#91C5CE;" d="M227.311,42.437l-5.629,5.629c-0.963,0.963-2.538,0.963-3.501,0l-9.783-9.783
			c-0.963-0.963-0.963-2.538,0-3.501l5.629-5.629c0.963-0.963,2.538-0.963,3.501,0l9.783,9.783
			C228.274,39.899,228.274,41.474,227.311,42.437z"/>
		<circle style="fill:#91C5CE;" cx="235.907" cy="57.383" r="26.143"/>
		<path style="fill:#BDE2EA;" d="M258.832,57.383c0,12.661-10.264,22.925-22.925,22.925c-12.661,0-22.925-10.264-22.925-22.925
			s10.264-22.925,22.925-22.925C248.568,34.458,258.832,44.722,258.832,57.383z"/>
		<path style="fill:#91C5CE;" d="M246.077,57.383c0,5.617-4.553,10.171-10.17,10.171c-5.617,0-10.17-4.554-10.17-10.171
			s4.553-10.17,10.17-10.17C241.524,47.212,246.077,51.766,246.077,57.383z"/>
		<circle style="fill:#FFFFFF;" cx="235.907" cy="57.383" r="6.966"/>
		<path style="fill:#FFFFFF;" d="M239.354,41.628c0,1.904-1.544,3.447-3.448,3.447c-1.904,0-3.448-1.543-3.448-3.447
			c0-1.904,1.543-3.448,3.448-3.448C237.811,38.18,239.354,39.724,239.354,41.628z"/>
		<path style="fill:#FFFFFF;" d="M249.485,48.68c-1.347,1.346-3.529,1.346-4.876,0c-1.346-1.347-1.346-3.529,0-4.876
			c1.347-1.346,3.529-1.346,4.876,0C250.831,45.151,250.831,47.333,249.485,48.68z"/>
		<path style="fill:#FFFFFF;" d="M251.662,60.831c-1.904,0-3.448-1.543-3.448-3.448c0-1.904,1.543-3.448,3.448-3.448
			s3.447,1.544,3.447,3.448C255.109,59.287,253.566,60.831,251.662,60.831z"/>
		<path style="fill:#FFFFFF;" d="M244.609,70.961c-1.346-1.346-1.346-3.529,0-4.876c1.347-1.347,3.529-1.347,4.876,0
			c1.346,1.346,1.346,3.529,0,4.876C248.139,72.308,245.956,72.308,244.609,70.961z"/>
		<path style="fill:#FFFFFF;" d="M232.459,73.138c0-1.904,1.543-3.448,3.448-3.448c1.904,0,3.448,1.544,3.448,3.448
			c0,1.904-1.544,3.448-3.448,3.448C234.002,76.586,232.459,75.042,232.459,73.138z"/>
		<path style="fill:#FFFFFF;" d="M222.328,66.086c1.347-1.347,3.529-1.347,4.876,0c1.346,1.346,1.346,3.529,0,4.876
			c-1.347,1.346-3.529,1.346-4.876,0C220.982,69.615,220.982,67.432,222.328,66.086z"/>
		<path style="fill:#FFFFFF;" d="M220.151,53.935c1.904,0,3.448,1.544,3.448,3.448c0,1.904-1.543,3.448-3.448,3.448
			c-1.904,0-3.447-1.543-3.447-3.448C216.704,55.479,218.248,53.935,220.151,53.935z"/>
		<path style="fill:#FFFFFF;" d="M227.204,43.804c1.346,1.347,1.346,3.529,0,4.876c-1.347,1.346-3.529,1.346-4.876,0
			c-1.346-1.347-1.346-3.529,0-4.876C223.675,42.458,225.857,42.458,227.204,43.804z"/>
	</g>
	<g>
		<path style="fill:#91C5CE;" d="M187.822,77.868h-4.576c-1.361,0-2.476-1.114-2.476-2.476v-8.91c0-1.362,1.114-2.476,2.476-2.476
			h4.576c1.361,0,2.475,1.114,2.475,2.476v8.91C190.297,76.754,189.184,77.868,187.822,77.868z"/>
		<path style="fill:#91C5CE;" d="M195.727,83.35l-3.236-3.236c-0.962-0.962-0.962-2.538,0-3.501l6.301-6.301
			c0.962-0.963,2.538-0.963,3.501,0l3.236,3.236c0.963,0.963,0.963,2.538,0,3.5l-6.301,6.301
			C198.265,84.313,196.689,84.313,195.727,83.35z"/>
		<path style="fill:#91C5CE;" d="M197.439,92.815v-4.576c0-1.361,1.114-2.476,2.475-2.476h8.911c1.361,0,2.475,1.114,2.475,2.476
			v4.576c0,1.361-1.114,2.475-2.475,2.475h-8.911C198.554,95.29,197.439,94.176,197.439,92.815z"/>
		<path style="fill:#91C5CE;" d="M191.958,100.719l3.236-3.236c0.963-0.962,2.538-0.962,3.501,0l6.3,6.301
			c0.963,0.962,0.963,2.538,0,3.5l-3.236,3.236c-0.962,0.963-2.538,0.963-3.501,0l-6.301-6.301
			C190.996,103.257,190.996,101.682,191.958,100.719z"/>
		<path style="fill:#91C5CE;" d="M182.493,102.433h4.576c1.361,0,2.476,1.114,2.476,2.475v8.911c0,1.361-1.114,2.475-2.476,2.475
			h-4.576c-1.361,0-2.475-1.114-2.475-2.475v-8.911C180.018,103.546,181.131,102.433,182.493,102.433z"/>
		<path style="fill:#91C5CE;" d="M174.588,96.951l3.236,3.236c0.963,0.963,0.963,2.538,0,3.501l-6.3,6.3
			c-0.963,0.963-2.538,0.963-3.501,0l-3.236-3.236c-0.962-0.962-0.962-2.538,0-3.5l6.301-6.301
			C172.051,95.988,173.626,95.988,174.588,96.951z"/>
		<path style="fill:#91C5CE;" d="M172.875,87.485v4.576c0,1.361-1.114,2.476-2.476,2.476h-8.91c-1.362,0-2.476-1.114-2.476-2.476
			v-4.576c0-1.361,1.114-2.475,2.476-2.475h8.91C171.762,85.01,172.875,86.124,172.875,87.485z"/>
		<path style="fill:#91C5CE;" d="M178.357,79.581l-3.236,3.236c-0.962,0.963-2.538,0.963-3.501,0l-6.301-6.3
			c-0.963-0.963-0.963-2.538,0-3.501l3.236-3.236c0.962-0.962,2.538-0.962,3.501,0l6.301,6.301
			C179.32,77.044,179.32,78.619,178.357,79.581z"/>
		<path style="fill:#91C5CE;" d="M204.447,90.15c0,10.653-8.636,19.29-19.29,19.29c-10.654,0-19.29-8.636-19.29-19.29
			c0-10.654,8.636-19.29,19.29-19.29C195.811,70.86,204.447,79.497,204.447,90.15z"/>
		<circle style="fill:#BDE2EA;" cx="185.158" cy="90.15" r="16.915"/>
		<circle style="fill:#91C5CE;" cx="185.158" cy="90.15" r="7.504"/>
		<path style="fill:#FFFFFF;" d="M190.297,90.15c0,2.838-2.301,5.14-5.14,5.14c-2.839,0-5.14-2.301-5.14-5.14
			c0-2.839,2.301-5.14,5.14-5.14C187.996,85.01,190.297,87.312,190.297,90.15z"/>
		<path style="fill:#FFFFFF;" d="M187.701,78.525c0,1.405-1.139,2.544-2.544,2.544c-1.405,0-2.544-1.139-2.544-2.544
			s1.139-2.544,2.544-2.544C186.563,75.981,187.701,77.121,187.701,78.525z"/>
		<path style="fill:#FFFFFF;" d="M195.176,83.729c-0.993,0.993-2.604,0.993-3.597,0c-0.994-0.994-0.994-2.604,0-3.598
			c0.993-0.993,2.604-0.993,3.597,0C196.17,81.125,196.17,82.735,195.176,83.729z"/>
		<path style="fill:#FFFFFF;" d="M196.783,92.694c-1.405,0-2.544-1.139-2.544-2.544c0-1.405,1.139-2.544,2.544-2.544
			c1.405,0,2.544,1.139,2.544,2.544C199.326,91.555,198.188,92.694,196.783,92.694z"/>
		<path style="fill:#FFFFFF;" d="M191.579,100.169c-0.994-0.993-0.994-2.604,0-3.597c0.993-0.994,2.604-0.994,3.597,0
			c0.994,0.993,0.994,2.604,0,3.597C194.183,101.163,192.572,101.163,191.579,100.169z"/>
		<path style="fill:#FFFFFF;" d="M182.614,101.775c0-1.405,1.139-2.544,2.544-2.544c1.405,0,2.544,1.139,2.544,2.544
			c0,1.405-1.139,2.543-2.544,2.543C183.752,104.319,182.614,103.18,182.614,101.775z"/>
		<path style="fill:#FFFFFF;" d="M175.139,96.572c0.994-0.994,2.604-0.994,3.598,0c0.993,0.993,0.993,2.604,0,3.597
			c-0.994,0.994-2.604,0.994-3.598,0C174.145,99.176,174.145,97.565,175.139,96.572z"/>
		<path style="fill:#FFFFFF;" d="M173.533,87.606c1.405,0,2.544,1.139,2.544,2.544c0,1.405-1.139,2.544-2.544,2.544
			s-2.544-1.139-2.544-2.544C170.989,88.745,172.128,87.606,173.533,87.606z"/>
		<path style="fill:#FFFFFF;" d="M178.736,80.131c0.993,0.994,0.993,2.604,0,3.598c-0.994,0.993-2.604,0.993-3.598,0
			c-0.993-0.994-0.993-2.604,0-3.598C176.132,79.138,177.743,79.138,178.736,80.131z"/>
	</g>
	<g>
		<path style="fill:#91C5CE;" d="M92.792,189.083l-19.789-7.546l36.096-94.648c1.175-3.08,4.624-4.625,7.704-3.45l8.635,3.293
			c3.08,1.175,4.625,4.624,3.45,7.704L92.792,189.083z"/>
		
			<rect x="52.671" y="136.353" transform="matrix(0.3563 -0.9344 0.9344 0.3563 -68.0203 184.1259)" style="fill:#BDE2EA;" width="93.918" height="10.159"/>
		<polygon style="fill:#BDE2EA;" points="92.794,189.083 79.936,198.823 76.856,201.159 76.107,197.363 73,181.535 		"/>
		<path style="fill:#91C5CE;" d="M79.936,198.823l-3.079,2.336l-0.749-3.796c0.734-0.343,1.521-0.41,2.248-0.133
			C79.081,197.508,79.623,198.082,79.936,198.823z"/>
		
			<rect x="108.757" y="92.532" transform="matrix(0.3563 -0.9344 0.9344 0.3563 -22.8224 173.1197)" style="fill:#FFFFFF;" width="10.965" height="21.184"/>
	</g>
</g>
</svg>
