<?xml version="1.0" encoding="utf-8"?>
<!-- Generator: Adobe Illustrator 27.5.0, SVG Export Plug-In . SVG Version: 6.00 Build 0)  -->
<svg version="1.1" id="Layer_1" xmlns="http://www.w3.org/2000/svg" xmlns:xlink="http://www.w3.org/1999/xlink" x="0px" y="0px"
	 viewBox="0 0 450 450" style="enable-background:new 0 0 450 450;" xml:space="preserve">
<g>
	<polygon style="fill:#D1D2EC;" points="317.866,363.11 142.107,384.228 90.603,241.335 266.362,220.218 	"/>
	<polygon style="fill:#E6E6F0;" points="358.478,314.192 277.238,390.058 92.211,324.01 173.451,248.144 	"/>
	<g>
		<path style="fill:#1D1D1D;" d="M261.818,192.683l2.795-0.727c0.215,0.062,0.27,0.118,0.312,0.183
			c0.065,0.132,0.076,0.164,0.083,0.196c0.007,0.153-0.021,0.209-0.064,0.234l-1.935,1.903c-0.082-0.1-0.06-0.148-0.06-0.217
			c0-0.115-0.024-0.233-0.054-0.352c-0.011-0.041-0.023-0.079-0.037-0.12c-0.028-0.084-0.066-0.167-0.108-0.247
			c-0.024-0.044-0.044-0.09-0.071-0.133c-0.049-0.081-0.106-0.153-0.165-0.224c-0.029-0.036-0.054-0.074-0.086-0.106
			c-0.094-0.096-0.196-0.184-0.303-0.245c-0.108-0.064-0.211-0.094-0.306-0.106V192.683z"/>
		<g>
			<g style="enable-background:new    ;">
				<g style="enable-background:new    ;">
					<defs>
						<path id="SVGID_1_" style="enable-background:new    ;" d="M261.806,192.691l-9.527,2.506c0.469-0.273,1.12-0.234,1.836,0.178
							l8.243-2.63C262.141,192.621,261.947,192.61,261.806,192.691z"/>
					</defs>
					<use xlink:href="#SVGID_1_"  style="overflow:visible;fill:#C6A899;"/>
					<clipPath id="SVGID_00000097461890884304601200000005716812186960222863_">
						<use xlink:href="#SVGID_1_"  style="overflow:visible;"/>
					</clipPath>
					<g style="clip-path:url(#SVGID_00000097461890884304601200000005716812186960222863_);enable-background:new    ;">
						<path style="fill:#DED0C8;" d="M254.114,195.376l8.243-2.63c-0.019-0.01-8.307,2.595-8.307,2.595L254.114,195.376z"/>
						<path style="fill:#C6A899;" d="M254.049,195.34l8.289-2.605c-0.093-0.052-0.182-0.082-0.265-0.091l-8.902,2.393
							C253.445,195.071,253.742,195.17,254.049,195.34z"/>
						<path style="fill:#C6A899;" d="M253.172,195.037l8.902-2.393c-0.072-0.01-0.141-0.003-0.202,0.017l-9.371,2.435
							C252.7,195.027,252.928,195.005,253.172,195.037z"/>
						<path style="fill:#C6A899;" d="M252.5,195.096l9.371-2.435c-0.065,0.03-9.593,2.536-9.593,2.536
							C252.348,195.157,252.422,195.123,252.5,195.096z"/>
					</g>
				</g>
				<g style="enable-background:new    ;">
					<defs>
						<path id="SVGID_00000088128541441763386100000009132692856261213110_" style="enable-background:new    ;" d="
							M255.932,201.473l6.971-6.899c0.138-0.079,0.224-0.251,0.224-0.494c0.002-0.492-0.344-1.089-0.77-1.335l-8.243,2.63
							c1.419,0.821,2.573,2.811,2.568,4.451C256.681,200.636,256.394,201.206,255.932,201.473z"/>
					</defs>
					<use xlink:href="#SVGID_00000088128541441763386100000009132692856261213110_"  style="overflow:visible;fill:#C6A899;"/>
					<clipPath id="SVGID_00000167372461213926161700000011165844149008354477_">
						<use xlink:href="#SVGID_00000088128541441763386100000009132692856261213110_"  style="overflow:visible;"/>
					</clipPath>
					<g style="clip-path:url(#SVGID_00000167372461213926161700000011165844149008354477_);enable-background:new    ;">
						<path style="fill:#C6A899;" d="M255.932,201.473l6.971-6.899c0.138-0.079,0.224-0.251,0.224-0.494
							c0-0.076-0.008-0.157-0.023-0.236l-6.5,5.192c0.052,0.268,0.081,0.534,0.079,0.791
							C256.681,200.636,256.394,201.206,255.932,201.473z"/>
						<path style="fill:#DED0C8;" d="M256.603,199.036l6.5-5.192c-0.019-0.099-0.051-0.199-0.089-0.296l-6.711,4.501
							C256.436,198.376,256.539,198.708,256.603,199.036z"/>
						<path style="fill:#E9DFD8;" d="M256.303,198.049l6.711-4.501c-0.046-0.11-0.101-0.216-0.165-0.315l-7.097,3.77
							C255.969,197.332,256.155,197.688,256.303,198.049z"/>
						<path style="fill:#DED0C8;" d="M255.752,197.002l7.097-3.77c-0.135-0.204-0.305-0.379-0.492-0.487l-8.243,2.63
							C254.736,195.735,255.307,196.32,255.752,197.002z"/>
					</g>
				</g>
				<g>
					<path style="fill:#DED0C8;" d="M254.114,195.376c-1.421-0.821-2.583-0.165-2.587,1.475c-0.005,1.631,1.149,3.624,2.57,4.443
						c1.419,0.821,2.582,0.167,2.585-1.466C256.687,198.187,255.533,196.197,254.114,195.376z"/>
				</g>
			</g>
		</g>
		<g>
			<g style="enable-background:new    ;">
				<g style="enable-background:new    ;">
					<defs>
						<path id="SVGID_00000103227605468128532330000010638903996989846920_" style="enable-background:new    ;" d="
							M252.299,195.194l-65.34,37.971c0.468-0.271,1.114-0.234,1.827,0.177l65.34-37.971
							C253.413,194.96,252.766,194.923,252.299,195.194z"/>
					</defs>
					<use xlink:href="#SVGID_00000103227605468128532330000010638903996989846920_"  style="overflow:visible;fill:#564750;"/>
					<clipPath id="SVGID_00000113313744515558752010000008511057902289972371_">
						<use xlink:href="#SVGID_00000103227605468128532330000010638903996989846920_"  style="overflow:visible;"/>
					</clipPath>
					<g style="clip-path:url(#SVGID_00000113313744515558752010000008511057902289972371_);enable-background:new    ;">
						<path style="fill:#7977ED;" d="M188.785,233.342l65.34-37.971c-0.062-0.036-65.403,37.936-65.403,37.936L188.785,233.342z"/>
						<path style="fill:#564750;" d="M188.723,233.307l65.34-37.971c-0.309-0.168-0.602-0.268-0.873-0.301l-65.34,37.971
							C188.121,233.038,188.416,233.138,188.723,233.307z"/>
						<path style="fill:#564750;" d="M187.85,233.005l65.34-37.971c-0.244-0.031-0.47-0.01-0.671,0.059l-65.34,37.971
							C187.381,232.995,187.607,232.973,187.85,233.005z"/>
						<path style="fill:#564750;" d="M187.179,233.064l65.34-37.971c-0.078,0.027-0.152,0.061-0.221,0.101l-65.34,37.971
							C187.029,233.125,187.102,233.091,187.179,233.064z"/>
					</g>
				</g>
				<g style="enable-background:new    ;">
					<defs>
						<path id="SVGID_00000052807284562954852090000006978125751474974596_" style="enable-background:new    ;" d="
							M190.604,239.446l65.338-37.97c0.464-0.269,0.75-0.842,0.752-1.654c0.005-1.633-1.141-3.627-2.568-4.451l-65.34,37.971
							c1.427,0.824,2.575,2.818,2.57,4.451C191.354,238.605,191.067,239.178,190.604,239.446z"/>
					</defs>
					<use xlink:href="#SVGID_00000052807284562954852090000006978125751474974596_"  style="overflow:visible;fill:#564750;"/>
					<clipPath id="SVGID_00000147220561503359330520000010078764660996531391_">
						<use xlink:href="#SVGID_00000052807284562954852090000006978125751474974596_"  style="overflow:visible;"/>
					</clipPath>
					<g style="clip-path:url(#SVGID_00000147220561503359330520000010078764660996531391_);enable-background:new    ;">
						<path style="fill:#322A89;" d="M190.604,239.446l65.338-37.97c0.464-0.269,0.75-0.842,0.752-1.654
							c0.002-0.256-0.027-0.521-0.079-0.789l-65.339,37.971c0.052,0.268,0.079,0.533,0.079,0.788
							C191.354,238.605,191.067,239.178,190.604,239.446z"/>
						<path style="fill:#322A89;" d="M191.276,237.004l65.339-37.971c-0.064-0.328-0.167-0.663-0.3-0.989l-65.338,37.971
							C191.109,236.342,191.212,236.676,191.276,237.004z"/>
						<path style="fill:#564750;" d="M190.977,236.015l65.338-37.971c-0.148-0.362-0.334-0.717-0.551-1.049l-65.338,37.972
							C190.641,235.299,190.828,235.652,190.977,236.015z"/>
						<path style="fill:#7977ED;" d="M190.425,234.967l65.338-37.972c-0.443-0.679-1.014-1.264-1.638-1.624l-65.34,37.971
							C189.41,233.703,189.98,234.287,190.425,234.967z"/>
					</g>
				</g>
				<g>
					<path style="fill:#7977ED;" d="M188.785,233.342c-1.421-0.821-2.575-0.155-2.58,1.478c-0.003,1.633,1.144,3.627,2.564,4.448
						c1.427,0.824,2.582,0.158,2.587-1.475C191.361,236.16,190.213,234.166,188.785,233.342z"/>
				</g>
			</g>
		</g>
		<g>
			<g style="enable-background:new    ;">
				<g style="enable-background:new    ;">
					<defs>
						<path id="SVGID_00000013153041900058717170000013673833607646483336_" style="enable-background:new    ;" d="M186.95,233.163
							l-7.987,4.641c0.468-0.271,1.117-0.232,1.837,0.182l7.985-4.641C188.068,232.931,187.418,232.892,186.95,233.163z"/>
					</defs>
					<use xlink:href="#SVGID_00000013153041900058717170000013673833607646483336_"  style="overflow:visible;fill:#322A89;"/>
					<clipPath id="SVGID_00000062891689647637213260000016982784952864257430_">
						<use xlink:href="#SVGID_00000013153041900058717170000013673833607646483336_"  style="overflow:visible;"/>
					</clipPath>
					<g style="clip-path:url(#SVGID_00000062891689647637213260000016982784952864257430_);enable-background:new    ;">
						<path style="fill:#322A89;" d="M180.8,237.987l7.985-4.641c-0.064-0.035-8.049,4.606-8.049,4.606L180.8,237.987z"/>
						<path style="fill:#1D1D1D;" d="M180.736,237.952l7.985-4.642c-0.31-0.17-0.607-0.272-0.882-0.305l-7.985,4.641
							C180.128,237.68,180.426,237.781,180.736,237.952z"/>
						<path style="fill:#1D1D1D;" d="M179.855,237.646l7.985-4.641c-0.242-0.032-0.469-0.01-0.671,0.059l-7.985,4.641
							C179.385,237.637,179.611,237.615,179.855,237.646z"/>
						<path style="fill:#322A89;" d="M179.184,237.705l7.985-4.641c-0.076,0.027-0.15,0.059-0.219,0.099l-7.987,4.641
							C179.033,237.764,179.107,237.73,179.184,237.705z"/>
					</g>
				</g>
				<g style="enable-background:new    ;">
					<defs>
						<path id="SVGID_00000029028717941512948520000000280952476753948346_" style="enable-background:new    ;" d="
							M182.619,244.084l7.987-4.641c0.462-0.268,0.748-0.838,0.75-1.647c0.005-1.64-1.149-3.63-2.57-4.451l-7.985,4.641
							c1.421,0.821,2.574,2.811,2.568,4.451C183.367,243.246,183.081,243.816,182.619,244.084z"/>
					</defs>
					<use xlink:href="#SVGID_00000029028717941512948520000000280952476753948346_"  style="overflow:visible;fill:#322A89;"/>
					<clipPath id="SVGID_00000011005154413098446890000008301004452895112323_">
						<use xlink:href="#SVGID_00000029028717941512948520000000280952476753948346_"  style="overflow:visible;"/>
					</clipPath>
					<g style="clip-path:url(#SVGID_00000011005154413098446890000008301004452895112323_);enable-background:new    ;">
						<path style="fill:#1D1D1D;" d="M182.619,244.084l7.987-4.641c0.462-0.268,0.748-0.838,0.75-1.647
							c0-0.256-0.027-0.521-0.079-0.788l-7.986,4.64c0.052,0.268,0.081,0.534,0.079,0.79
							C183.367,243.246,183.081,243.816,182.619,244.084z"/>
						<path style="fill:#1D1D1D;" d="M183.29,241.647l7.986-4.64c-0.064-0.329-0.167-0.662-0.3-0.987l-7.987,4.641
							C183.123,240.987,183.225,241.319,183.29,241.647z"/>
						<path style="fill:#564750;" d="M182.99,240.661l7.987-4.641c-0.149-0.362-0.334-0.716-0.551-1.049l-7.985,4.641
							C182.656,239.945,182.843,240.299,182.99,240.661z"/>
						<path style="fill:#564750;" d="M182.44,239.613l7.985-4.641c-0.445-0.68-1.016-1.265-1.64-1.626l-7.985,4.641
							C181.423,238.347,181.996,238.932,182.44,239.613z"/>
					</g>
				</g>
				<g>
					<path style="fill:#322A89;" d="M180.8,237.987c-1.427-0.824-2.582-0.165-2.587,1.475c-0.005,1.631,1.143,3.618,2.57,4.443
						c1.421,0.82,2.582,0.167,2.585-1.467C183.374,240.798,182.221,238.808,180.8,237.987z"/>
				</g>
			</g>
		</g>
		<g>
			<g style="enable-background:new    ;">
				<g style="enable-background:new    ;">
					<defs>
						<path id="SVGID_00000029744562584083353000000003295684574079372212_" style="enable-background:new    ;" d="
							M178.871,238.312l-2.804,1.633c0.415-0.241,0.99-0.205,1.626,0.162l2.806-1.635
							C179.862,238.105,179.287,238.069,178.871,238.312z"/>
					</defs>
					<use xlink:href="#SVGID_00000029744562584083353000000003295684574079372212_"  style="overflow:visible;fill:#F37874;"/>
					<clipPath id="SVGID_00000179643682831825452570000017968870297358217372_">
						<use xlink:href="#SVGID_00000029744562584083353000000003295684574079372212_"  style="overflow:visible;"/>
					</clipPath>
					<g style="clip-path:url(#SVGID_00000179643682831825452570000017968870297358217372_);enable-background:new    ;">
						<path style="fill:#F37874;" d="M177.693,240.107l2.806-1.635c-0.057-0.032-2.861,1.602-2.861,1.602L177.693,240.107z"/>
						<path style="fill:#F37874;" d="M177.637,240.075l2.804-1.635c-0.275-0.149-0.538-0.239-0.781-0.269l-2.806,1.633
							C177.098,239.834,177.361,239.923,177.637,240.075z"/>
						<path style="fill:#F37874;" d="M176.855,239.803l2.806-1.633c-0.217-0.029-0.418-0.008-0.595,0.052l-2.806,1.633
							C176.439,239.795,176.639,239.777,176.855,239.803z"/>
						<path style="fill:#F37874;" d="M176.26,239.856l2.806-1.633c-0.069,0.024-0.133,0.052-0.195,0.089l-2.804,1.633
							C176.127,239.91,176.193,239.879,176.26,239.856z"/>
					</g>
				</g>
				<g style="enable-background:new    ;">
					<defs>
						<path id="SVGID_00000101794192936348026300000009170176104321031607_" style="enable-background:new    ;" d="M179.305,245.51
							l2.806-1.635c0.408-0.237,0.663-0.741,0.665-1.457c0.003-1.455-1.018-3.217-2.277-3.945l-2.806,1.635
							c1.259,0.726,2.282,2.491,2.279,3.943C179.968,244.768,179.715,245.272,179.305,245.51z"/>
					</defs>
					<use xlink:href="#SVGID_00000101794192936348026300000009170176104321031607_"  style="overflow:visible;fill:#F37874;"/>
					<clipPath id="SVGID_00000045582103797403574020000000451811821505978797_">
						<use xlink:href="#SVGID_00000101794192936348026300000009170176104321031607_"  style="overflow:visible;"/>
					</clipPath>
					<g style="clip-path:url(#SVGID_00000045582103797403574020000000451811821505978797_);enable-background:new    ;">
						<path style="fill:#F37874;" d="M179.305,245.51l2.806-1.635c0.408-0.237,0.663-0.741,0.665-1.457
							c0-0.228-0.024-0.464-0.071-0.702l-2.804,1.635c0.046,0.238,0.071,0.472,0.071,0.699
							C179.968,244.768,179.715,245.272,179.305,245.51z"/>
						<path style="fill:#F37874;" d="M179.901,243.351l2.804-1.635c-0.057-0.289-0.146-0.585-0.265-0.874l-2.806,1.635
							C179.752,242.765,179.843,243.059,179.901,243.351z"/>
						<path style="fill:#F37874;" d="M179.634,242.476l2.806-1.635c-0.131-0.321-0.296-0.634-0.488-0.927l-2.804,1.633
							C179.338,241.841,179.503,242.155,179.634,242.476z"/>
						<path style="fill:#F37874;" d="M179.147,241.548l2.804-1.633c-0.394-0.605-0.901-1.124-1.453-1.443l-2.806,1.635
							C178.246,240.425,178.753,240.944,179.147,241.548z"/>
					</g>
				</g>
				<g>
					<path style="fill:#F36B6B;" d="M177.693,240.107c-1.264-0.732-2.289-0.148-2.292,1.306c-0.003,1.446,1.013,3.207,2.277,3.937
						c1.259,0.728,2.288,0.148,2.293-1.3C179.975,242.598,178.952,240.833,177.693,240.107z"/>
				</g>
			</g>
		</g>
	</g>
	<g>
		<g>
			<g style="enable-background:new    ;">
				<g>
					<defs>
						<path id="SVGID_00000083807605726039353670000007684567824712404385_" d="M109.872,302.034l0.035,10.151
							c-0.015-4.475-2.997-8.938-8.932-12.315c-11.799-6.714-30.789-6.595-42.421,0.264c-5.782,3.409-8.659,7.839-8.644,12.257
							l-0.035-10.15c-0.015-4.419,2.862-8.849,8.643-12.257c11.633-6.859,30.622-6.979,42.422-0.265
							C106.875,293.096,109.857,297.559,109.872,302.034z"/>
					</defs>
					<use xlink:href="#SVGID_00000083807605726039353670000007684567824712404385_"  style="overflow:visible;fill:#322A89;"/>
					<clipPath id="SVGID_00000072252865532993729860000010643683458269121693_">
						<use xlink:href="#SVGID_00000083807605726039353670000007684567824712404385_"  style="overflow:visible;"/>
					</clipPath>
					<g style="clip-path:url(#SVGID_00000072252865532993729860000010643683458269121693_);enable-background:new    ;">
						<path style="fill:#181060;" d="M109.872,302.034l0.035,10.151c-0.015-4.475-2.997-8.938-8.932-12.315
							c-11.799-6.714-30.789-6.595-42.421,0.264c-5.782,3.409-8.659,7.839-8.644,12.257l-0.035-10.15
							c-0.015-4.419,2.862-8.849,8.643-12.257c11.633-6.859,30.622-6.979,42.422-0.265
							C106.875,293.096,109.857,297.559,109.872,302.034z"/>
					</g>
				</g>
				<g>
					<defs>
						<path id="SVGID_00000119819212666067222710000004123270639329192832_" d="M114.992,302.016l0.022,8.137
							c0.018,5.172-3.349,10.358-10.113,14.346c-13.62,8.03-35.854,8.173-49.664,0.315c-6.949-3.953-10.439-9.179-10.458-14.419
							l-0.022-8.136c0.018,5.24,3.51,10.466,10.458,14.42c13.809,7.857,36.043,7.714,49.663-0.316
							C111.643,312.374,115.009,307.188,114.992,302.016z"/>
					</defs>
					<use xlink:href="#SVGID_00000119819212666067222710000004123270639329192832_"  style="overflow:visible;fill:#322A89;"/>
					<clipPath id="SVGID_00000098909711096024236560000004768031104009205382_">
						<use xlink:href="#SVGID_00000119819212666067222710000004123270639329192832_"  style="overflow:visible;"/>
					</clipPath>
					<g style="clip-path:url(#SVGID_00000098909711096024236560000004768031104009205382_);enable-background:new    ;">
						<path style="fill:#322A89;" d="M114.992,302.016l0.022,8.137c0.018,5.172-3.349,10.358-10.113,14.346
							c-13.62,8.03-35.854,8.173-49.664,0.315c-6.949-3.953-10.439-9.179-10.458-14.419l-0.022-8.136
							c0.018,5.24,3.51,10.466,10.458,14.42c13.809,7.857,36.043,7.714,49.663-0.316
							C111.643,312.374,115.009,307.188,114.992,302.016z"/>
					</g>
				</g>
				<g>
					<path style="fill:#5654D6;" d="M104.535,287.599c13.81,7.857,13.958,20.735,0.343,28.763
						c-13.62,8.03-35.854,8.174-49.663,0.316c-13.809-7.858-13.963-20.739-0.342-28.769
						C68.487,279.882,90.726,279.742,104.535,287.599z M58.811,314.558c11.794,6.711,30.785,6.591,42.422-0.27
						c11.633-6.859,11.502-17.858-0.292-24.569c-11.8-6.714-30.789-6.594-42.422,0.265C46.88,296.845,47.011,307.844,58.811,314.558
						z"/>
				</g>
			</g>
		</g>
		<path style="opacity:0.4;fill:#D6D3EC;" d="M109.62,304.355c-0.833,3.616-3.629,7.121-8.39,9.93
			c-11.631,6.867-30.621,6.987-42.417,0.274c-4.897-2.786-7.784-6.302-8.655-9.954c0.825-3.625,3.621-7.129,8.39-9.938
			c11.632-6.86,30.622-6.979,42.425-0.266C105.862,297.187,108.748,300.702,109.62,304.355z"/>
		<g>
			<g style="enable-background:new    ;">
				<g style="enable-background:new    ;">
					<defs>
						<path id="SVGID_00000075150977960600158650000017924260900914093216_" style="enable-background:new    ;" d="
							M128.398,330.024l-21.87-12.609c-0.518-0.298-1.235-0.254-2.025,0.206l21.87,12.608
							C127.163,329.77,127.88,329.724,128.398,330.024z"/>
					</defs>
					<use xlink:href="#SVGID_00000075150977960600158650000017924260900914093216_"  style="overflow:visible;fill:#C5C8EE;"/>
					<clipPath id="SVGID_00000016790308997335025880000012616869118590479263_">
						<use xlink:href="#SVGID_00000075150977960600158650000017924260900914093216_"  style="overflow:visible;"/>
					</clipPath>
					<g style="clip-path:url(#SVGID_00000016790308997335025880000012616869118590479263_);enable-background:new    ;">
						<path style="fill:#C5C8EE;" d="M128.398,330.024l-21.87-12.609c-0.518-0.298-1.235-0.254-2.025,0.206l21.87,12.608
							C127.163,329.77,127.88,329.724,128.398,330.024z"/>
					</g>
				</g>
				<g style="enable-background:new    ;">
					<defs>
						<path id="SVGID_00000060723407889641339820000000241588010538006404_" style="enable-background:new    ;" d="
							M102.522,324.364l21.87,12.608c-0.511-0.296-0.831-0.926-0.836-1.823c-0.011-1.804,1.25-4.008,2.818-4.921l-21.87-12.608
							c-1.567,0.912-2.829,3.116-2.818,4.921C101.691,323.439,102.01,324.069,102.522,324.364z"/>
					</defs>
					<use xlink:href="#SVGID_00000060723407889641339820000000241588010538006404_"  style="overflow:visible;fill:#ACAFF1;"/>
					<clipPath id="SVGID_00000183965524607977356160000008722594191573949851_">
						<use xlink:href="#SVGID_00000060723407889641339820000000241588010538006404_"  style="overflow:visible;"/>
					</clipPath>
					<g style="clip-path:url(#SVGID_00000183965524607977356160000008722594191573949851_);">
						<path style="fill:#C5C8EE;" d="M123.556,335.15c-0.004-0.603,0.137-1.249,0.381-1.878l-21.864-12.624
							c-0.248,0.634-0.391,1.286-0.387,1.894c0.006,0.897,0.325,1.527,0.837,1.822l21.869,12.608
							C123.88,336.677,123.561,336.047,123.556,335.15z"/>
						<path style="fill:#E6E6F0;" d="M126.373,330.229l-21.87-12.608c-1.04,0.605-1.942,1.779-2.431,3.027l21.864,12.624
							C124.423,332.018,125.329,330.837,126.373,330.229z"/>
					</g>
				</g>
				<g>
					<path style="fill:#C5C8EE;" d="M126.373,330.229c-1.568,0.912-2.829,3.116-2.818,4.921c0.012,1.806,1.292,2.53,2.859,1.617
						c1.568-0.913,2.83-3.116,2.819-4.922C129.223,330.04,127.942,329.316,126.373,330.229z"/>
				</g>
			</g>
		</g>
		<g>
			<g style="enable-background:new    ;">
				<g style="enable-background:new    ;">
					<defs>
						<path id="SVGID_00000063620854632920770420000016380001267991357570_" style="enable-background:new    ;" d="
							M168.613,347.629l-48.148-25.948c-0.953-0.546-2.269-0.46-3.716,0.388l47.405,26.025
							C165.89,347.077,167.468,346.973,168.613,347.629z"/>
					</defs>
					<use xlink:href="#SVGID_00000063620854632920770420000016380001267991357570_"  style="overflow:visible;fill:#322A89;"/>
					<clipPath id="SVGID_00000118397076763225856060000013834916415426531259_">
						<use xlink:href="#SVGID_00000063620854632920770420000016380001267991357570_"  style="overflow:visible;"/>
					</clipPath>
					<g style="clip-path:url(#SVGID_00000118397076763225856060000013834916415426531259_);enable-background:new    ;">
						<path style="fill:#322A89;" d="M168.613,347.629l-48.148-25.948c-0.953-0.546-2.269-0.46-3.716,0.388l47.405,26.025
							C165.89,347.077,167.468,346.973,168.613,347.629z"/>
					</g>
				</g>
				<g style="enable-background:new    ;">
					<defs>
						<path id="SVGID_00000051360070794688844420000009245919130776592533_" style="enable-background:new    ;" d="
							M113.145,334.458l46.684,28.503c-1.129-0.647-1.835-2.032-1.853-4.008c-0.036-3.978,2.73-8.839,6.178-10.859l-47.405-26.025
							c-2.873,1.683-5.178,5.733-5.148,9.049C111.616,332.765,112.204,333.92,113.145,334.458z"/>
					</defs>
					<use xlink:href="#SVGID_00000051360070794688844420000009245919130776592533_"  style="overflow:visible;fill:#322A89;"/>
					<clipPath id="SVGID_00000088114129692288093390000017582379831563112848_">
						<use xlink:href="#SVGID_00000051360070794688844420000009245919130776592533_"  style="overflow:visible;"/>
					</clipPath>
					<g style="clip-path:url(#SVGID_00000088114129692288093390000017582379831563112848_);enable-background:new    ;">
						<path style="fill:#5654D6;" d="M157.975,358.953c-0.036-3.978,2.73-8.839,6.178-10.859l-47.405-26.025
							c-2.873,1.683-5.178,5.733-5.148,9.049L157.975,358.953z"/>
						<path style="fill:#322A89;" d="M111.601,331.118c0.015,1.647,0.603,2.802,1.544,3.34l46.684,28.503
							c-1.129-0.647-1.835-2.032-1.853-4.008L111.601,331.118z"/>
					</g>
				</g>
				<g>
					<path style="fill:#181060;" d="M164.154,348.094c-3.448,2.02-6.215,6.881-6.178,10.859c0.037,3.978,2.862,5.563,6.31,3.543
						c3.449-2.021,6.216-6.882,6.18-10.86C170.43,347.658,167.604,346.073,164.154,348.094z"/>
				</g>
			</g>
		</g>
	</g>
	<g>
		<g>
			<g style="enable-background:new    ;">
				<g style="enable-background:new    ;">
					<defs>
						<path id="SVGID_00000034809374931391046040000014424620171706788285_" style="enable-background:new    ;" d="M96.753,275.879
							L240.04,192.61c-2.414-1.394-4.375-4.789-4.366-7.563L92.386,268.316C92.378,271.091,94.338,274.486,96.753,275.879z"/>
					</defs>
					<clipPath id="SVGID_00000093858997255376054780000005553616896734646146_">
						<use xlink:href="#SVGID_00000034809374931391046040000014424620171706788285_"  style="overflow:visible;"/>
					</clipPath>
					<g style="clip-path:url(#SVGID_00000093858997255376054780000005553616896734646146_);">
						<path style="fill:#F39A00;" d="M96.753,275.879L240.04,192.61c-2.414-1.394-4.375-4.789-4.366-7.563L92.386,268.316
							C92.378,271.091,94.338,274.486,96.753,275.879z"/>
					</g>
				</g>
				<g>
					<polygon style="fill:#F39A00;" points="92.386,268.316 235.673,185.047 235.699,175.822 92.412,259.091 					"/>
				</g>
				<g>
					<path style="fill:#F39A00;" d="M92.412,259.061l143.287-83.269c0.004-1.378,0.493-2.349,1.28-2.807L93.692,256.254
						C92.905,256.712,92.416,257.683,92.412,259.061z"/>
				</g>
				<g>
					<polygon style="fill:#F39A00;" points="92.412,259.091 235.699,175.822 233.532,174.57 90.244,257.84 					"/>
				</g>
				<g>
					<polygon style="fill:#F39A00;" points="198.277,334.495 341.565,251.225 240.04,192.61 96.753,275.879 					"/>
				</g>
				<g>
					<polygon style="fill:#F3AE00;" points="198.27,336.985 341.557,253.716 341.565,251.225 198.277,334.495 					"/>
				</g>
				<g>
					<path style="fill:#EFBD0D;" d="M90.244,257.84l-0.026,9.225c-0.012,4.147,2.919,9.222,6.527,11.306l101.525,58.615l0.007-2.491
						L96.753,275.879c-2.414-1.394-4.374-4.789-4.366-7.563l0.026-9.225L90.244,257.84z"/>
				</g>
			</g>
		</g>
		<g>
			<g style="enable-background:new    ;">
				<g style="enable-background:new    ;">
					<defs>
						<path id="SVGID_00000180358588546606260200000004493373983793693356_" style="enable-background:new    ;" d="
							M234.324,175.283L98.201,254.389c0.889-0.516,2.119-0.443,3.478,0.341l136.123-79.106
							C236.443,174.839,235.212,174.766,234.324,175.283z"/>
					</defs>
					<use xlink:href="#SVGID_00000180358588546606260200000004493373983793693356_"  style="overflow:visible;fill:#EDEDED;"/>
					<clipPath id="SVGID_00000026846997870748356960000011094165971719680139_">
						<use xlink:href="#SVGID_00000180358588546606260200000004493373983793693356_"  style="overflow:visible;"/>
					</clipPath>
					<g style="clip-path:url(#SVGID_00000026846997870748356960000011094165971719680139_);enable-background:new    ;">
						<path style="fill:#EDEDED;" d="M101.679,254.73l136.123-79.106c-1.359-0.785-2.59-0.857-3.478-0.341L98.201,254.389
							C99.09,253.872,100.32,253.945,101.679,254.73z"/>
					</g>
				</g>
				<g>
					<polygon style="fill:#C5C8EE;" points="198.424,330.089 334.546,250.983 334.601,231.511 198.479,310.617 					"/>
				</g>
				<g>
					<polygon style="fill:#EDEDED;" points="198.479,310.617 334.601,231.511 237.802,175.624 101.679,254.73 					"/>
				</g>
				<g>
					<path style="fill:#E6E6F0;" d="M101.679,254.73c-2.7-1.559-4.894-0.308-4.903,2.794l-0.024,8.241
						c-0.008,3.102,2.171,6.878,4.871,8.437l96.8,55.887l0.055-19.472L101.679,254.73z"/>
				</g>
			</g>
		</g>
		<g>
			<g style="enable-background:new    ;">
				<g style="enable-background:new    ;">
					<defs>
						<path id="SVGID_00000153684430799767111840000016096166362904655747_" style="enable-background:new    ;" d="
							M236.979,172.985L93.692,256.254c-0.787,0.457-1.276,1.428-1.28,2.807l143.287-83.269
							C235.703,174.413,236.192,173.442,236.979,172.985z"/>
					</defs>
					<clipPath id="SVGID_00000146501160074665666710000017212992724955871935_">
						<use xlink:href="#SVGID_00000153684430799767111840000016096166362904655747_"  style="overflow:visible;"/>
					</clipPath>
				</g>
				<g>
					<defs>
						<path id="SVGID_00000013157841727206138720000017140218193247537283_" d="M235.445,170.345l-143.287,83.27
							c1.192-0.693,2.841-0.598,4.657,0.451l143.287-83.269C238.286,169.748,236.637,169.653,235.445,170.345z"/>
					</defs>
					<use xlink:href="#SVGID_00000013157841727206138720000017140218193247537283_"  style="overflow:visible;fill:#F3CA35;"/>
					<clipPath id="SVGID_00000144301265926286873530000001484892023453229472_">
						<use xlink:href="#SVGID_00000013157841727206138720000017140218193247537283_"  style="overflow:visible;"/>
					</clipPath>
					<g style="clip-path:url(#SVGID_00000144301265926286873530000001484892023453229472_);enable-background:new    ;">
						<path style="fill:#F3CA35;" d="M96.815,254.065l143.287-83.269c-1.816-1.048-3.465-1.143-4.656-0.451l-143.287,83.27
							C93.349,252.922,94.998,253.017,96.815,254.065z"/>
					</g>
				</g>
				<g>
					<polygon style="fill:#F3AE00;" points="198.332,315.172 341.619,231.902 341.626,229.411 198.339,312.681 					"/>
				</g>
				<g>
					<polygon style="fill:#F3CA35;" points="341.624,229.414 198.338,312.685 96.814,254.07 240.099,170.799 295.195,202.607 
						340.182,228.579 					"/>
				</g>
				<g>
					<path style="fill:#EFBD0D;" d="M96.815,254.065c-3.609-2.083-6.558-0.402-6.57,3.744l2.168,1.252
						c0.008-2.774,1.981-3.899,4.395-2.505l101.525,58.616l0.007-2.491L96.815,254.065z"/>
				</g>
			</g>
		</g>
	</g>
	<g>
		<g>
			<g style="enable-background:new    ;">
				<g>
					<polygon style="fill:#E93F57;" points="194.991,297.21 338.278,213.941 236.753,155.325 93.466,238.595 					"/>
				</g>
				<g>
					<defs>
						<path id="SVGID_00000045586428864629380770000007629259474341736855_" d="M198.113,297.514L341.4,214.245
							c-0.798,0.464-1.904,0.399-3.122-0.304L194.991,297.21C196.21,297.914,197.315,297.978,198.113,297.514z"/>
					</defs>
					<use xlink:href="#SVGID_00000045586428864629380770000007629259474341736855_"  style="overflow:visible;fill:#E93F57;"/>
					<clipPath id="SVGID_00000050639307559297878080000007481933343027146124_">
						<use xlink:href="#SVGID_00000045586428864629380770000007629259474341736855_"  style="overflow:visible;"/>
					</clipPath>
					<g style="clip-path:url(#SVGID_00000050639307559297878080000007481933343027146124_);">
						<path style="fill:#E93F57;" d="M198.113,297.514L341.4,214.245c-0.798,0.464-1.904,0.399-3.122-0.304L194.991,297.21
							C196.21,297.914,197.315,297.978,198.113,297.514z"/>
					</g>
				</g>
				<g>
					<defs>
						<path id="SVGID_00000100375996992123881870000015880511786975813033_" d="M199.64,300.152l143.287-83.269
							c1.177-0.683,1.908-2.135,1.913-4.195l-143.287,83.269C201.547,298.017,200.817,299.468,199.64,300.152z"/>
					</defs>
					<use xlink:href="#SVGID_00000100375996992123881870000015880511786975813033_"  style="overflow:visible;fill:#E93F57;"/>
					<clipPath id="SVGID_00000177466519587136375840000014479272616261598858_">
						<use xlink:href="#SVGID_00000100375996992123881870000015880511786975813033_"  style="overflow:visible;"/>
					</clipPath>
					<g style="clip-path:url(#SVGID_00000177466519587136375840000014479272616261598858_);enable-background:new    ;">
						<path style="fill:#E93F57;" d="M199.64,300.152l143.287-83.269c1.177-0.683,1.908-2.135,1.913-4.195l-143.287,83.269
							C201.547,298.017,200.817,299.468,199.64,300.152z"/>
					</g>
				</g>
				<g>
					<polygon style="fill:#E93F57;" points="201.553,295.957 344.84,212.688 342.679,211.44 199.392,294.709 					"/>
				</g>
				<g>
					<polygon style="fill:#F3566C;" points="194.991,297.21 93.466,238.595 93.459,241.086 194.983,299.701 					"/>
				</g>
			</g>
		</g>
		<g>
			<g style="enable-background:new    ;">
				<g>
					<polygon style="fill:#E6E6F0;" points="200.786,296.243 102.645,239.581 102.718,214.993 200.786,271.613 					"/>
				</g>
			</g>
		</g>
		<g>
			<g style="enable-background:new    ;">
				<g>
					<polygon style="fill:#E93F57;" points="201.545,295.957 344.832,212.688 344.858,195.63 201.571,278.899 					"/>
				</g>
				<g>
					<polygon style="fill:#F37874;" points="338.331,184.325 195.046,267.595 183.1,260.693 138.102,234.722 93.522,208.98 
						236.807,125.71 					"/>
				</g>
				<g style="enable-background:new    ;">
					<defs>
						<path id="SVGID_00000083792623460257291820000011080183691794205859_" style="enable-background:new    ;" d="
							M201.571,278.899l143.287-83.269c0.012-4.154-2.919-9.222-6.527-11.306l-143.287,83.269
							C198.652,269.677,201.583,274.745,201.571,278.899z"/>
					</defs>
					<clipPath id="SVGID_00000052801545461954634060000004127413908279522447_">
						<use xlink:href="#SVGID_00000083792623460257291820000011080183691794205859_"  style="overflow:visible;"/>
					</clipPath>
					<g style="clip-path:url(#SVGID_00000052801545461954634060000004127413908279522447_);enable-background:new    ;">
						<path style="fill:#F36379;" d="M201.571,278.899l143.287-83.269c0.012-4.154-2.919-9.222-6.527-11.306l-143.287,83.269
							C198.652,269.677,201.583,274.745,201.571,278.899z"/>
					</g>
				</g>
				<g>
					<path style="fill:#F3566C;" d="M93.52,208.979l-0.007,2.483l101.525,58.615c2.421,1.398,4.381,4.793,4.373,7.575l-0.026,17.058
						l2.161,1.248l0.026-17.058c0.012-4.154-2.919-9.222-6.527-11.306L93.52,208.979z"/>
				</g>
			</g>
		</g>
		<path style="fill:#F3566C;" d="M194.983,299.701c3.609,2.083,6.558,0.402,6.57-3.744l-2.161-1.248
			c-0.008,2.774-1.981,3.898-4.402,2.501L194.983,299.701z"/>
	</g>
	<g>
		<g>
			<g style="enable-background:new    ;">
				<g>
					<polygon style="fill:#322A89;" points="265.671,174.071 265.655,179.652 170.378,235.021 170.394,229.44 					"/>
				</g>
				<g>
					<polygon style="fill:#4D4BCF;" points="170.394,229.44 170.378,235.021 115.426,203.295 115.442,197.714 					"/>
				</g>
				<g>
					<polygon style="fill:#6462DC;" points="265.671,174.071 170.394,229.44 115.442,197.714 210.72,142.344 					"/>
				</g>
			</g>
		</g>
		<g>
			<path style="fill:#C5C8EE;" d="M121.946,198.435c-0.945,0-1.712-0.766-1.712-1.712l-0.001-80.018
				c0-5.217,3.539-11.346,8.057-13.955l72.038-41.589c2.476-1.429,4.892-1.608,6.804-0.504c1.912,1.104,2.965,3.286,2.965,6.144
				l0.001,80.018c0,0.945-0.766,1.712-1.712,1.712c-0.945,0-1.711-0.766-1.711-1.712l-0.001-80.018c0-1.561-0.457-2.72-1.253-3.18
				c-0.796-0.459-2.028-0.276-3.38,0.504l-72.037,41.589c-3.44,1.986-6.345,7.019-6.345,10.99l0.001,80.018
				C123.658,197.668,122.891,198.435,121.946,198.435z"/>
		</g>
		<g>
			<g>
				<path style="fill:#ACAFF1;" d="M232.23,135.512c0,7.122-5.77,12.891-12.891,12.891c-4.565,0-8.577-2.373-10.867-5.956
					c-1.278-2.003-2.021-4.382-2.021-6.935c0-7.119,5.77-12.888,12.888-12.888c2.089,0,4.062,0.497,5.805,1.376
					C229.348,126.125,232.23,130.482,232.23,135.512z"/>
				<path style="fill:#D1D2EC;" d="M227.161,130.93c0,7.121-5.772,12.891-12.891,12.891c-2.086,0-4.056-0.494-5.799-1.373
					c-1.278-2.003-2.021-4.382-2.021-6.935c0-7.119,5.77-12.888,12.888-12.888c2.089,0,4.062,0.497,5.805,1.376
					C226.419,126,227.161,128.379,227.161,130.93z"/>
				<path style="fill:#E6E6F0;" d="M220.681,127.165c-1.311-1.958-4.891-1.859-7.996,0.221c-3.105,2.08-4.559,5.352-3.247,7.31
					c1.311,1.957,4.891,1.859,7.996-0.221C220.539,132.396,221.992,129.123,220.681,127.165z"/>
			</g>
			<g>
				<path style="fill:#322A89;" d="M220.76,123.496c-0.011,0-0.023-0.001-0.035-0.003c-0.062-0.013-0.111-0.058-0.129-0.119
					l-18.105-61.161c-0.027-0.091,0.025-0.186,0.115-0.213c0.091-0.028,0.186,0.025,0.213,0.115l18.014,60.855l28.372-33.87
					c0.061-0.072,0.169-0.082,0.241-0.021c0.072,0.061,0.082,0.169,0.021,0.241l-28.577,34.115
					C220.858,123.474,220.81,123.496,220.76,123.496z"/>
			</g>
			<g>
				<path style="fill:#322A89;" d="M221.346,124.541c-0.095,0-0.171-0.077-0.171-0.171c0-0.33-0.241-0.748-0.527-0.913
					c-0.107-0.062-0.202-0.078-0.262-0.043c-0.06,0.034-0.094,0.125-0.094,0.248c0,0.095-0.077,0.171-0.171,0.171
					c-0.095,0-0.171-0.076-0.171-0.171c0-0.253,0.094-0.446,0.265-0.545c0.171-0.099,0.385-0.083,0.604,0.043
					c0.392,0.226,0.698,0.757,0.698,1.209C221.517,124.465,221.441,124.541,221.346,124.541z"/>
			</g>
		</g>
		<g>
			<g>
				<path style="fill:#ACAFF1;" d="M207.262,149.941c0,7.122-5.769,12.891-12.891,12.891c-4.565,0-8.577-2.373-10.867-5.956
					c-1.278-2.003-2.021-4.382-2.021-6.935c0-7.119,5.77-12.888,12.888-12.888c2.089,0,4.062,0.497,5.805,1.376
					C204.38,140.553,207.262,144.911,207.262,149.941z"/>
				<path style="fill:#D1D2EC;" d="M202.194,145.358c0,7.121-5.772,12.891-12.891,12.891c-2.086,0-4.056-0.494-5.799-1.373
					c-1.278-2.003-2.021-4.382-2.021-6.935c0-7.119,5.77-12.888,12.888-12.888c2.089,0,4.062,0.497,5.805,1.376
					C201.451,140.429,202.194,142.808,202.194,145.358z"/>
				<path style="fill:#E6E6F0;" d="M195.713,141.594c-1.311-1.958-4.891-1.859-7.996,0.221c-3.105,2.08-4.559,5.352-3.248,7.31
					c1.311,1.958,4.891,1.859,7.996-0.221C195.571,146.824,197.025,143.552,195.713,141.594z"/>
			</g>
			<g>
				<path style="fill:#322A89;" d="M195.792,137.924c-0.011,0-0.023-0.001-0.035-0.004c-0.062-0.013-0.112-0.058-0.13-0.119
					l-18.105-61.161c-0.027-0.091,0.025-0.186,0.115-0.213c0.092-0.028,0.186,0.025,0.213,0.115l18.014,60.855l28.373-33.87
					c0.061-0.072,0.169-0.082,0.241-0.021c0.073,0.061,0.082,0.169,0.021,0.241l-28.578,34.115
					C195.89,137.902,195.842,137.924,195.792,137.924z"/>
			</g>
			<g>
				<path style="fill:#322A89;" d="M196.378,138.97c-0.095,0-0.171-0.077-0.171-0.171c0-0.33-0.241-0.748-0.527-0.913
					c-0.107-0.062-0.202-0.078-0.262-0.043c-0.059,0.034-0.094,0.125-0.094,0.248c0,0.095-0.077,0.171-0.171,0.171
					c-0.095,0-0.171-0.077-0.171-0.171c0-0.253,0.094-0.446,0.265-0.545c0.171-0.099,0.385-0.083,0.605,0.043
					c0.391,0.226,0.698,0.757,0.698,1.209C196.55,138.893,196.473,138.97,196.378,138.97z"/>
			</g>
		</g>
		<g>
			<g>
				<path style="fill:#ACAFF1;" d="M182.294,164.626c0,7.122-5.77,12.891-12.891,12.891c-4.565,0-8.577-2.373-10.867-5.956
					c-1.278-2.003-2.021-4.382-2.021-6.935c0-7.119,5.77-12.888,12.888-12.888c2.089,0,4.062,0.497,5.805,1.376
					C179.413,155.239,182.294,159.597,182.294,164.626z"/>
				<path style="fill:#D1D2EC;" d="M177.226,160.044c0,7.121-5.772,12.891-12.891,12.891c-2.086,0-4.056-0.494-5.799-1.373
					c-1.278-2.003-2.021-4.382-2.021-6.935c0-7.119,5.77-12.888,12.888-12.888c2.089,0,4.062,0.497,5.805,1.376
					C176.483,155.114,177.226,157.493,177.226,160.044z"/>
				<path style="fill:#E6E6F0;" d="M170.746,156.279c-1.311-1.957-4.891-1.859-7.996,0.221c-3.105,2.079-4.559,5.352-3.248,7.31
					c1.311,1.958,4.891,1.859,7.996-0.221C170.603,161.51,172.057,158.237,170.746,156.279z"/>
			</g>
			<g>
				<path style="fill:#322A89;" d="M170.825,152.609c-0.012,0-0.023-0.001-0.035-0.003c-0.062-0.013-0.111-0.059-0.13-0.119
					l-18.105-61.161c-0.027-0.091,0.025-0.186,0.116-0.213c0.091-0.028,0.186,0.025,0.212,0.115l18.014,60.855l28.373-33.87
					c0.061-0.072,0.169-0.082,0.241-0.021c0.072,0.061,0.082,0.169,0.021,0.241l-28.577,34.115
					C170.923,152.587,170.874,152.609,170.825,152.609z"/>
			</g>
			<g>
				<path style="fill:#322A89;" d="M171.411,153.655c-0.095,0-0.171-0.077-0.171-0.171c0-0.33-0.241-0.748-0.527-0.913
					c-0.107-0.061-0.202-0.077-0.262-0.043c-0.06,0.035-0.094,0.125-0.094,0.249c0,0.094-0.077,0.171-0.171,0.171
					s-0.171-0.077-0.171-0.171c0-0.253,0.094-0.446,0.265-0.545c0.171-0.099,0.385-0.084,0.604,0.043
					c0.392,0.226,0.698,0.757,0.698,1.21C171.582,153.578,171.505,153.655,171.411,153.655z"/>
			</g>
		</g>
		<g>
			<g>
				<path style="fill:#ACAFF1;" d="M157.326,179.312c0,7.121-5.77,12.891-12.891,12.891c-4.565,0-8.577-2.373-10.867-5.956
					c-1.278-2.003-2.021-4.382-2.021-6.935c0-7.119,5.769-12.888,12.888-12.888c2.089,0,4.062,0.497,5.805,1.376
					C154.445,169.924,157.326,174.282,157.326,179.312z"/>
				<path style="fill:#D1D2EC;" d="M152.258,174.729c0,7.121-5.772,12.891-12.891,12.891c-2.086,0-4.056-0.494-5.799-1.373
					c-1.278-2.003-2.021-4.382-2.021-6.935c0-7.119,5.769-12.888,12.888-12.888c2.089,0,4.062,0.497,5.805,1.376
					C151.516,169.8,152.258,172.178,152.258,174.729z"/>
				<path style="fill:#E6E6F0;" d="M145.778,170.965c-1.311-1.958-4.891-1.859-7.996,0.221c-3.105,2.079-4.559,5.352-3.247,7.31
					c1.311,1.958,4.891,1.859,7.996-0.221C145.635,176.195,147.089,172.922,145.778,170.965z"/>
			</g>
			<g>
				<path style="fill:#322A89;" d="M145.857,167.295c-0.012,0-0.023-0.001-0.035-0.004c-0.062-0.013-0.111-0.059-0.129-0.119
					l-18.105-61.161c-0.027-0.091,0.025-0.186,0.116-0.213c0.091-0.027,0.186,0.025,0.213,0.116l18.014,60.855l28.373-33.87
					c0.061-0.072,0.169-0.082,0.241-0.021c0.072,0.061,0.082,0.169,0.021,0.241l-28.577,34.115
					C145.955,167.273,145.907,167.295,145.857,167.295z"/>
			</g>
			<g>
				<path style="fill:#322A89;" d="M146.443,168.34c-0.095,0-0.171-0.076-0.171-0.171c0-0.33-0.241-0.748-0.527-0.913
					c-0.107-0.062-0.202-0.078-0.262-0.043c-0.06,0.035-0.094,0.125-0.094,0.249c0,0.095-0.077,0.171-0.171,0.171
					c-0.095,0-0.171-0.077-0.171-0.171c0-0.253,0.094-0.446,0.265-0.545c0.171-0.099,0.386-0.084,0.604,0.043
					c0.392,0.226,0.698,0.757,0.698,1.209C146.614,168.264,146.537,168.34,146.443,168.34z"/>
			</g>
		</g>
		<g>
			<path style="fill:#E6E6F0;" d="M170.356,226.261c-0.945,0-1.712-0.766-1.712-1.712l0-80.018c0-5.217,3.539-11.347,8.057-13.955
				l72.037-41.59c2.476-1.429,4.892-1.608,6.804-0.504c1.912,1.104,2.965,3.286,2.965,6.144l0.001,80.018
				c0,0.945-0.766,1.712-1.712,1.712c-0.945,0-1.712-0.766-1.712-1.712l-0.001-80.018c0-1.561-0.457-2.72-1.253-3.18
				c-0.796-0.46-2.029-0.276-3.38,0.504l-72.037,41.59c-3.439,1.985-6.346,7.019-6.346,10.99l0.001,80.018
				C172.068,225.495,171.301,226.261,170.356,226.261z"/>
		</g>
	</g>
	<g id="light_bulb_1_">
		<g>
			<g>
				<g style="enable-background:new    ;">
					<path style="fill:#181060;" d="M358.08,316.521l-3.318,1.928v2.858h-17.841v-2.738l-3.546-2.047h-3.167
						c1.928,3.653,4.233,7.996,5.568,10.416c0.188,0.342,0.435,0.793,0.76,1.234c0.252,0.435,0.67,0.843,1.266,1.188l4.151,2.396
						c0.254,0.147,0.528,0.274,0.816,0.385c0.099,0.038,0.209,0.062,0.311,0.096c0.196,0.064,0.389,0.131,0.594,0.18
						c0.124,0.029,0.255,0.044,0.382,0.068c0.194,0.036,0.385,0.077,0.584,0.1c0.135,0.016,0.273,0.017,0.409,0.026
						c0.179,0.012,0.356,0.033,0.536,0.034c0.016,0,0.033-0.002,0.049-0.002c0.189,0.001,0.376-0.015,0.565-0.026
						c0.151-0.009,0.303-0.009,0.452-0.025c0.204-0.022,0.4-0.062,0.598-0.098c0.129-0.023,0.262-0.037,0.388-0.066
						c0.225-0.052,0.436-0.124,0.649-0.194c0.091-0.03,0.189-0.051,0.277-0.084c0.296-0.112,0.576-0.242,0.834-0.393l4.125-2.398
						c0.156-0.091,0.296-0.187,0.428-0.286c0.038-0.028,0.073-0.057,0.109-0.086c0.096-0.078,0.185-0.157,0.268-0.239
						c0.027-0.027,0.057-0.053,0.082-0.081c0.1-0.106,0.189-0.215,0.265-0.327c0.014-0.021,0.024-0.042,0.038-0.063
						c0.059-0.093,0.111-0.188,0.154-0.283c0.008-0.017,0.021-0.034,0.028-0.051l6.544-11.42H358.08z"/>
					<g>
						<g>
							<path style="fill:#322A89;" d="M361.387,305.943c4.109,2.372,4.131,6.255,0.052,8.626l-8.251,4.795
								c-4.08,2.371-10.783,2.371-14.893-0.002l-8.301-4.792c-4.109-2.373-4.131-6.256-0.052-8.626l8.251-4.795
								c4.079-2.371,10.782-2.371,14.893,0.002L361.387,305.943z"/>
						</g>
					</g>
				</g>
			</g>
			<g>
				<g style="enable-background:new    ;">
					<g>
						<path style="fill:#322A89;" d="M374.413,300.012l-2.921,11.781c-1.097,2.329-3.148,4.537-6.155,6.418l2.237-11.068
							C370.916,305.053,373.195,302.599,374.413,300.012z"/>
					</g>
					<g>
						<path style="fill:#322A89;" d="M367.574,307.142l-2.237,11.068c-0.224,0.14-0.453,0.278-0.687,0.414
							c-4.709,2.737-10.751,4.237-16.929,4.503l0.28-10.521c6.864-0.295,13.577-1.963,18.809-5.004
							C367.071,307.451,367.325,307.298,367.574,307.142z"/>
					</g>
					<g>
						<path style="fill:#322A89;" d="M348.001,312.606l-0.28,10.521c-4.248,0.182-8.559-0.22-12.546-1.206l-1.113-10.655
							C338.491,312.361,343.282,312.808,348.001,312.606z"/>
					</g>
					<g>
						<path style="fill:#322A89;" d="M334.062,311.266l1.113,10.655c-3.056-0.755-5.92-1.854-8.418-3.297
							c-5.283-3.05-7.448-7.08-7.91-11.05c-0.364-3.128-2.928-12.25-2.928-12.25c-0.012,4.442,2.919,8.89,8.789,12.279
							C327.484,309.205,330.667,310.427,334.062,311.266z"/>
					</g>
					<g>
						<path style="fill:#322A89;" d="M366.674,283.215c11.663,6.734,11.727,17.653,0.137,24.387
							c-11.588,6.734-30.439,6.734-42.103,0c-11.665-6.734-11.724-17.653-0.137-24.388
							C336.16,276.48,355.008,276.48,366.674,283.215z"/>
					</g>
				</g>
			</g>
			<g>
				<g>
					<g>
						<g>
							<defs>
								<path id="SVGID_00000054952405999307335830000008392026404531637407_" d="M377.066,291.793l-0.012,4.343
									c-0.013,4.619-3.049,9.232-9.117,12.758c-12.208,7.095-32.067,7.089-44.355-0.005c-6.189-3.573-9.279-8.26-9.266-12.94
									l0.012-4.343c-0.013,4.679,3.077,9.367,9.266,12.94c12.288,7.094,32.147,7.099,44.355,0.005
									C374.016,301.025,377.053,296.412,377.066,291.793z"/>
							</defs>
							<use xlink:href="#SVGID_00000054952405999307335830000008392026404531637407_"  style="overflow:visible;fill:#322A89;"/>
							<clipPath id="SVGID_00000150798017925948104280000005605915605802482816_">
								<use xlink:href="#SVGID_00000054952405999307335830000008392026404531637407_"  style="overflow:visible;"/>
							</clipPath>
						</g>
					</g>
					<g>
						<g style="enable-background:new    ;">
							<g style="enable-background:new    ;">
								<g style="enable-background:new    ;">
									<g>
										<path style="fill:#322A89;" d="M377.066,291.793l-0.012,4.343c-0.004,1.439-0.301,2.877-0.893,4.283l0.012-4.343
											C376.764,294.671,377.062,293.232,377.066,291.793z"/>
									</g>
								</g>
							</g>
							<g>
								<g>
									<path style="fill:#322A89;" d="M367.805,278.854c12.288,7.094,12.361,18.598,0.144,25.697
										c-12.208,7.094-32.067,7.09-44.355-0.005c-12.297-7.099-12.361-18.597-0.154-25.692
										C335.657,271.755,355.508,271.755,367.805,278.854z"/>
								</g>
							</g>
						</g>
					</g>
				</g>
				<g>
					<g>
						<g>
							<defs>
								<path id="SVGID_00000171689383519731237110000002754655324249735322_" d="M377.066,285.958l-0.012,4.343
									c-0.013,4.619-3.049,9.232-9.117,12.759c-12.208,7.094-32.067,7.089-44.355-0.005c-6.189-3.574-9.279-8.26-9.266-12.94
									l0.012-4.343c-0.013,4.68,3.077,9.367,9.266,12.941c12.288,7.094,32.147,7.099,44.355,0.005
									C374.016,295.19,377.053,290.577,377.066,285.958z"/>
							</defs>
							<use xlink:href="#SVGID_00000171689383519731237110000002754655324249735322_"  style="overflow:visible;fill:#322A89;"/>
							<clipPath id="SVGID_00000037688000568030514240000001540258337294685825_">
								<use xlink:href="#SVGID_00000171689383519731237110000002754655324249735322_"  style="overflow:visible;"/>
							</clipPath>
						</g>
					</g>
					<g>
						<g style="enable-background:new    ;">
							<g style="enable-background:new    ;">
								<g style="enable-background:new    ;">
									<g>
										<path style="fill:#322A89;" d="M377.066,285.958l-0.012,4.343c-0.004,1.439-0.301,2.878-0.893,4.283l0.012-4.342
											C376.764,288.836,377.062,287.397,377.066,285.958z"/>
									</g>
								</g>
							</g>
							<g>
								<g>
									<path style="fill:#322A89;" d="M367.805,273.019c12.288,7.095,12.361,18.598,0.144,25.697
										c-12.208,7.094-32.067,7.089-44.355-0.005c-12.297-7.1-12.361-18.598-0.154-25.693
										C335.657,265.92,355.508,265.92,367.805,273.019z"/>
								</g>
							</g>
						</g>
					</g>
				</g>
				<g>
					<g>
						<g>
							<defs>
								<path id="SVGID_00000130627674073392433860000013574860423075590835_" d="M377.066,280.123l-0.012,4.343
									c-0.013,4.619-3.049,9.233-9.117,12.759c-12.208,7.094-32.067,7.089-44.355-0.005c-6.189-3.573-9.279-8.26-9.266-12.94
									l0.012-4.343c-0.013,4.679,3.077,9.367,9.266,12.94c12.288,7.094,32.147,7.099,44.355,0.005
									C374.016,289.355,377.053,284.742,377.066,280.123z"/>
							</defs>
							<use xlink:href="#SVGID_00000130627674073392433860000013574860423075590835_"  style="overflow:visible;fill:#322A89;"/>
							<clipPath id="SVGID_00000026162755595899979800000008356457766880704387_">
								<use xlink:href="#SVGID_00000130627674073392433860000013574860423075590835_"  style="overflow:visible;"/>
							</clipPath>
						</g>
					</g>
					<g>
						<g style="enable-background:new    ;">
							<g style="enable-background:new    ;">
								<g style="enable-background:new    ;">
									<g>
										<path style="fill:#322A89;" d="M377.066,280.123l-0.012,4.343c-0.004,1.439-0.301,2.878-0.893,4.283l0.012-4.343
											C376.764,283,377.062,281.562,377.066,280.123z"/>
									</g>
								</g>
							</g>
							<g>
								<g>
									<path style="fill:#322A89;" d="M367.805,267.184c12.288,7.094,12.361,18.597,0.144,25.697
										c-12.208,7.094-32.067,7.09-44.355-0.005c-12.297-7.1-12.361-18.597-0.154-25.691
										C335.657,260.085,355.508,260.085,367.805,267.184z"/>
								</g>
							</g>
						</g>
					</g>
				</g>
				<g>
					<g>
						<g>
							<defs>
								<path id="SVGID_00000159459846818535823700000016467091951706208395_" d="M377.066,274.288l-0.012,4.342
									c-0.013,4.62-3.049,9.232-9.117,12.759c-12.208,7.095-32.067,7.09-44.355-0.005c-6.189-3.573-9.279-8.26-9.266-12.94
									l0.012-4.342c-0.013,4.679,3.077,9.367,9.266,12.939c12.288,7.095,32.147,7.099,44.355,0.005
									C374.016,283.52,377.053,278.907,377.066,274.288z"/>
							</defs>
							<use xlink:href="#SVGID_00000159459846818535823700000016467091951706208395_"  style="overflow:visible;fill:#322A89;"/>
							<clipPath id="SVGID_00000139973628624534327470000010149306462970505614_">
								<use xlink:href="#SVGID_00000159459846818535823700000016467091951706208395_"  style="overflow:visible;"/>
							</clipPath>
						</g>
					</g>
					<g>
						<g style="enable-background:new    ;">
							<g style="enable-background:new    ;">
								<g style="enable-background:new    ;">
									<g>
										<path style="fill:#322A89;" d="M377.066,274.288l-0.012,4.342c-0.004,1.439-0.301,2.878-0.893,4.284l0.012-4.343
											C376.764,277.166,377.062,275.727,377.066,274.288z"/>
									</g>
								</g>
							</g>
							<g>
								<g>
									<path style="fill:#322A89;" d="M367.805,261.349c12.288,7.094,12.361,18.598,0.144,25.697
										c-12.208,7.095-32.067,7.09-44.355-0.005c-12.297-7.099-12.361-18.598-0.154-25.692
										C335.657,254.25,355.508,254.25,367.805,261.349z"/>
								</g>
							</g>
						</g>
					</g>
				</g>
				<g>
					<g>
						<g>
							<defs>
								<path id="SVGID_00000119107816497589695100000004914030436918311852_" d="M377.066,268.453l-0.012,4.343
									c-0.013,4.619-3.049,9.232-9.117,12.758c-12.208,7.095-32.067,7.09-44.355-0.005c-6.189-3.573-9.279-8.26-9.266-12.94
									l0.012-4.343c-0.013,4.68,3.077,9.367,9.266,12.94c12.288,7.094,32.147,7.099,44.355,0.005
									C374.016,277.685,377.053,273.072,377.066,268.453z"/>
							</defs>
							<use xlink:href="#SVGID_00000119107816497589695100000004914030436918311852_"  style="overflow:visible;fill:#322A89;"/>
							<clipPath id="SVGID_00000062187652620939577010000009869794115062944682_">
								<use xlink:href="#SVGID_00000119107816497589695100000004914030436918311852_"  style="overflow:visible;"/>
							</clipPath>
						</g>
					</g>
					<g>
						<g style="enable-background:new    ;">
							<g style="enable-background:new    ;">
								<defs>
									<path id="SVGID_00000058589733873172349340000010967334463570883512_" style="enable-background:new    ;" d="
										M377.066,268.453l-0.012,4.343c-0.013,4.619-3.049,9.232-9.117,12.758c-12.208,7.095-32.067,7.09-44.355-0.005
										c-6.189-3.573-9.279-8.26-9.266-12.94l0.012-4.343c-0.013,4.68,3.077,9.367,9.266,12.94
										c12.288,7.094,32.147,7.099,44.355,0.005C374.016,277.685,377.053,273.072,377.066,268.453z"/>
								</defs>
								<use xlink:href="#SVGID_00000058589733873172349340000010967334463570883512_"  style="overflow:visible;fill:#322A89;"/>
								<clipPath id="SVGID_00000069370587169202490880000016511695512823675010_">
									<use xlink:href="#SVGID_00000058589733873172349340000010967334463570883512_"  style="overflow:visible;"/>
								</clipPath>
								<g style="clip-path:url(#SVGID_00000069370587169202490880000016511695512823675010_);enable-background:new    ;">
									<g>
										<path style="fill:#322A89;" d="M377.066,268.453l-0.012,4.343c-0.004,1.439-0.301,2.878-0.893,4.283l0.012-4.342
											C376.764,271.331,377.062,269.892,377.066,268.453z"/>
									</g>
									<g>
										<path style="fill:#322A89;" d="M376.173,272.736l-0.012,4.342c-1.307,3.105-4.047,6.048-8.224,8.475
											c-6.246,3.63-14.495,5.402-22.709,5.316l0.012-4.343c8.213,0.087,16.463-1.685,22.709-5.315
											C372.126,278.784,374.866,275.841,376.173,272.736z"/>
									</g>
									<g>
										<path style="fill:#322A89;" d="M345.239,286.526l-0.012,4.343c-7.839-0.082-15.645-1.855-21.646-5.32
											c-6.189-3.573-9.279-8.26-9.266-12.94l0.012-4.343c-0.013,4.68,3.077,9.367,9.266,12.94
											C329.594,284.671,337.401,286.445,345.239,286.526z"/>
									</g>
								</g>
							</g>
							<g>
								<g>
									<path style="fill:#322A89;" d="M367.805,255.515c12.288,7.094,12.361,18.597,0.144,25.697
										c-12.208,7.094-32.067,7.089-44.355-0.005c-12.297-7.099-12.361-18.598-0.154-25.692
										C335.657,248.415,355.508,248.415,367.805,255.515z"/>
								</g>
							</g>
						</g>
					</g>
					<g>
						<g>
							<defs>
								<path id="SVGID_00000031198759654979367110000006980791119715846786_" d="M377.066,268.453l-0.012,4.343
									c-0.013,4.619-3.049,9.232-9.117,12.758c-12.208,7.095-32.067,7.09-44.355-0.005c-6.189-3.573-9.279-8.26-9.266-12.94
									l0.012-4.343c-0.013,4.68,3.077,9.367,9.266,12.94c12.288,7.094,32.147,7.099,44.355,0.005
									C374.016,277.685,377.053,273.072,377.066,268.453z"/>
							</defs>
							<use xlink:href="#SVGID_00000031198759654979367110000006980791119715846786_"  style="overflow:visible;fill:#322A89;"/>
							<clipPath id="SVGID_00000128481736695156489080000012861753927337115525_">
								<use xlink:href="#SVGID_00000031198759654979367110000006980791119715846786_"  style="overflow:visible;"/>
							</clipPath>
						</g>
					</g>
				</g>
				<g>
					<g>
						<g>
							<defs>
								<path id="SVGID_00000083047653588882005620000005414400260486933903_" d="M377.066,262.618l-0.012,4.342
									c-0.013,4.62-3.049,9.233-9.117,12.759c-12.208,7.094-32.067,7.089-44.355-0.005c-6.189-3.573-9.279-8.26-9.266-12.94
									l0.012-4.342c-0.013,4.679,3.077,9.366,9.266,12.939c12.288,7.094,32.147,7.099,44.355,0.005
									C374.016,271.85,377.053,267.237,377.066,262.618z"/>
							</defs>
							<use xlink:href="#SVGID_00000083047653588882005620000005414400260486933903_"  style="overflow:visible;fill:#322A89;"/>
							<clipPath id="SVGID_00000015345294850505744200000009351879539413823667_">
								<use xlink:href="#SVGID_00000083047653588882005620000005414400260486933903_"  style="overflow:visible;"/>
							</clipPath>
						</g>
					</g>
					<g>
						<g style="enable-background:new    ;">
							<g style="enable-background:new    ;">
								<defs>
									<path id="SVGID_00000173119663243658023950000014984169016942878347_" style="enable-background:new    ;" d="
										M377.066,262.618l-0.012,4.342c-0.013,4.62-3.049,9.233-9.117,12.759c-12.208,7.094-32.067,7.089-44.355-0.005
										c-6.189-3.573-9.279-8.26-9.266-12.94l0.012-4.342c-0.013,4.679,3.077,9.366,9.266,12.939
										c12.288,7.094,32.147,7.099,44.355,0.005C374.016,271.85,377.053,267.237,377.066,262.618z"/>
								</defs>
								<use xlink:href="#SVGID_00000173119663243658023950000014984169016942878347_"  style="overflow:visible;fill:#322A89;"/>
								<clipPath id="SVGID_00000160155540052583317950000003936314798753997503_">
									<use xlink:href="#SVGID_00000173119663243658023950000014984169016942878347_"  style="overflow:visible;"/>
								</clipPath>
								<g style="clip-path:url(#SVGID_00000160155540052583317950000003936314798753997503_);enable-background:new    ;">
									<g>
										<path style="fill:#322A89;" d="M377.066,262.618l-0.012,4.342c-0.004,1.439-0.301,2.878-0.893,4.283l0.012-4.343
											C376.764,265.496,377.062,264.058,377.066,262.618z"/>
									</g>
									<g>
										<path style="fill:#322A89;" d="M376.173,266.901l-0.012,4.343c-1.307,3.105-4.047,6.048-8.224,8.475
											c-6.246,3.63-14.495,5.401-22.709,5.315l0.012-4.342c8.213,0.085,16.463-1.686,22.709-5.316
											C372.126,272.949,374.866,270.006,376.173,266.901z"/>
									</g>
									<g>
										<path style="fill:#322A89;" d="M345.239,280.693l-0.012,4.342c-7.839-0.082-15.645-1.856-21.646-5.32
											c-6.189-3.573-9.279-8.26-9.266-12.94l0.012-4.342c-0.013,4.679,3.077,9.366,9.266,12.939
											C329.594,278.837,337.401,280.61,345.239,280.693z"/>
									</g>
								</g>
							</g>
							<g>
								<g>
									<path style="fill:#322A89;" d="M367.805,249.68c12.288,7.094,12.361,18.598,0.144,25.697
										c-12.208,7.094-32.067,7.09-44.355-0.005c-12.297-7.099-12.361-18.597-0.154-25.691
										C335.657,242.581,355.508,242.58,367.805,249.68z"/>
								</g>
							</g>
						</g>
					</g>
					<g>
						<g>
							<defs>
								<path id="SVGID_00000142137370463893191930000011786936867225099657_" d="M377.066,262.618l-0.012,4.342
									c-0.013,4.62-3.049,9.233-9.117,12.759c-12.208,7.094-32.067,7.089-44.355-0.005c-6.189-3.573-9.279-8.26-9.266-12.94
									l0.012-4.342c-0.013,4.679,3.077,9.366,9.266,12.939c12.288,7.094,32.147,7.099,44.355,0.005
									C374.016,271.85,377.053,267.237,377.066,262.618z"/>
							</defs>
							<use xlink:href="#SVGID_00000142137370463893191930000011786936867225099657_"  style="overflow:visible;fill:#322A89;"/>
							<clipPath id="SVGID_00000016786504314650793720000006345917979752642723_">
								<use xlink:href="#SVGID_00000142137370463893191930000011786936867225099657_"  style="overflow:visible;"/>
							</clipPath>
						</g>
					</g>
				</g>
				<g>
					<g>
						<g>
							<defs>
								<path id="SVGID_00000057124602208396532770000004274197716565927607_" d="M377.066,256.783l-0.012,4.343
									c-0.013,4.62-3.049,9.233-9.117,12.759c-12.208,7.095-32.067,7.09-44.355-0.005c-6.189-3.573-9.279-8.26-9.266-12.939
									l0.012-4.343c-0.013,4.68,3.077,9.367,9.266,12.94c12.288,7.094,32.147,7.099,44.355,0.005
									C374.016,266.015,377.053,261.402,377.066,256.783z"/>
							</defs>
							<use xlink:href="#SVGID_00000057124602208396532770000004274197716565927607_"  style="overflow:visible;fill:#322A89;"/>
							<clipPath id="SVGID_00000065786549014921892520000011574653231390158271_">
								<use xlink:href="#SVGID_00000057124602208396532770000004274197716565927607_"  style="overflow:visible;"/>
							</clipPath>
						</g>
					</g>
					<g>
						<g style="enable-background:new    ;">
							<g style="enable-background:new    ;">
								<defs>
									<path id="SVGID_00000006705948528501622420000015718972513459750023_" style="enable-background:new    ;" d="
										M377.066,256.783l-0.012,4.343c-0.013,4.62-3.049,9.233-9.117,12.759c-12.208,7.095-32.067,7.09-44.355-0.005
										c-6.189-3.573-9.279-8.26-9.266-12.939l0.012-4.343c-0.013,4.68,3.077,9.367,9.266,12.94
										c12.288,7.094,32.147,7.099,44.355,0.005C374.016,266.015,377.053,261.402,377.066,256.783z"/>
								</defs>
								<use xlink:href="#SVGID_00000006705948528501622420000015718972513459750023_"  style="overflow:visible;fill:#322A89;"/>
								<clipPath id="SVGID_00000126284322607667553120000007686467493172189370_">
									<use xlink:href="#SVGID_00000006705948528501622420000015718972513459750023_"  style="overflow:visible;"/>
								</clipPath>
								<g style="clip-path:url(#SVGID_00000126284322607667553120000007686467493172189370_);enable-background:new    ;">
									<g>
										<path style="fill:#322A89;" d="M377.066,256.783l-0.012,4.343c-0.004,1.44-0.301,2.878-0.893,4.283l0.012-4.342
											C376.764,259.661,377.062,258.223,377.066,256.783z"/>
									</g>
									<g>
										<path style="fill:#322A89;" d="M376.173,261.067l-0.012,4.342c-1.307,3.105-4.047,6.048-8.224,8.475
											c-6.246,3.63-14.495,5.402-22.709,5.315l0.012-4.342c8.213,0.086,16.463-1.685,22.709-5.315
											C372.126,267.114,374.866,264.172,376.173,261.067z"/>
									</g>
									<g>
										<path style="fill:#322A89;" d="M345.239,274.857l-0.012,4.342c-7.839-0.081-15.645-1.855-21.646-5.32
											c-6.189-3.573-9.279-8.26-9.266-12.939l0.012-4.343c-0.013,4.68,3.077,9.367,9.266,12.94
											C329.594,273.001,337.401,274.776,345.239,274.857z"/>
									</g>
								</g>
							</g>
							<g>
								<g>
									<path style="fill:#322A89;" d="M367.805,243.845c12.288,7.094,12.361,18.598,0.144,25.697
										c-12.208,7.095-32.067,7.089-44.355-0.005c-12.297-7.099-12.361-18.598-0.154-25.692
										C335.657,236.745,355.508,236.745,367.805,243.845z"/>
								</g>
							</g>
						</g>
					</g>
					<g>
						<g>
							<defs>
								<path id="SVGID_00000134240879731042810620000007610939889543976067_" d="M377.066,256.783l-0.012,4.343
									c-0.013,4.62-3.049,9.233-9.117,12.759c-12.208,7.095-32.067,7.09-44.355-0.005c-6.189-3.573-9.279-8.26-9.266-12.939
									l0.012-4.343c-0.013,4.68,3.077,9.367,9.266,12.94c12.288,7.094,32.147,7.099,44.355,0.005
									C374.016,266.015,377.053,261.402,377.066,256.783z"/>
							</defs>
							<use xlink:href="#SVGID_00000134240879731042810620000007610939889543976067_"  style="overflow:visible;fill:#322A89;"/>
							<clipPath id="SVGID_00000073721239419287480930000006202135986794570629_">
								<use xlink:href="#SVGID_00000134240879731042810620000007610939889543976067_"  style="overflow:visible;"/>
							</clipPath>
						</g>
					</g>
				</g>
				<g>
					<g>
						<g>
							<defs>
								<path id="SVGID_00000152948568755460673750000004539096089229091739_" d="M377.066,250.949l-0.012,4.343
									c-0.013,4.619-3.049,9.232-9.117,12.758c-12.208,7.094-32.067,7.09-44.355-0.005c-6.189-3.573-9.279-8.26-9.266-12.939
									l0.012-4.343c-0.013,4.68,3.077,9.367,9.266,12.94c12.288,7.094,32.147,7.099,44.355,0.005
									C374.016,260.18,377.053,255.568,377.066,250.949z"/>
							</defs>
							<use xlink:href="#SVGID_00000152948568755460673750000004539096089229091739_"  style="overflow:visible;fill:#322A89;"/>
							<clipPath id="SVGID_00000152955545810305915780000011854206571159012780_">
								<use xlink:href="#SVGID_00000152948568755460673750000004539096089229091739_"  style="overflow:visible;"/>
							</clipPath>
						</g>
					</g>
					<g>
						<g style="enable-background:new    ;">
							<g style="enable-background:new    ;">
								<defs>
									<path id="SVGID_00000158746184698527459530000018050715683648653192_" style="enable-background:new    ;" d="
										M377.066,250.949l-0.012,4.343c-0.013,4.619-3.049,9.232-9.117,12.758c-12.208,7.094-32.067,7.09-44.355-0.005
										c-6.189-3.573-9.279-8.26-9.266-12.939l0.012-4.343c-0.013,4.68,3.077,9.367,9.266,12.94
										c12.288,7.094,32.147,7.099,44.355,0.005C374.016,260.18,377.053,255.568,377.066,250.949z"/>
								</defs>
								<use xlink:href="#SVGID_00000158746184698527459530000018050715683648653192_"  style="overflow:visible;fill:#322A89;"/>
								<clipPath id="SVGID_00000005244716596858860470000011081881013973381528_">
									<use xlink:href="#SVGID_00000158746184698527459530000018050715683648653192_"  style="overflow:visible;"/>
								</clipPath>
								<g style="clip-path:url(#SVGID_00000005244716596858860470000011081881013973381528_);enable-background:new    ;">
									<g>
										<path style="fill:#322A89;" d="M377.066,250.949l-0.012,4.343c-0.004,1.439-0.301,2.878-0.893,4.283l0.012-4.342
											C376.764,253.826,377.062,252.388,377.066,250.949z"/>
									</g>
									<g>
										<path style="fill:#322A89;" d="M376.173,255.232l-0.012,4.342c-1.307,3.105-4.047,6.048-8.224,8.475
											c-6.246,3.63-14.495,5.402-22.709,5.316l0.012-4.343c8.213,0.086,16.463-1.685,22.709-5.315
											C372.126,261.279,374.866,258.337,376.173,255.232z"/>
									</g>
									<g>
										<path style="fill:#322A89;" d="M345.239,269.022l-0.012,4.343c-7.839-0.082-15.645-1.856-21.646-5.321
											c-6.189-3.573-9.279-8.26-9.266-12.939l0.012-4.343c-0.013,4.68,3.077,9.367,9.266,12.94
											C329.594,267.167,337.401,268.94,345.239,269.022z"/>
									</g>
								</g>
							</g>
							<g>
								<g>
									<path style="fill:#322A89;" d="M367.805,238.01c12.288,7.094,12.361,18.597,0.144,25.697
										c-12.208,7.094-32.067,7.089-44.355-0.005c-12.297-7.1-12.361-18.598-0.154-25.693
										C335.657,230.911,355.508,230.911,367.805,238.01z"/>
								</g>
							</g>
						</g>
					</g>
					<g>
						<g>
							<defs>
								<path id="SVGID_00000108270116912559954940000000338214984625595266_" d="M377.066,250.949l-0.012,4.343
									c-0.013,4.619-3.049,9.232-9.117,12.758c-12.208,7.094-32.067,7.09-44.355-0.005c-6.189-3.573-9.279-8.26-9.266-12.939
									l0.012-4.343c-0.013,4.68,3.077,9.367,9.266,12.94c12.288,7.094,32.147,7.099,44.355,0.005
									C374.016,260.18,377.053,255.568,377.066,250.949z"/>
							</defs>
							<use xlink:href="#SVGID_00000108270116912559954940000000338214984625595266_"  style="overflow:visible;fill:#322A89;"/>
							<clipPath id="SVGID_00000142164584129027582940000014534119206431440263_">
								<use xlink:href="#SVGID_00000108270116912559954940000000338214984625595266_"  style="overflow:visible;"/>
							</clipPath>
						</g>
					</g>
				</g>
			</g>
		</g>
		<g>
			<g>
				<path style="fill:#C5C8EE;" d="M397.841,230.471c-0.419,1.195-14.463,28.329-18.681,43.059
					c-0.247,0.862-0.805,3.286-0.895,3.703c-0.836,3.915-3.336,7.767-7.838,10.482c-14.042,8.429-35.263,8.396-49.321,0
					c-4.187-2.501-6.663-5.966-7.713-9.556c-0.212-0.723-0.775-3.349-0.939-3.964c-4.159-15.518-18.473-42.627-18.853-43.66
					C329.103,230.518,362.34,230.486,397.841,230.471z"/>
			</g>
		</g>
		<g>
			<path style="fill:#C5C8EE;" d="M405.243,201.713c0,10.311-2.625,20.02-7.242,28.464c-1.661,3.068-3.59,5.978-5.756,8.682
				c-2.262,2.262-5.045,4.364-8.334,6.278c-10.12,5.882-23.641,9.108-38.062,9.108c-14.406,0-27.958-3.226-38.142-9.108
				c-3.716-2.135-6.815-4.539-9.235-7.132c-1.803-2.34-3.447-4.839-4.871-7.432c-4.76-8.54-7.464-18.391-7.464-28.859
				c0-32.875,26.661-59.553,59.553-59.553C378.582,142.161,405.243,168.838,405.243,201.713z"/>
		</g>
		<g>
			<g>
				<path style="fill:#ACAFF1;" d="M368.462,262.905c12.654,7.305,12.729,19.151,0.149,26.462
					c-12.571,7.306-33.021,7.301-45.675-0.005c-12.663-7.31-12.729-19.151-0.158-26.457
					C335.358,255.595,355.8,255.595,368.462,262.905z"/>
			</g>
		</g>
		<g style="opacity:0.5;">
			<g>
				<path style="fill:#E6E6F0;" d="M320.801,154.92c12.709-4.209,22.008,3.13,20.761,16.408
					c-1.245,13.268-12.562,27.434-25.271,31.643c-12.718,4.212-22.008-3.13-20.762-16.398
					C296.775,173.294,308.084,159.131,320.801,154.92z"/>
			</g>
		</g>
		<g>
			<g>
				<g>
					<path style="fill:#322A89;" d="M348.5,278.986c-0.939,0-1.943-0.297-2.955-0.881l-5.445-3.144
						c-2.329-1.344-4.418-4.118-5.324-7.066l-16.325-53.087c-0.216-0.706,0.179-1.453,0.884-1.669
						c0.704-0.223,1.451,0.18,1.669,0.884l16.324,53.088c0.709,2.304,2.357,4.529,4.107,5.538l5.445,3.144
						c0.785,0.455,1.541,0.624,2.066,0.461c0.336-0.104,0.589-0.346,0.777-0.737l16.325-34.237c0.318-0.665,1.113-0.949,1.778-0.63
						c0.668,0.317,0.949,1.113,0.631,1.78l-16.325,34.237c-0.511,1.07-1.34,1.81-2.394,2.137
						C349.342,278.925,348.928,278.986,348.5,278.986z"/>
				</g>
			</g>
			<g>
				<g>
					<path style="fill:#322A89;" d="M336.567,232.192c-1.948,0-4.076-0.635-6.258-1.895c-7.27-4.197-13.183-14.44-13.183-22.831
						c0.001-4.358,1.54-7.645,4.335-9.258c2.791-1.616,6.412-1.3,10.183,0.876c7.27,4.196,13.182,14.437,13.182,22.83
						c0,4.357-1.538,7.646-4.334,9.259C339.313,231.854,337.988,232.192,336.567,232.192z M325.393,199.862
						c-0.959,0-1.836,0.218-2.597,0.658c-1.934,1.116-2.999,3.582-2.999,6.945c0,7.542,5.315,16.746,11.847,20.518
						c2.912,1.682,5.579,1.994,7.512,0.876c1.935-1.116,2.999-3.583,2.999-6.946c0-7.543-5.314-16.746-11.846-20.517
						C328.545,200.379,326.869,199.862,325.393,199.862z"/>
				</g>
				<g>
					<path style="fill:#322A89;" d="M361.596,246.64c-1.951,0-4.078-0.635-6.261-1.895c-7.268-4.196-13.18-14.438-13.18-22.831
						c0-4.356,1.539-7.643,4.331-9.258c2.798-1.616,6.416-1.3,10.186,0.876c7.268,4.197,13.18,14.44,13.18,22.832
						c0,4.356-1.539,7.644-4.332,9.258C364.343,246.302,363.018,246.64,361.596,246.64z M350.422,214.311
						c-0.962,0-1.839,0.218-2.6,0.658c-1.933,1.116-2.996,3.582-2.996,6.945c0,7.543,5.315,16.748,11.844,20.519
						c2.916,1.683,5.589,1.995,7.516,0.876c1.933-1.117,2.997-3.582,2.997-6.945c0-7.542-5.315-16.747-11.845-20.519
						C353.572,214.827,351.898,214.311,350.422,214.311z"/>
				</g>
				<g>
					<path style="fill:#322A89;" d="M349.081,239.415c-1.948,0-4.076-0.635-6.259-1.894c-7.268-4.197-13.181-14.439-13.181-22.831
						c0-4.356,1.538-7.645,4.333-9.258c2.793-1.614,6.407-1.304,10.184,0.876c7.268,4.197,13.183,14.438,13.183,22.83
						c0,4.356-1.539,7.645-4.335,9.258C351.83,239.077,350.503,239.415,349.081,239.415z M337.907,207.087
						c-0.96,0-1.836,0.218-2.598,0.659c-1.933,1.115-2.998,3.582-2.998,6.944c0,7.542,5.314,16.746,11.846,20.518
						c2.915,1.683,5.581,1.994,7.513,0.876c1.935-1.117,2.999-3.582,2.999-6.945c0-7.542-5.315-16.746-11.847-20.517
						C341.057,207.604,339.383,207.087,337.907,207.087z"/>
				</g>
			</g>
		</g>
		<path style="opacity:0.2;fill:#ACAFF1;" d="M405.243,201.713c0-29.58-21.589-54.131-49.875-58.757
			c22.79,13.202,37.357,41.777,31.487,67.212c-4.871,23.543-13.801,48.708-34.908,60.074c-14.648,7.168-28.218,5.118-41.08-1.178
			c0.618,1.804,1.16,3.532,1.588,5.131c0.164,0.614,0.727,3.24,0.939,3.964c1.05,3.59,3.526,7.055,7.713,9.556
			c14.058,8.396,35.279,8.429,49.321,0c4.502-2.715,7.002-6.567,7.838-10.482c0.089-0.417,0.647-2.841,0.895-3.703
			c4.218-14.729,18.262-41.863,18.681-43.059c-0.003,0-0.005,0-0.007,0c0.054-0.099,0.113-0.194,0.167-0.293
			C402.619,221.733,405.243,212.024,405.243,201.713z"/>
	</g>
	<g>
		<g>
			<g>
				<path style="fill:#E7A07D;" d="M236.808,298.286c-0.575-1.22-5.67-13.245-5.768-17.03c-0.201-7.738,7.885-7.471,10.396,4.203
					c0.714,3.32,2.972,9.994,2.946,11.983C244.322,302.059,239.75,304.528,236.808,298.286z"/>
			</g>
			<g>
				<path style="fill:#E7A07D;" d="M240.936,295.818l2.651-2.404c0.103,0.334,1.435,3.225,1.779,3.37
					c3.117,1.315,5.164,2.102,8.159,1.974c0.625-0.027,1.354,0.321,1.844,0.704c0.625,0.488,0.152,1.084,0.49,3.092
					c0.418,2.476-0.746,1.413-8.662,1.465c-2.05,0.157-4.325,0.306-6.261-0.802V295.818z"/>
			</g>
			<g>
				<path style="fill:#E7A07D;" d="M218.38,277.712c2.238-1.018,3.053-1.575,5.404-2.106c0.381-0.086,1.663,0.397,2.045,0.316
					c2.858-0.605,5.902-0.47,8.552,0.696c0.03,0.013,0.058,0.028,0.088,0.042v17.544h-16.813L218.38,277.712z"/>
			</g>
			<g>
				<path style="fill:#E6E6F0;" d="M218.38,277.712c-0.367,0.222,2.123,10.695,10.322,7.174c4.168-1.79,2.016-4.896,3.588-7.736
					c0.3-0.542,0.869-0.803,1.476-0.848c3.762-0.281,4.386,4.443,5.674,7.014c1.582,3.155,3.691,6.849,3.473,10.517
					c-0.084,1.417-0.5,2.796-0.812,4.174c-0.258,1.142-0.477,2.32-0.78,3.449c-0.219,0.816-0.554,1.469-0.613,2.332
					c-0.166,2.431,0.052,4.93,0.493,7.322c0.297,1.609,0.719,3.217,0.657,4.852c-0.135,3.519-3.446,5.948-6.281,7.509
					c-2.347,1.292-4.989,2.233-7.598,2.837c-3.245,0.752-6.44,0.411-9.63-0.471c-0.961-0.266-1.921-0.57-2.811-1.023
					c-0.73-0.371-1.897-1.024-2.236-1.825c-0.355-0.84,0.026-2.284,0.217-3.147c0.24-1.087,0.594-2.145,0.959-3.196
					c1.851-5.337,4.7-9.569,1.748-18.566C211.822,284.654,204.245,286.257,218.38,277.712z"/>
			</g>
			<g>
				<g>
					<path style="fill:#F3B69A;" d="M208.221,308.121c-0.074-1.67-0.185-17.851,1.401-22.226c3.211-8.86,11.839-4.846,9.314,9.771
						c-0.715,4.137-1.266,12.846-2.183,15.107C214.624,316.024,208.599,316.663,208.221,308.121z"/>
				</g>
			</g>
			<g>
				<g>
					<path style="fill:#E7A07D;" d="M220.176,278.561c-0.186,6.302,10.811,6.409,10.653,0.482c-0.22-8.26-0.687-9.208-4.308-10.489
						c-0.991-0.351-2.028-0.621-3.076-0.641c-3.821-0.076-2.341,2.01-2.198,3.466C221.672,275.695,220.243,276.293,220.176,278.561z
						"/>
				</g>
			</g>
			<g>
				<path style="fill:#322A89;" d="M214.663,268.849c0.078-0.861,0.204-1.716,0.409-2.556c0.436-1.788,1.531-5.537,3.687-7.325
					c0.941,0.205,0.778,3.046,1.688,3.343c0.866,0.284,1.578,0.964,2.331,1.468c0.462,0.31,1.259,0.652,1.417,1.246
					c0.299,1.121-1.378,2.75-1.923,3.661c-1.204,2.012-1.566,4.424-1.704,6.728c-0.146,2.459,0.409,4.963,1.617,7.112
					c0.936,1.667,2.239,3.116,3.08,4.833c1.268,2.589,1.377,5.72,0.29,8.39c-0.669-1.518-1.353-3.06-2.425-4.325
					c-1.413-1.668-3.41-2.747-4.883-4.362c-1.381-1.513-2.244-3.441-2.765-5.421c-0.847-3.216-0.971-6.561-0.941-9.867
					C214.549,270.8,214.575,269.82,214.663,268.849z"/>
			</g>
			<g>
				<path style="fill:#F3B69A;" d="M224.585,274.817c-0.292-0.303-0.575-0.613-0.85-0.93c-0.952-1.099-2.031-2.374-2.632-3.699
					c-1.93-4.258-1.466-9.637,2.269-12.763c2.651-2.217,6.546-2.832,9.751-1.537c0.867,0.35,1.679,0.826,2.461,1.341
					c0.675,0.444,1.341,0.93,1.821,1.58c0.315,0.427,0.542,0.912,0.744,1.404c0.227,0.552,0.428,1.121,0.509,1.713
					c0.365,2.661-1.645,5.125-0.934,7.787c0.156,0.582,0.424,1.133,0.56,1.718c0.136,0.586,0.122,1.245-0.243,1.719
					c-0.346,0.449-0.762,0.649-0.993,1.164c-0.314,0.697-0.557,1.447-0.841,2.159c-0.31,0.777-0.624,1.563-1.108,2.246
					c-1.184,1.67-2.632,1.626-4.332,0.738C228.471,278.257,226.376,276.677,224.585,274.817z"/>
			</g>
			<g>
				<path style="fill:#322A89;" d="M217.929,261.79c0.721-5.027,2.299-5.722,4.388-7.124c2.026-1.359,4.605-1.792,7.01-1.459
					c2.459,0.341,4.78,1.445,6.723,2.969c0.078,0.061,0.156,0.123,0.232,0.186c1.004,0.818,1.873,1.725,2.32,2.96
					c0.398,1.096,0.493,2.171,0.467,3.321c-0.005,0.23-0.017,0.478-0.159,0.658c-0.144,0.182-0.385,0.251-0.613,0.295
					c-1.825,0.354-3.943-0.267-5.212-1.638c-0.293,1.249-1.335,2.16-2.322,2.981c-1.033,0.861-2.29,1.672-3.196,2.663
					c-0.609,0.665-0.886,1.38-1.746,1.828c-0.786,0.407-1.302,0.388-2.049-0.054c-0.67-0.397-1.334-1.021-2.162-0.625
					c-0.766,0.368-0.407,1.219-0.31,1.913c0.019,0.12,0.016,1.702,0.016,1.702s-0.599-0.616-0.776-0.8
					C219.56,270.549,217.196,266.907,217.929,261.79z"/>
			</g>
			<g>
				<path style="fill:#F3B69A;" d="M222.24,266.909c-1.709-0.301-2.375,1.789-1.371,3.566c0.293,0.519,0.857,1.012,1.267,1.444
					c2.801,2.958,3.882,0.199,2.998-0.8C223.081,268.797,224.39,267.288,222.24,266.909z"/>
			</g>
			<g>
				<path style="fill:#E7A07D;" d="M222.919,270.941c-0.179-0.203-2.016-1.571-0.595-2.216c0.393-0.179,0.771,0.19,0.786,0.588
					c0.008,0.206-0.079,0.408-0.07,0.614c0.005,0.122,0.044,0.241,0.096,0.351c0.143,0.303,0.708,0.639,0.548,1.042
					C223.541,271.676,223.022,271.057,222.919,270.941z"/>
			</g>
		</g>
		<path style="fill:#F37874;" d="M283.065,333.792c-0.925-0.07-1.618,0.275-2.456,0.649c-1.955,0.87-3.869,1.843-5.805,2.758
			c-1.579,0.746-3.419,1.523-5.163,1.151c-1.396-0.297-2.187-0.699-3.109,0.811c-0.527,0.865-0.133,1.414-0.146,2.3
			c-0.012,0.813-0.246,1.497-0.082,2.335c0.342,1.75,1.539,3.218,3.088,3.923c0.997,0.453,2.195,0.479,3.221-0.004
			c1.159-0.546,2.014-1.615,3.021-2.434c1.702-1.384,3.844-1.658,5.751-2.58c0.76-0.367,1.494-0.753,2.192-1.239
			c0.76-0.529,1.606-1.135,2.028-2.021c0.52-1.093-0.035-2.491-0.46-3.473c-0.303-0.701-1.253-2.105-2.059-2.175
			C283.079,333.793,283.072,333.793,283.065,333.792z"/>
		<path style="fill:#F37874;" d="M248.734,341.754c0.025,0.044,0.052,0.089,0.082,0.134c0.068,0.102,0.191,0.202,0.206,0.329
			c0.025,0.223-0.233,0.517-0.34,0.691c-0.36,0.587-0.868,1.07-1.289,1.612c-0.399,0.514-0.641,1.034-0.897,1.626
			c-0.208,0.481-0.333,0.958-0.386,1.476c-0.083,0.82-0.047,1.681,0.001,2.503c0.038,0.65,0.168,1.301,0.261,1.95
			c0.169,1.174,0.289,2.367,0.535,3.528c0.202,0.958,0.527,1.86,0.699,2.822c0.132,0.738,0.213,1.734-0.5,2.232
			c-1.419,0.992-4.905-0.632-5.801-1.666c-1.101-1.27-0.998-3.075-1.417-4.621c-0.525-1.937-1.727-2.693-3.186-4.09
			c-0.791-0.758-1.583-1.549-1.589-2.698c-0.006-1.072,0.713-2.062,1.426-2.823c0.65-0.695,1.392-1.192,2.165-1.74
			c0.697-0.494,1.531-1.165,2.037-1.848c0.372-0.501,0.634-1.07,1.059-1.547c0.785-0.881,1.934-1.253,3.027-1.652
			c0.594-0.217,0.992-0.354,1.4,0.168c0.462,0.591,0.944,1.159,1.433,1.729c0.372,0.434,0.631,0.762,0.829,1.313
			C248.565,341.395,248.631,341.573,248.734,341.754z"/>
		<path style="fill:#181060;" d="M238.539,311.691c3.533-1.396,19.589-5.438,24.621-5.803c1.218-0.088,2.333,0.016,3.476,0.497
			c0.949,0.399,1.607,1.197,2.167,2.057c0.664,1.02,0.823,2.381,0.938,3.56c0.145,1.482-0.513,3.251-1.107,4.58
			c-0.536,1.2-1.202,2.166-2.182,3.054c-1.749,1.586-3.538,2.872-5.723,3.793c-2.454,1.035-39.426,2.677-41,0.907
			C215.131,319.162,227.014,316.246,238.539,311.691z"/>
		<path style="fill:#181060;" d="M266.937,308.026c2.179-1.777,3.106,3.26,3.229,4.446c0.548,5.3-2.042,10.948-5.293,15.096
			c-5.231,6.674-16.093,20.779-19.3,20.978c-1.066,0.066-3.201-1.59-3.812-2.04c-1.021-0.753-1.903-1.717-2.159-2.957
			c-0.313-1.512,0.723-2.823,1.452-4.099c0.696-1.219,7.26-12.677,9.958-15.967c2.752-3.354,5.458-7.132,7.47-10.889
			C260.232,309.326,262.515,307.677,266.937,308.026z"/>
		<path style="fill:#322A89;" d="M225.907,335.642c-3.524,0.811-9.021,0.08-11.014-2.888c-1.426-2.123-3.238-7.568-0.996-10.421
			c2.987-3.801,12.967-6.563,22.288-8.776c2.798-0.665,5.722-0.998,8.595-1.155c2.364-0.129,4.939-0.122,7.148,0.811
			c1.794,0.758,3.059,1.951,4.172,3.489c0.844,1.166,1.263,2.498,1.289,3.935c0.034,1.859-1.004,2.952-2.416,3.986
			c-1.206,0.882-2.704,1.488-4.035,2.16C247.821,328.353,229.559,334.801,225.907,335.642z"/>
		<path style="fill:#322A89;" d="M254.882,315.195c4.12,4.078,15.811,18.788,18.211,22.808c1.508,2.528-3.966,8.208-6.947,6.292
			c-2.009-1.291-3.925-2.726-5.779-4.213c-1.263-1.013-2.49-2.063-3.721-3.11c-1.635-1.39-3.205-2.825-4.801-4.249
			c-0.935-0.835-1.672-1.859-2.638-2.619c-0.942-0.74-1.613-2.063-2.171-3.102c-1.187-2.21-1.924-4.793-1.316-7.415
			c0.215-0.926,1.145-3.224,1.993-3.761C249.014,315.001,253.806,317.257,254.882,315.195z"/>
		<g>
			<g>
				<path style="fill:#E7A07D;" d="M259.934,298.331c0.428,0.13,0.847,0.287,1.255,0.463c0.946,0.408,1.808,1.047,2.386,1.901
					c0.037,0.054,0.074,0.119,0.054,0.181c-0.026,0.08-0.126,0.103-0.21,0.112c-1.198,0.124-2.423-0.023-3.558-0.428
					c-0.095-0.033-0.195-0.069-0.294-0.068C259.464,299.772,259.657,299.051,259.934,298.331z"/>
			</g>
			<g>
				<polygon style="fill:#F37874;" points="265.883,312.08 242.457,314.084 242.157,311.995 261.988,309.535 265.832,310.358 				
					"/>
			</g>
			<g>
				<polygon style="fill:#F37874;" points="274.587,300.013 275.355,300.933 265.883,312.08 265.77,308.487 				"/>
			</g>
			<g>
				<polygon style="fill:#D8DAEE;" points="265.832,310.358 274.587,300.013 253.007,301.095 244.412,309.992 				"/>
			</g>
			<g>
				<polygon style="fill:#D8DAEE;" points="265.832,310.358 252.375,311.834 233.463,313.105 244.412,309.992 				"/>
			</g>
			<g>
				<polygon style="fill:#ECE7DF;" points="265.832,310.358 244.412,309.992 235.403,310.377 241.155,312.025 				"/>
			</g>
			<g>
				<path style="fill:#E7A07D;" d="M250.436,299.368c1.235,0.106,0.924-0.46,2.764-0.599c1.839-0.139,3.837-1.315,6.735-0.438
					c-0.271,0.705-0.428,1.395-0.373,2.152c-0.455,0.013,0.243,1.043,0.361,1.182c0.234,0.278,0.56,0.575,0.479,0.929
					c-0.058,0.253-0.326,0.416-0.586,0.431c-1.086,0.063-1.623-1.39-3.43-1.108c-3.709,0.577-1.807-0.521-4.979,0.82
					c-1.199,0.508-0.489,0.192-0.638-0.876C250.554,300.314,252.156,300.158,250.436,299.368z"/>
			</g>
			<g>
				<path style="fill:#F3B69A;" d="M233.479,310.644c1.165-0.033,2.973-0.885,2.973-0.885c0.444-0.021-1.091,0.991-1.071,1.502
					c0.098,2.47,0.509,4.674-1.231,4.273c-2.073-0.479-16.833,1.167-19.476,0.704c-1.857-0.325-3.697-1.202-4.941-2.795
					c-1.273-1.63,6.404-5.823,7.232-5.479C217.933,308.365,229.84,310.748,233.479,310.644z"/>
			</g>
			<g>
				<path style="fill:#F3B69A;" d="M235.268,310.261c3.562-1.411,3.563-1.584,5.496-1.382c1.037,0.109,2.42,1.395,2.647,1.861
					c0.412,0.848-0.897,0.766-1.178,0.671c-0.322-0.108-0.559-0.386-0.869-0.524c-1.218-0.542-2.431,1.083-3.029,1.612
					c-1.865,1.649-3.853-0.259-3.846-1.46C234.491,310.56,234.867,310.42,235.268,310.261z"/>
			</g>
			<g>
				<path style="fill:#F3B69A;" d="M233.768,311.453c0.172-0.457,1.602-0.747,2.003-0.803c4.235-0.592,1.481-0.841,5.165,0.832
					c1.075,0.488,2.42,0.547,3.105,0.382c0.42-0.101,0.909-0.295,1.244-0.021c0.257,0.21,0.262,0.619,0.089,0.904
					c0.578-0.186,0.551,0.843,0.09,1.274c-0.891,0.833,0.462,1.153-1.31,2.191c3.152,2.658-10.504,0.119-11.504-1.621
					C232.137,313.697,233.412,312.401,233.768,311.453z"/>
			</g>
		</g>
	</g>
	<g>
		<g>
			<g>
				<path style="fill:#181060;" d="M310.988,369.463c-0.179-0.122-7.356-4.475-8.66-5.08c-0.905-0.42-4.266-2.933-5.117-3.743
					c-1.282-1.22-1.393-2.607-1.005-4.266c0.573-2.452,5.018-2.503,11.364,2.882c0.19,0.161,5.475,4.461,6.309,5.646
					C315.427,367.103,313.391,371.099,310.988,369.463z"/>
				<path style="fill:#181060;" d="M307.567,349.993c-2.243,2.598-0.297,5.376,1.225,7.417c2.403,3.221,5.751,5.829,8.634,6.614
					c2.54,0.691,4.514-0.005,5.197-0.77c1.361-1.524,2.308-4.174,1.233-6.055c-1.258-2.201-3.85-4.166-5.755-5.787
					C312.193,346.381,308.824,348.539,307.567,349.993z"/>
				<path style="fill:#322A89;" d="M298.645,354.313c-1.323,0.212-2.213,1.197-2.246,2.54c-0.037,1.517,0.721,2.778,1.993,3.537
					c3.491,2.083,7.063,4.071,10.875,5.485c1.309,0.486,2.658,0.906,4.049,1.031c1.391,0.124,2.838-0.062,4.065-0.73
					c0.501-0.273,0.958-0.622,1.365-1.022c0.314-0.309,0.599-0.652,0.809-1.039c0.494-0.912,0.535-2.034,0.21-3.02
					c-0.736-2.23-2.853-3.074-4.942-3.659c-0.844-0.236-1.704-0.408-2.568-0.556c-0.414-0.071-0.96-0.07-1.344-0.256
					C306.21,354.35,300.99,353.937,298.645,354.313z"/>
				<g>
					<g>
						<path style="fill:#C5C8EE;" d="M325.201,339.198c-0.728-8.175-7.669-3.906-10.063-3.044c-1.715,0.618-3.36,1.428-4.896,2.41
							c-4.149,2.652-0.674,4.454-1.054,15.561c-0.04,1.157-1.249,4.364,1.322,6.297c4.849,3.645,12.228,1.707,13.888-2.638
							C324.905,356.459,325.309,340.413,325.201,339.198z"/>
					</g>
				</g>
				<path style="fill:#D8DAE4;" d="M307.775,341.608c0.71-1.167,1.613-2.328,2.413-2.487c2.004-0.4,4.003,1.742,4.019,2.965
					c0.022,1.697-0.207,1.633-2.291,4.937c-2.404,3.81-3.43,5.818-5.418,5.951c-0.757,0.051-2.093,0.254-2.569-0.336
					c-1.155-1.43-0.158-2.419-0.059-2.626C306.878,343.633,307.698,341.735,307.775,341.608z"/>
				<g>
					<g style="enable-background:new    ;">
						<g style="enable-background:new    ;">
							<defs>
								<path id="SVGID_00000042725057595700793730000014583223277141432755_" style="enable-background:new    ;" d="
									M291.291,355.681l0.001,0.386c0.001,0.343,0.227,0.686,0.677,0.948c0.907,0.527,2.383,0.527,3.297,0
									c0.46-0.265,0.689-0.614,0.688-0.961l-0.001-0.386c0.001,0.348-0.228,0.696-0.688,0.962c-0.914,0.527-2.39,0.527-3.297,0
									C291.517,356.367,291.292,356.024,291.291,355.681z"/>
							</defs>
							<use xlink:href="#SVGID_00000042725057595700793730000014583223277141432755_"  style="overflow:visible;fill:#4789C5;"/>
							<clipPath id="SVGID_00000131327259018048867810000012803718742700792735_">
								<use xlink:href="#SVGID_00000042725057595700793730000014583223277141432755_"  style="overflow:visible;"/>
							</clipPath>
							<g style="clip-path:url(#SVGID_00000131327259018048867810000012803718742700792735_);enable-background:new    ;">
								<path style="fill:#4789C5;" d="M291.291,355.681l0.001,0.386c0.001,0.208,0.083,0.415,0.248,0.604l-0.001-0.386
									C291.374,356.095,291.291,355.888,291.291,355.681z"/>
								<path style="fill:#4789C5;" d="M291.539,356.285l0.001,0.386c0.108,0.124,0.251,0.24,0.429,0.344
									c0.329,0.191,0.733,0.313,1.158,0.366l-0.001-0.386c-0.425-0.053-0.829-0.174-1.158-0.366
									C291.79,356.525,291.647,356.409,291.539,356.285z"/>
								<path style="fill:#4789C5;" d="M293.126,356.995l0.001,0.386c0.746,0.092,1.557-0.03,2.139-0.366
									c0.46-0.265,0.689-0.614,0.688-0.961l-0.001-0.386c0.001,0.348-0.228,0.696-0.688,0.962
									C294.683,356.965,293.872,357.086,293.126,356.995z"/>
							</g>
						</g>
						<g>
							<path style="fill:#4D4BCF;" d="M291.979,354.719c-0.914,0.527-0.919,1.383-0.011,1.91c0.907,0.527,2.383,0.527,3.297,0
								c0.913-0.527,0.918-1.383,0.011-1.91C294.369,354.192,292.892,354.192,291.979,354.719z"/>
						</g>
					</g>
				</g>
				<g>
					<path style="fill:#E7A07D;" d="M298.608,352.932c-1.658,0.036-4.44,0.782-5.116,1.839c-0.778,1.216-1.055,1.278-1.004,1.713
						c0.131,1.112,0.837,0.385,1.074,0.52c0.266,0.151,0.064,0.324,0.46,0.979c0.322,0.532,0.529,0.086,0.734,0.179
						c0.169,0.076,0.11,0.304,0.32,0.338c0.076,0.013,0.15-0.043,0.23-0.02c0.197,0.058,0.068,0.231,0.646,0.317
						c0.549,0.082,0.244-1.267,1.357-1.811c0.278-0.136,0.578-0.22,0.866-0.332c0.351-0.136,0.684-0.315,0.991-0.532
						c0.261-0.184,0.76-0.586,0.901-0.661L298.608,352.932z"/>
				</g>
				<path style="fill:#D8DAE4;" d="M297.435,354.856c0.376,0.651,0.989,1.172,1.697,1.375c0.906,0.26,1.844-0.341,2.662-0.685
					c1.091-0.459,2.176-0.934,3.251-1.43c0.749-0.345,1.538-0.673,2.232-1.122c0.427-0.276,1.206-0.96,1.699-1.524
					c0.333-0.382-0.582-0.714-1.017-1.223c-0.776-0.909-0.651-2.344-1.778-2.362c-1.13-0.018-8.541,4.807-8.848,5.043
					c-0.266,0.204-0.309,0.312-0.29,0.662C297.069,354.03,297.209,354.466,297.435,354.856z"/>
				<path style="fill:#F3B69A;" d="M313.676,334.763c-0.107-0.731-0.66-0.562-0.38-1.225c1.108-2.63,3.147-1.885,3.345-1.885
					c4.391,0.015,2.12,0.367,3.066,3.281c0.131,0.403,1.271,2.455-1.034,3.569c-1.458,0.705-4.44,0.421-4.959-0.422
					C313.295,337.401,313.898,336.283,313.676,334.763z"/>
				<path style="fill:#F3B69A;" d="M310.536,324.989c-0.396,0.482-0.705,1.024-0.8,1.66c-0.212,1.417,0.359,2.872,0.051,4.278
					c-0.298,1.362,0.286,4.454,2.971,5.247c1.359,0.401,4.039-0.069,4.902-0.482c1.158-0.555,1.922-1.676,2.606-2.762
					C325.875,324.023,314.34,320.359,310.536,324.989z"/>
				<path style="fill:#181060;" d="M321.028,322.466c-0.108-0.225-0.105-0.518-0.247-0.752c-0.172-0.286-0.492-0.503-0.824-0.47
					c-0.142,0.015-0.28,0.073-0.423,0.071c-0.439-0.006-0.656-0.518-0.976-0.818c-0.351-0.33-0.914-0.408-1.342-0.186
					c-0.123,0.064-0.237,0.15-0.371,0.182c-0.371,0.088-0.719-0.262-1.1-0.247c-0.414,0.015-0.742,0.454-1.154,0.412
					c-0.161-0.016-0.304-0.105-0.456-0.157c-0.356-0.122-0.777-0.027-1.047,0.237c-0.133,0.131-0.236,0.302-0.404,0.383
					c-0.2,0.096-0.436,0.039-0.656,0.061c-0.353,0.035-0.674,0.293-0.782,0.631c-0.097,0.303-0.105,0.732-0.416,0.797
					c-0.107,0.022-0.217-0.015-0.326-0.025c-0.361-0.033-0.692,0.244-0.84,0.574c-0.149,0.33-0.154,0.704-0.158,1.066
					c-0.225-0.045-0.445,0.134-0.528,0.347c-0.083,0.213-0.063,0.451-0.042,0.679c0.058,0.618,0.14,1.291,0.582,1.727
					c0.126,0.124,0.28,0.227,0.362,0.384c0.084,0.16,0.081,0.35,0.126,0.525c0.08,0.313,0.305,0.479,0.293,0.841
					c-0.008,0.256-0.071,0.509-0.056,0.764c0.014,0.256,0.133,0.53,0.371,0.625c0.15,0.06,0.33,0.042,0.462,0.136
					c0.146,0.105,0.177,0.312,0.151,0.49c-0.026,0.178-0.096,0.35-0.102,0.529c-0.007,0.18,0.076,0.384,0.248,0.435
					c0.2,0.06,0.426-0.109,0.617-0.023c0.333,0.149,0.075,0.778,0.388,0.966c0.228,0.137,0.534-0.108,0.778-0.003
					c0.361,0.155,0.166,0.833,0.522,0.998c0.188,0.087,0.44-0.031,0.605,0.096c0.181,0.139,0.095,0.436,0.2,0.64
					c0.103,0.2,0.359,0.256,0.582,0.289c0.403,0.06,0.864,0.061,1.247,0.196c0.3,0.105,0.546,0.322,0.824,0.475
					c0.278,0.153,0.636,0.238,0.906,0.071c0.271-0.168,0.41-0.56,0.728-0.587c0.231-0.02,0.42,0.174,0.638,0.254
					c0.366,0.134,0.786-0.08,1.012-0.397c0.227-0.317,0.305-0.713,0.378-1.096c0.363,0.119,0.772-0.092,0.984-0.409
					c0.212-0.318,0.263-0.715,0.266-1.097c0.001-0.165-0.003-0.344,0.093-0.479c0.078-0.111,0.209-0.171,0.319-0.252
					c0.54-0.397,0.512-1.199,0.426-1.864c-0.018-0.141-0.036-0.289,0.016-0.422c0.053-0.137,0.17-0.237,0.268-0.346
					c0.383-0.429,0.479-1.091,0.233-1.61c-0.068-0.145-0.162-0.286-0.168-0.446c-0.006-0.152,0.069-0.294,0.123-0.437
					c0.269-0.719-0.072-1.614-0.753-1.971c0.083,0.044,0.03-0.666-0.007-0.743c-0.127-0.263-0.41-0.418-0.657-0.548
					c-0.215-0.114-0.613-0.16-0.787-0.319C321.099,322.589,321.059,322.53,321.028,322.466z"/>
				<path style="fill:#F3B69A;" d="M312.752,330.362c1.075-0.091,1.371,1.241,0.65,2.286c-0.21,0.305-0.588,0.579-0.866,0.824
					c-1.901,1.676-2.416-0.093-1.813-0.663C312.126,331.484,311.399,330.476,312.752,330.362z"/>
				<path style="fill:#E7A07D;" d="M312.462,332.398c0.122-0.116,1.337-0.861,0.492-1.34c-0.234-0.132-0.488,0.074-0.519,0.32
					c-0.016,0.127,0.026,0.257,0.009,0.384c-0.01,0.075-0.04,0.147-0.079,0.212c-0.106,0.179-0.475,0.356-0.398,0.614
					C312.035,332.818,312.392,332.463,312.462,332.398z"/>
			</g>
			<path style="fill:#F3B69A;" d="M316.981,371.203c-0.241,0.408-0.498,0.807-0.774,1.192c-0.324,0.452-0.543,0.876-1.144,0.99
				c-0.974,0.185-1.694-0.706-2.101-1.467c-0.228-0.426-0.404-0.884-0.519-1.354c-0.172-0.702-0.694-1.325-1.108-1.897
				c-0.656-0.906-1.93-2.368-1.133-3.522c0.601-0.87,2.077-0.85,2.897-0.349c0.536,0.327,0.951,0.816,1.357,1.296
				c0.772,0.915,1.608,1.739,2.186,2.795c0.201,0.367,0.396,0.743,0.506,1.149C317.284,370.54,317.242,370.762,316.981,371.203z"/>
			<path style="fill:#F3B69A;" d="M321.43,368.572c-2.715,2.241-2.384,0.218-2.589-0.342c-0.059-0.165-1.98-2.658,1.191-4.261
				c1.932-0.977,1.056-1.121,2.92-2.341c1.873-1.226,2.952,0.2,2.917,1.239c-0.047,1.393-1.116,1.948-1.876,2.945
				C323.25,366.784,322.395,367.775,321.43,368.572z"/>
		</g>
		<g>
			<g>
				<path style="fill:#F3B69A;" d="M299.248,357.524c-1.221-0.991-3.557,0.538-3.755,1.523c-0.245,1.222,0.176,1.469,1.223,4.527
					c1.208,3.527,1.953,6.637,3.423,7.119c0.56,0.184,2.13-3.392,2.089-3.578C300.97,361.401,300.62,358.637,299.248,357.524z"/>
				<path style="fill:#F3B69A;" d="M301.585,376.457c0,0.365-0.124,1.012,0.016,1.431c0.287,0.858,0.951,0.823,1.71,0.845
					c0.541,0.015,1.06,0.103,1.611,0.103c0.702,0,1.323-0.233,2.008-0.276c0.334-0.021,0.715-0.192,0.975-0.399
					c0.079-0.063,0.212-0.175,0.178-0.292c-0.047-0.16-0.37-0.245-0.509-0.288c-0.182-0.056-0.366-0.06-0.556-0.06
					c-0.18-0.001-0.352-0.01-0.528-0.021c-0.17-0.011-0.34,0.034-0.492-0.072c-0.431-0.303-0.138-0.759,0.072-1.11
					c0.161-0.27,0.753-1.525,0.059-1.45c-0.503,0.055-0.663,0.86-1.262,0.859c-0.129-0.402,0.409-1.371-0.309-1.409
					c-0.787-0.042-0.704,1.302-1.266,1.344c-0.485,0.036-0.083-0.909-0.34-1.103c-0.449-0.34-0.643,0.774-0.814,0.974
					C301.93,375.778,301.226,376.196,301.585,376.457z"/>
				<path style="fill:#F3B69A;" d="M301.546,377.61c0.157,0.708,1.027,0.714,1.683,0.508c0.439-0.138,1.124-0.533,1.08-1.011
					c-0.056-0.599-0.473-0.897-0.644-1.475c-0.485-1.638-1.295-8.327-1.738-9.787c-0.148-0.486-1.851,0.085-2.421,0.448
					c-0.597,0.38-1.111,1.137-1.055,1.845C298.537,369.233,301.182,375.97,301.546,377.61z"/>
			</g>
			<path style="fill:#F3B69A;" d="M287.39,366.73c0.034-0.959-2.157-1.333-2.846-1.353c-1.695-0.049-2.724,0.906-3.431,2.338
				c-1.189,2.41,0.578,5.276,3.295,5.636c1.6,0.212,3.421-0.927,4.049-2.41C289.036,369.576,288.723,368.486,287.39,366.73z"/>
			<path style="fill:#E7A07D;" d="M278.378,382.821l-5.073-0.171c0.521-0.392,2.423-0.715,5.42-0.972
				c1.112-0.095,1.243-2.273,1.384-3.566c0.062-0.573,1.831-0.101,2.445-0.141c0.432-0.028,1.131,0.009,1.433,0.418
				c0.268,0.363,0.135,0.987,0.037,1.394c-0.163,0.676-0.417,1.322-0.492,2.025c-0.084,0.795,0.122,1.521-0.098,2.299
				c-0.172,0.605-0.373,1.21-0.895,1.559c-0.436,0.291-0.88,0.386-1.326,0.379L278.378,382.821z"/>
			<path style="fill:#F3B69A;" d="M275.285,382.183c-3.62,0.299-1.92,1.556-1.666,2.117c0.074,0.165,0.451,3.39,3.95,2.292
				c2.132-0.67,1.588,0.067,3.844-0.373c2.267-0.443,2.037-2.274,1.263-3.016c-1.038-0.996-2.228-0.637-3.508-0.826
				C277.918,382.193,276.572,382.077,275.285,382.183z"/>
			<g>
				<path style="fill:#F3B69A;" d="M268.266,380.776c0.113-0.149,2.974-5.116,3.555-6.171c0.403-0.732,2.726-3.564,3.464-4.302
					c1.112-1.111,2.44-1.751,3.915-1.402c1.965,0.464,3.588,3.413-1.35,8.835c-0.148,0.163-5.926,4.877-6.988,5.645
					C268.888,384.809,266.745,382.783,268.266,380.776z"/>
				<g>
					<g>
						<g>
							<path style="fill:#E93F57;" d="M286.373,384.852c-1.259-0.477-2.427-1.165-3.395-2.037c-0.709-0.64-1.349-1.353-1.96-2.086
								c-0.713-0.854-1.399-1.693-2.002-2.631c-0.415-0.645-0.975-1.197-1.378-1.84c-0.617-0.986-1.248-2.53-0.926-3.71
								c0.703-2.571,4.218-4.47,6.544-5.15c2.095-0.613,4.294-1.479,6.521-1.207c3.17,0.388,6.664,3.027,8.035,5.882
								c0.147,0.307,0.219,0.794,0.434,1.051c0.215,0.257,0.595,0.267,0.791,0.492c0.392,0.45,0.3,1.138,0.303,1.72
								c0.006,1.831-0.168,3.747-0.884,5.45C296.442,385.582,290.83,386.539,286.373,384.852z"/>
						</g>
						<g>
							<path style="fill:#F37874;" d="M290.435,359.37c-0.799,0.5-4.686,2.253-4.848,5.248c-0.093,1.71-0.216,3.415-0.25,5.128
								c-0.023,1.158-0.032,2.316,0.013,3.473c0.023,0.596,0.061,1.192,0.119,1.786c0.039,0.406-0.025,0.842,0.051,1.236
								c0.407,2.096,2.576,3.111,4.425,3.606c1.357,0.364,2.805,0.428,4.197,0.236c0.656-0.09,1.319-0.168,1.955-0.358
								c1.271-0.379,2.376-1.067,3.048-2.248c0.771-1.357,0.782-2.999,0.772-4.56c-0.011-1.816-0.022-3.631-0.033-5.447
								c-0.015-2.516,0.237-4.044,0.062-6.849c-0.079-1.256-0.284-2.13-1.036-3.074c-0.439-0.552-1.173-0.617-2.04-0.589
								C294.594,357.032,292.331,358.184,290.435,359.37z"/>
						</g>
					</g>
					<g>
						<path style="fill:#F3B69A;" d="M295.312,354.255c0.023,0.519,0.046,1.038,0.068,1.556c0.018,0.431,0.04,0.872,0.204,1.271
							c0.193,0.469,0.442,0.699,0.401,1.228c-0.044,0.564-0.313,1.046-0.692,1.459c-0.715,0.78-1.684,1.323-2.723,1.525
							c-0.701,0.137-1.491,0.093-2.126-0.257c-0.906-0.499-0.648-1.175-0.583-2.073c0.07-0.96,0.035-2.174-0.793-3.008
							L295.312,354.255z"/>
					</g>
					<g>
						<g>
							<path style="fill:#322A89;" d="M298.667,344.534c1.081,0.327,1.94,1.195,2.456,2.199c0.516,1.004,0.723,2.138,0.823,3.263
								c0.25,2.801-0.118,5.659,0.467,8.41c-0.464-2.124-3.225-2.871-4.283-4.77c-0.524-0.941-0.591-2.108-1.231-2.974
								c-0.38-0.513-0.934-0.88-1.29-1.409C294.171,347.115,296.001,343.726,298.667,344.534z"/>
						</g>
					</g>
					<g>
						<path style="fill:#F3B69A;" d="M286.568,346.41c-0.393,0.479-0.701,1.018-0.795,1.649c-0.211,1.408,0.356,2.854,0.05,4.251
							c-0.296,1.353,0.284,4.426,2.953,5.214c1.35,0.399,4.014-0.068,4.871-0.478c1.15-0.551,1.91-1.666,2.59-2.745
							C301.811,345.449,290.348,341.809,286.568,346.41z"/>
					</g>
					<g>
						<path style="fill:#5654D6;" d="M296.861,343.965c-0.728-0.339-0.212-0.71-1.442-1.395c-1.487-0.827-3.29-0.867-4.975-0.625
							c-3.421,0.492-5.925,3.837-4.878,5.692c0.49,0.868,0.09-0.418,1.269,2.459c0.579,1.411,1.321,0.641,2.179,0.903
							c2.275,0.694-0.389,6.347,5.292,5.088c1.297-0.287,1.81-0.542,3.001-2.24c0.473-0.674,0.952-1.364,1.202-2.149
							c0.141-0.443,0.205-0.906,0.269-1.366C299.128,347.804,299.197,345.053,296.861,343.965z"/>
					</g>
					<g>
						<path style="fill:#F3B69A;" d="M289.617,350.394c1.069-0.09,1.363,1.233,0.646,2.272c-0.209,0.303-0.584,0.575-0.86,0.819
							c-1.889,1.665-2.401-0.093-1.801-0.659C288.994,351.51,288.273,350.508,289.617,350.394z"/>
					</g>
					<g>
						<path style="fill:#E7A07D;" d="M289.328,352.417c0.121-0.115,1.328-0.855,0.489-1.331c-0.232-0.132-0.485,0.074-0.516,0.318
							c-0.016,0.126,0.026,0.256,0.009,0.382c-0.01,0.075-0.04,0.146-0.078,0.211c-0.105,0.179-0.472,0.354-0.395,0.611
							C288.904,352.835,289.259,352.483,289.328,352.417z"/>
					</g>
					<g>
						<path style="fill:#7977ED;" d="M288.51,353.093c0.416,1.855,1.445,3.504,2.367,5.167c0.922,1.663,1.772,3.455,1.769,5.357
							c1.105-1.31,1.675-3.059,1.553-4.769c-0.087-1.213-0.526-2.391-0.523-3.611c0.003-1.17,0.513-2.071,0.902-3.138
							c0.551-1.514,0.446-3.015-0.893-4.076C290.193,345.256,287.827,350.048,288.51,353.093z"/>
					</g>
				</g>
			</g>
			<path style="fill:#F3B69A;" d="M268.699,386.495c-1.246,0.293-2.129-0.519-3.032-1.157c-0.721-0.51-1.577-0.236-2.358-0.461
				c-0.622-0.18-1.212-0.45-1.8-0.716c-0.392-0.177-1.078-0.278-1.362-0.609c-0.4-0.467-0.228-1.063,0.115-1.578
				c0.257-0.386,0.456-0.788,0.86-0.946c0.431-0.168,0.942-0.235,1.368-0.151c0.402,0.079,0.799,0.178,1.196,0.276
				c0.788,0.196,1.576,0.401,2.393,0.481c1.91,0.187,2.902-0.546,4.414-1.976c0.419-0.396,0.331-0.542,0.92-0.364
				c0.415,0.126,1.056,0.405,1.196,0.895c0.124,0.434-0.22,0.971-0.455,1.318c-0.39,0.576-0.854,1.092-1.17,1.724
				c-0.358,0.715-0.419,1.468-0.898,2.119C269.711,385.855,269.311,386.351,268.699,386.495z"/>
			<g>
				<path style="fill:#F3B69A;" d="M273.513,361.674c-1.112-1.127-3.454-2.569-4.632-2.346c-1.355,0.257-1.579,0.106-1.847,0.426
					c-0.686,0.821,0.281,0.834,0.343,1.087c0.069,0.284-0.183,0.256-0.378,0.961c-0.159,0.572,0.286,0.423,0.357,0.626
					c0.058,0.167-0.138,0.276-0.025,0.444c0.041,0.061,0.128,0.076,0.164,0.146c0.089,0.175-0.116,0.199,0.204,0.657
					c0.303,0.435,1.039-0.662,2.148-0.246c0.277,0.103,0.531,0.257,0.798,0.384c0.325,0.154,0.668,0.268,1.02,0.339
					c0.299,0.061,0.905,0.144,1.049,0.191L273.513,361.674z"/>
			</g>
			<path style="fill:#F3B69A;" d="M290.103,361.74c-0.405-0.28-0.876-0.46-1.354-0.573c-0.649-0.155-1.355-0.003-2.005,0.109
				c-1.892,0.327-3.823,1.146-5.63,1.785c-0.358,0.127-7.176-1.452-8.035-1.839c-0.38-0.171-0.69-0.559-1.046-0.202
				c-0.298,0.298-0.505,0.701-0.624,1.102c-0.127,0.427-0.19,0.905-0.118,1.348c0.032,0.195,0.089,0.477,0.264,0.598
				c0.155,0.107,0.417,0.103,0.598,0.165c1.723,0.595,3.325,1.436,5.008,2.116c0.806,0.326,1.612,0.652,2.43,0.947
				c0.709,0.256,1.518,0.655,2.276,0.567c1.552-0.178,3.089-0.495,4.574-0.983c0.749-0.246,1.483-0.536,2.196-0.871
				c0.637-0.299,1.277-0.559,1.746-1.105c0.387-0.45,0.715-1.051,0.62-1.657C290.91,362.663,290.596,362.08,290.103,361.74z"/>
		</g>
	</g>
</g>
</svg>
